<?xml version="1.0" encoding="utf-8" standalone="no"?>
<!DOCTYPE svg PUBLIC "-//W3C//DTD SVG 1.1//EN"
  "http://www.w3.org/Graphics/SVG/1.1/DTD/svg11.dtd">
<svg xmlns:xlink="http://www.w3.org/1999/xlink" width="360pt" height="144pt" viewBox="0 0 360 144" xmlns="http://www.w3.org/2000/svg" version="1.1">
 <metadata>
  <rdf:RDF xmlns:dc="http://purl.org/dc/elements/1.1/" xmlns:cc="http://creativecommons.org/ns#" xmlns:rdf="http://www.w3.org/1999/02/22-rdf-syntax-ns#">
   <cc:Work>
    <dc:type rdf:resource="http://purl.org/dc/dcmitype/StillImage"/>
    <dc:date>2025-07-30T10:02:30.597214</dc:date>
    <dc:format>image/svg+xml</dc:format>
    <dc:creator>
     <cc:Agent>
      <dc:title>Matplotlib v3.9.2, https://matplotlib.org/</dc:title>
     </cc:Agent>
    </dc:creator>
   </cc:Work>
  </rdf:RDF>
 </metadata>
 <defs>
  <style type="text/css">*{stroke-linejoin: round; stroke-linecap: butt}</style>
 </defs>
 <g id="figure_1">
  <g id="patch_1">
   <path d="M 0 144 
L 360 144 
L 360 0 
L 0 0 
z
" style="fill: #ffffff"/>
  </g>
  <g id="axes_1">
   <g id="patch_2">
    <path d="M 45 128.16 
L 324 128.16 
L 324 17.28 
L 45 17.28 
z
" style="fill: #ffffff"/>
   </g>
   <g id="PolyCollection_1">
    <defs>
     <path id="m10d806aa36" d="M 169.258313 -20.88 
L 60.241687 -20.88 
L 59.783992 -20.961923 
L 59.425141 -21.043845 
L 59.166272 -21.125768 
L 59.007918 -21.207691 
L 58.95 -21.289613 
L 58.991839 -21.371536 
L 59.132165 -21.453459 
L 59.369136 -21.535381 
L 59.700363 -21.617304 
L 60.122939 -21.699227 
L 60.633471 -21.781149 
L 61.228124 -21.863072 
L 61.902656 -21.944995 
L 62.652474 -22.026917 
L 63.472672 -22.10884 
L 64.35809 -22.190763 
L 65.303358 -22.272685 
L 66.302954 -22.354608 
L 67.351251 -22.436531 
L 68.442571 -22.518454 
L 69.571234 -22.600376 
L 70.731599 -22.682299 
L 71.918119 -22.764222 
L 73.125372 -22.846144 
L 74.348104 -22.928067 
L 75.581263 -23.00999 
L 76.820024 -23.091912 
L 78.059818 -23.173835 
L 79.296353 -23.255758 
L 80.525628 -23.33768 
L 81.743944 -23.419603 
L 82.947913 -23.501526 
L 84.134462 -23.583448 
L 85.300829 -23.665371 
L 86.44456 -23.747294 
L 87.563502 -23.829216 
L 88.655789 -23.911139 
L 89.719832 -23.993062 
L 90.7543 -24.074984 
L 91.758105 -24.156907 
L 92.730381 -24.23883 
L 93.670465 -24.320752 
L 94.577877 -24.402675 
L 95.4523 -24.484598 
L 96.293557 -24.56652 
L 97.101596 -24.648443 
L 97.876466 -24.730366 
L 98.618305 -24.812288 
L 99.327319 -24.894211 
L 100.003772 -24.976134 
L 100.647968 -25.058056 
L 101.260247 -25.139979 
L 101.84097 -25.221902 
L 102.390515 -25.303824 
L 102.909269 -25.385747 
L 103.397631 -25.46767 
L 103.856002 -25.549592 
L 104.284792 -25.631515 
L 104.684418 -25.713438 
L 105.055306 -25.795361 
L 105.397898 -25.877283 
L 105.712656 -25.959206 
L 106.000065 -26.041129 
L 106.260643 -26.123051 
L 106.494943 -26.204974 
L 106.703562 -26.286897 
L 106.887148 -26.368819 
L 107.046403 -26.450742 
L 107.18209 -26.532665 
L 107.295038 -26.614587 
L 107.386144 -26.69651 
L 107.456379 -26.778433 
L 107.506785 -26.860355 
L 107.538479 -26.942278 
L 107.552652 -27.024201 
L 107.550566 -27.106123 
L 107.533552 -27.188046 
L 107.503002 -27.269969 
L 107.46037 -27.351891 
L 107.407157 -27.433814 
L 107.34491 -27.515737 
L 107.275207 -27.597659 
L 107.199654 -27.679582 
L 107.119866 -27.761505 
L 107.037462 -27.843427 
L 106.954052 -27.92535 
L 106.871224 -28.007273 
L 106.790531 -28.089195 
L 106.713481 -28.171118 
L 106.641523 -28.253041 
L 106.576037 -28.334963 
L 106.518322 -28.416886 
L 106.469588 -28.498809 
L 106.430943 -28.580731 
L 106.403385 -28.662654 
L 106.3878 -28.744577 
L 106.384947 -28.826499 
L 106.395462 -28.908422 
L 106.419847 -28.990345 
L 123.080153 -28.990345 
L 123.080153 -28.990345 
L 123.104538 -28.908422 
L 123.115053 -28.826499 
L 123.1122 -28.744577 
L 123.096615 -28.662654 
L 123.069057 -28.580731 
L 123.030412 -28.498809 
L 122.981678 -28.416886 
L 122.923963 -28.334963 
L 122.858477 -28.253041 
L 122.786519 -28.171118 
L 122.709469 -28.089195 
L 122.628776 -28.007273 
L 122.545948 -27.92535 
L 122.462538 -27.843427 
L 122.380134 -27.761505 
L 122.300346 -27.679582 
L 122.224793 -27.597659 
L 122.15509 -27.515737 
L 122.092843 -27.433814 
L 122.03963 -27.351891 
L 121.996998 -27.269969 
L 121.966448 -27.188046 
L 121.949434 -27.106123 
L 121.947348 -27.024201 
L 121.961521 -26.942278 
L 121.993215 -26.860355 
L 122.043621 -26.778433 
L 122.113856 -26.69651 
L 122.204962 -26.614587 
L 122.31791 -26.532665 
L 122.453597 -26.450742 
L 122.612852 -26.368819 
L 122.796438 -26.286897 
L 123.005057 -26.204974 
L 123.239357 -26.123051 
L 123.499935 -26.041129 
L 123.787344 -25.959206 
L 124.102102 -25.877283 
L 124.444694 -25.795361 
L 124.815582 -25.713438 
L 125.215208 -25.631515 
L 125.643998 -25.549592 
L 126.102369 -25.46767 
L 126.590731 -25.385747 
L 127.109485 -25.303824 
L 127.65903 -25.221902 
L 128.239753 -25.139979 
L 128.852032 -25.058056 
L 129.496228 -24.976134 
L 130.172681 -24.894211 
L 130.881695 -24.812288 
L 131.623534 -24.730366 
L 132.398404 -24.648443 
L 133.206443 -24.56652 
L 134.0477 -24.484598 
L 134.922123 -24.402675 
L 135.829535 -24.320752 
L 136.769619 -24.23883 
L 137.741895 -24.156907 
L 138.7457 -24.074984 
L 139.780168 -23.993062 
L 140.844211 -23.911139 
L 141.936498 -23.829216 
L 143.05544 -23.747294 
L 144.199171 -23.665371 
L 145.365538 -23.583448 
L 146.552087 -23.501526 
L 147.756056 -23.419603 
L 148.974372 -23.33768 
L 150.203647 -23.255758 
L 151.440182 -23.173835 
L 152.679976 -23.091912 
L 153.918737 -23.00999 
L 155.151896 -22.928067 
L 156.374628 -22.846144 
L 157.581881 -22.764222 
L 158.768401 -22.682299 
L 159.928766 -22.600376 
L 161.057429 -22.518454 
L 162.148749 -22.436531 
L 163.197046 -22.354608 
L 164.196642 -22.272685 
L 165.14191 -22.190763 
L 166.027328 -22.10884 
L 166.847526 -22.026917 
L 167.597344 -21.944995 
L 168.271876 -21.863072 
L 168.866529 -21.781149 
L 169.377061 -21.699227 
L 169.799637 -21.617304 
L 170.130864 -21.535381 
L 170.367835 -21.453459 
L 170.508161 -21.371536 
L 170.55 -21.289613 
L 170.492082 -21.207691 
L 170.333728 -21.125768 
L 170.074859 -21.043845 
L 169.716008 -20.961923 
L 169.258313 -20.88 
z
" style="stroke: #6e6e6e; stroke-width: 0.2"/>
    </defs>
    <g clip-path="url(#pf68d407c4e)">
     <use xlink:href="#m10d806aa36" x="0" y="144" style="fill: #e28e8e; stroke: #6e6e6e; stroke-width: 0.2"/>
    </g>
   </g>
   <g id="PolyCollection_2">
    <defs>
     <path id="mb0e5ccc09e" d="M 287.122022 -27.831724 
L 221.377978 -27.831724 
L 220.054367 -28.779687 
L 218.746504 -29.727649 
L 217.45848 -30.675611 
L 216.194246 -31.623574 
L 214.957575 -32.571536 
L 213.752048 -33.519498 
L 212.581024 -34.467461 
L 211.447621 -35.415423 
L 210.3547 -36.363386 
L 209.304847 -37.311348 
L 208.300361 -38.25931 
L 207.343241 -39.207273 
L 206.435176 -40.155235 
L 205.577539 -41.103197 
L 204.771381 -42.05116 
L 204.017427 -42.999122 
L 203.316074 -43.947085 
L 202.667395 -44.895047 
L 202.071143 -45.843009 
L 201.526754 -46.790972 
L 201.033364 -47.738934 
L 200.589818 -48.686897 
L 200.194691 -49.634859 
L 199.84631 -50.582821 
L 199.542776 -51.530784 
L 199.282 -52.478746 
L 199.061731 -53.426708 
L 198.879598 -54.374671 
L 198.733146 -55.322633 
L 198.619881 -56.270596 
L 198.537318 -57.218558 
L 198.483019 -58.16652 
L 198.454646 -59.114483 
L 198.45 -60.062445 
L 198.467066 -61.010408 
L 198.504051 -61.95837 
L 198.559418 -62.906332 
L 198.631915 -63.854295 
L 198.720598 -64.802257 
L 198.824846 -65.750219 
L 198.944365 -66.698182 
L 199.079194 -67.646144 
L 199.229688 -68.594107 
L 199.396504 -69.542069 
L 199.580576 -70.490031 
L 199.783078 -71.437994 
L 200.005387 -72.385956 
L 200.249037 -73.333918 
L 200.515667 -74.281881 
L 200.806968 -75.229843 
L 201.124629 -76.177806 
L 201.470283 -77.125768 
L 201.845447 -78.07373 
L 202.25148 -79.021693 
L 202.689528 -79.969655 
L 203.160489 -80.917618 
L 203.664973 -81.86558 
L 204.203279 -82.813542 
L 204.775375 -83.761505 
L 205.380885 -84.709467 
L 206.019091 -85.657429 
L 206.688935 -86.605392 
L 207.389041 -87.553354 
L 208.117731 -88.501317 
L 208.873059 -89.449279 
L 209.652843 -90.397241 
L 210.454711 -91.345204 
L 211.276138 -92.293166 
L 212.114499 -93.241129 
L 212.967111 -94.189091 
L 213.831285 -95.137053 
L 214.704368 -96.085016 
L 215.583789 -97.032978 
L 216.467097 -97.98094 
L 217.351995 -98.928903 
L 218.236376 -99.876865 
L 219.118339 -100.824828 
L 219.996214 -101.77279 
L 220.86857 -102.720752 
L 221.734223 -103.668715 
L 222.592235 -104.616677 
L 223.441905 -105.564639 
L 224.282764 -106.512602 
L 225.114549 -107.460564 
L 225.937192 -108.408527 
L 226.750789 -109.356489 
L 227.555575 -110.304451 
L 228.351897 -111.252414 
L 229.14018 -112.200376 
L 229.920901 -113.148339 
L 230.694557 -114.096301 
L 231.461634 -115.044263 
L 232.222586 -115.992226 
L 232.977804 -116.940188 
L 233.727598 -117.88815 
L 234.472178 -118.836113 
L 235.211638 -119.784075 
L 235.945944 -120.732038 
L 236.674931 -121.68 
L 271.825069 -121.68 
L 271.825069 -121.68 
L 272.554056 -120.732038 
L 273.288362 -119.784075 
L 274.027822 -118.836113 
L 274.772402 -117.88815 
L 275.522196 -116.940188 
L 276.277414 -115.992226 
L 277.038366 -115.044263 
L 277.805443 -114.096301 
L 278.579099 -113.148339 
L 279.35982 -112.200376 
L 280.148103 -111.252414 
L 280.944425 -110.304451 
L 281.749211 -109.356489 
L 282.562808 -108.408527 
L 283.385451 -107.460564 
L 284.217236 -106.512602 
L 285.058095 -105.564639 
L 285.907765 -104.616677 
L 286.765777 -103.668715 
L 287.63143 -102.720752 
L 288.503786 -101.77279 
L 289.381661 -100.824828 
L 290.263624 -99.876865 
L 291.148005 -98.928903 
L 292.032903 -97.98094 
L 292.916211 -97.032978 
L 293.795632 -96.085016 
L 294.668715 -95.137053 
L 295.532889 -94.189091 
L 296.385501 -93.241129 
L 297.223862 -92.293166 
L 298.045289 -91.345204 
L 298.847157 -90.397241 
L 299.626941 -89.449279 
L 300.382269 -88.501317 
L 301.110959 -87.553354 
L 301.811065 -86.605392 
L 302.480909 -85.657429 
L 303.119115 -84.709467 
L 303.724625 -83.761505 
L 304.296721 -82.813542 
L 304.835027 -81.86558 
L 305.339511 -80.917618 
L 305.810472 -79.969655 
L 306.24852 -79.021693 
L 306.654553 -78.07373 
L 307.029717 -77.125768 
L 307.375371 -76.177806 
L 307.693032 -75.229843 
L 307.984333 -74.281881 
L 308.250963 -73.333918 
L 308.494613 -72.385956 
L 308.716922 -71.437994 
L 308.919424 -70.490031 
L 309.103496 -69.542069 
L 309.270312 -68.594107 
L 309.420806 -67.646144 
L 309.555635 -66.698182 
L 309.675154 -65.750219 
L 309.779402 -64.802257 
L 309.868085 -63.854295 
L 309.940582 -62.906332 
L 309.995949 -61.95837 
L 310.032934 -61.010408 
L 310.05 -60.062445 
L 310.045354 -59.114483 
L 310.016981 -58.16652 
L 309.962682 -57.218558 
L 309.880119 -56.270596 
L 309.766854 -55.322633 
L 309.620402 -54.374671 
L 309.438269 -53.426708 
L 309.218 -52.478746 
L 308.957224 -51.530784 
L 308.65369 -50.582821 
L 308.305309 -49.634859 
L 307.910182 -48.686897 
L 307.466636 -47.738934 
L 306.973246 -46.790972 
L 306.428857 -45.843009 
L 305.832605 -44.895047 
L 305.183926 -43.947085 
L 304.482573 -42.999122 
L 303.728619 -42.05116 
L 302.922461 -41.103197 
L 302.064824 -40.155235 
L 301.156759 -39.207273 
L 300.199639 -38.25931 
L 299.195153 -37.311348 
L 298.1453 -36.363386 
L 297.052379 -35.415423 
L 295.918976 -34.467461 
L 294.747952 -33.519498 
L 293.542425 -32.571536 
L 292.305754 -31.623574 
L 291.04152 -30.675611 
L 289.753496 -29.727649 
L 288.445633 -28.779687 
L 287.122022 -27.831724 
z
" style="stroke: #6e6e6e; stroke-width: 0.2"/>
    </defs>
    <g clip-path="url(#pf68d407c4e)">
     <use xlink:href="#mb0e5ccc09e" x="0" y="144" style="fill: #f5f5f5; stroke: #6e6e6e; stroke-width: 0.2"/>
    </g>
   </g>
   <g id="matplotlib.axis_1">
    <g id="xtick_1">
     <g id="line2d_1">
      <defs>
       <path id="m96dcd1ff4a" d="M 0 0 
L 0 3.5 
" style="stroke: #000000; stroke-width: 0.8"/>
      </defs>
      <g>
       <use xlink:href="#m96dcd1ff4a" x="114.75" y="128.16" style="stroke: #000000; stroke-width: 0.8"/>
      </g>
     </g>
     <g id="text_1">
      <!-- HD∆C -->
      <g transform="translate(100.303906 142.758438) scale(0.1 -0.1)">
       <defs>
        <path id="DejaVuSans-48" d="M 628 4666 
L 1259 4666 
L 1259 2753 
L 3553 2753 
L 3553 4666 
L 4184 4666 
L 4184 0 
L 3553 0 
L 3553 2222 
L 1259 2222 
L 1259 0 
L 628 0 
L 628 4666 
z
" transform="scale(0.015625)"/>
        <path id="DejaVuSans-44" d="M 1259 4147 
L 1259 519 
L 2022 519 
Q 2988 519 3436 956 
Q 3884 1394 3884 2338 
Q 3884 3275 3436 3711 
Q 2988 4147 2022 4147 
L 1259 4147 
z
M 628 4666 
L 1925 4666 
Q 3281 4666 3915 4102 
Q 4550 3538 4550 2338 
Q 4550 1131 3912 565 
Q 3275 0 1925 0 
L 628 0 
L 628 4666 
z
" transform="scale(0.015625)"/>
        <path id="DejaVuSans-2206" d="M 2138 3944 
L 831 556 
L 3444 556 
L 2138 3944 
z
M 1791 4603 
L 2491 4603 
L 4300 0 
L -19 0 
L 1791 4603 
z
" transform="scale(0.015625)"/>
        <path id="DejaVuSans-43" d="M 4122 4306 
L 4122 3641 
Q 3803 3938 3442 4084 
Q 3081 4231 2675 4231 
Q 1875 4231 1450 3742 
Q 1025 3253 1025 2328 
Q 1025 1406 1450 917 
Q 1875 428 2675 428 
Q 3081 428 3442 575 
Q 3803 722 4122 1019 
L 4122 359 
Q 3791 134 3420 21 
Q 3050 -91 2638 -91 
Q 1578 -91 968 557 
Q 359 1206 359 2328 
Q 359 3453 968 4101 
Q 1578 4750 2638 4750 
Q 3056 4750 3426 4639 
Q 3797 4528 4122 4306 
z
" transform="scale(0.015625)"/>
       </defs>
       <use xlink:href="#DejaVuSans-48"/>
       <use xlink:href="#DejaVuSans-44" x="75.195312"/>
       <use xlink:href="#DejaVuSans-2206" x="152.197266"/>
       <use xlink:href="#DejaVuSans-43" x="219.091797"/>
      </g>
     </g>
    </g>
    <g id="xtick_2">
     <g id="line2d_2">
      <g>
       <use xlink:href="#m96dcd1ff4a" x="254.25" y="128.16" style="stroke: #000000; stroke-width: 0.8"/>
      </g>
     </g>
     <g id="text_2">
      <!-- None -->
      <g transform="translate(241.204688 142.758438) scale(0.1 -0.1)">
       <defs>
        <path id="DejaVuSans-4e" d="M 628 4666 
L 1478 4666 
L 3547 763 
L 3547 4666 
L 4159 4666 
L 4159 0 
L 3309 0 
L 1241 3903 
L 1241 0 
L 628 0 
L 628 4666 
z
" transform="scale(0.015625)"/>
        <path id="DejaVuSans-6f" d="M 1959 3097 
Q 1497 3097 1228 2736 
Q 959 2375 959 1747 
Q 959 1119 1226 758 
Q 1494 397 1959 397 
Q 2419 397 2687 759 
Q 2956 1122 2956 1747 
Q 2956 2369 2687 2733 
Q 2419 3097 1959 3097 
z
M 1959 3584 
Q 2709 3584 3137 3096 
Q 3566 2609 3566 1747 
Q 3566 888 3137 398 
Q 2709 -91 1959 -91 
Q 1206 -91 779 398 
Q 353 888 353 1747 
Q 353 2609 779 3096 
Q 1206 3584 1959 3584 
z
" transform="scale(0.015625)"/>
        <path id="DejaVuSans-6e" d="M 3513 2113 
L 3513 0 
L 2938 0 
L 2938 2094 
Q 2938 2591 2744 2837 
Q 2550 3084 2163 3084 
Q 1697 3084 1428 2787 
Q 1159 2491 1159 1978 
L 1159 0 
L 581 0 
L 581 3500 
L 1159 3500 
L 1159 2956 
Q 1366 3272 1645 3428 
Q 1925 3584 2291 3584 
Q 2894 3584 3203 3211 
Q 3513 2838 3513 2113 
z
" transform="scale(0.015625)"/>
        <path id="DejaVuSans-65" d="M 3597 1894 
L 3597 1613 
L 953 1613 
Q 991 1019 1311 708 
Q 1631 397 2203 397 
Q 2534 397 2845 478 
Q 3156 559 3463 722 
L 3463 178 
Q 3153 47 2828 -22 
Q 2503 -91 2169 -91 
Q 1331 -91 842 396 
Q 353 884 353 1716 
Q 353 2575 817 3079 
Q 1281 3584 2069 3584 
Q 2775 3584 3186 3129 
Q 3597 2675 3597 1894 
z
M 3022 2063 
Q 3016 2534 2758 2815 
Q 2500 3097 2075 3097 
Q 1594 3097 1305 2825 
Q 1016 2553 972 2059 
L 3022 2063 
z
" transform="scale(0.015625)"/>
       </defs>
       <use xlink:href="#DejaVuSans-4e"/>
       <use xlink:href="#DejaVuSans-6f" x="74.804688"/>
       <use xlink:href="#DejaVuSans-6e" x="135.986328"/>
       <use xlink:href="#DejaVuSans-65" x="199.365234"/>
      </g>
     </g>
    </g>
   </g>
   <g id="matplotlib.axis_2">
    <g id="ytick_1">
     <g id="line2d_3">
      <defs>
       <path id="mdd8ae11c8b" d="M 0 0 
L -3.5 0 
" style="stroke: #000000; stroke-width: 0.8"/>
      </defs>
      <g>
       <use xlink:href="#mdd8ae11c8b" x="45" y="111.533793" style="stroke: #000000; stroke-width: 0.8"/>
      </g>
     </g>
     <g id="text_3">
      <!-- 0.2 -->
      <g transform="translate(22.096875 115.333012) scale(0.1 -0.1)">
       <defs>
        <path id="DejaVuSans-30" d="M 2034 4250 
Q 1547 4250 1301 3770 
Q 1056 3291 1056 2328 
Q 1056 1369 1301 889 
Q 1547 409 2034 409 
Q 2525 409 2770 889 
Q 3016 1369 3016 2328 
Q 3016 3291 2770 3770 
Q 2525 4250 2034 4250 
z
M 2034 4750 
Q 2819 4750 3233 4129 
Q 3647 3509 3647 2328 
Q 3647 1150 3233 529 
Q 2819 -91 2034 -91 
Q 1250 -91 836 529 
Q 422 1150 422 2328 
Q 422 3509 836 4129 
Q 1250 4750 2034 4750 
z
" transform="scale(0.015625)"/>
        <path id="DejaVuSans-2e" d="M 684 794 
L 1344 794 
L 1344 0 
L 684 0 
L 684 794 
z
" transform="scale(0.015625)"/>
        <path id="DejaVuSans-32" d="M 1228 531 
L 3431 531 
L 3431 0 
L 469 0 
L 469 531 
Q 828 903 1448 1529 
Q 2069 2156 2228 2338 
Q 2531 2678 2651 2914 
Q 2772 3150 2772 3378 
Q 2772 3750 2511 3984 
Q 2250 4219 1831 4219 
Q 1534 4219 1204 4116 
Q 875 4013 500 3803 
L 500 4441 
Q 881 4594 1212 4672 
Q 1544 4750 1819 4750 
Q 2544 4750 2975 4387 
Q 3406 4025 3406 3419 
Q 3406 3131 3298 2873 
Q 3191 2616 2906 2266 
Q 2828 2175 2409 1742 
Q 1991 1309 1228 531 
z
" transform="scale(0.015625)"/>
       </defs>
       <use xlink:href="#DejaVuSans-30"/>
       <use xlink:href="#DejaVuSans-2e" x="63.623047"/>
       <use xlink:href="#DejaVuSans-32" x="95.410156"/>
      </g>
     </g>
    </g>
    <g id="ytick_2">
     <g id="line2d_4">
      <g>
       <use xlink:href="#mdd8ae11c8b" x="45" y="88.361379" style="stroke: #000000; stroke-width: 0.8"/>
      </g>
     </g>
     <g id="text_4">
      <!-- 0.4 -->
      <g transform="translate(22.096875 92.160598) scale(0.1 -0.1)">
       <defs>
        <path id="DejaVuSans-34" d="M 2419 4116 
L 825 1625 
L 2419 1625 
L 2419 4116 
z
M 2253 4666 
L 3047 4666 
L 3047 1625 
L 3713 1625 
L 3713 1100 
L 3047 1100 
L 3047 0 
L 2419 0 
L 2419 1100 
L 313 1100 
L 313 1709 
L 2253 4666 
z
" transform="scale(0.015625)"/>
       </defs>
       <use xlink:href="#DejaVuSans-30"/>
       <use xlink:href="#DejaVuSans-2e" x="63.623047"/>
       <use xlink:href="#DejaVuSans-34" x="95.410156"/>
      </g>
     </g>
    </g>
    <g id="ytick_3">
     <g id="line2d_5">
      <g>
       <use xlink:href="#mdd8ae11c8b" x="45" y="65.188966" style="stroke: #000000; stroke-width: 0.8"/>
      </g>
     </g>
     <g id="text_5">
      <!-- 0.6 -->
      <g transform="translate(22.096875 68.988184) scale(0.1 -0.1)">
       <defs>
        <path id="DejaVuSans-36" d="M 2113 2584 
Q 1688 2584 1439 2293 
Q 1191 2003 1191 1497 
Q 1191 994 1439 701 
Q 1688 409 2113 409 
Q 2538 409 2786 701 
Q 3034 994 3034 1497 
Q 3034 2003 2786 2293 
Q 2538 2584 2113 2584 
z
M 3366 4563 
L 3366 3988 
Q 3128 4100 2886 4159 
Q 2644 4219 2406 4219 
Q 1781 4219 1451 3797 
Q 1122 3375 1075 2522 
Q 1259 2794 1537 2939 
Q 1816 3084 2150 3084 
Q 2853 3084 3261 2657 
Q 3669 2231 3669 1497 
Q 3669 778 3244 343 
Q 2819 -91 2113 -91 
Q 1303 -91 875 529 
Q 447 1150 447 2328 
Q 447 3434 972 4092 
Q 1497 4750 2381 4750 
Q 2619 4750 2861 4703 
Q 3103 4656 3366 4563 
z
" transform="scale(0.015625)"/>
       </defs>
       <use xlink:href="#DejaVuSans-30"/>
       <use xlink:href="#DejaVuSans-2e" x="63.623047"/>
       <use xlink:href="#DejaVuSans-36" x="95.410156"/>
      </g>
     </g>
    </g>
    <g id="ytick_4">
     <g id="line2d_6">
      <g>
       <use xlink:href="#mdd8ae11c8b" x="45" y="42.016552" style="stroke: #000000; stroke-width: 0.8"/>
      </g>
     </g>
     <g id="text_6">
      <!-- 0.8 -->
      <g transform="translate(22.096875 45.81577) scale(0.1 -0.1)">
       <defs>
        <path id="DejaVuSans-38" d="M 2034 2216 
Q 1584 2216 1326 1975 
Q 1069 1734 1069 1313 
Q 1069 891 1326 650 
Q 1584 409 2034 409 
Q 2484 409 2743 651 
Q 3003 894 3003 1313 
Q 3003 1734 2745 1975 
Q 2488 2216 2034 2216 
z
M 1403 2484 
Q 997 2584 770 2862 
Q 544 3141 544 3541 
Q 544 4100 942 4425 
Q 1341 4750 2034 4750 
Q 2731 4750 3128 4425 
Q 3525 4100 3525 3541 
Q 3525 3141 3298 2862 
Q 3072 2584 2669 2484 
Q 3125 2378 3379 2068 
Q 3634 1759 3634 1313 
Q 3634 634 3220 271 
Q 2806 -91 2034 -91 
Q 1263 -91 848 271 
Q 434 634 434 1313 
Q 434 1759 690 2068 
Q 947 2378 1403 2484 
z
M 1172 3481 
Q 1172 3119 1398 2916 
Q 1625 2713 2034 2713 
Q 2441 2713 2670 2916 
Q 2900 3119 2900 3481 
Q 2900 3844 2670 4047 
Q 2441 4250 2034 4250 
Q 1625 4250 1398 4047 
Q 1172 3844 1172 3481 
z
" transform="scale(0.015625)"/>
       </defs>
       <use xlink:href="#DejaVuSans-30"/>
       <use xlink:href="#DejaVuSans-2e" x="63.623047"/>
       <use xlink:href="#DejaVuSans-38" x="95.410156"/>
      </g>
     </g>
    </g>
    <g id="ytick_5">
     <g id="line2d_7">
      <g>
       <use xlink:href="#mdd8ae11c8b" x="45" y="18.844138" style="stroke: #000000; stroke-width: 0.8"/>
      </g>
     </g>
     <g id="text_7">
      <!-- 1.0 -->
      <g transform="translate(22.096875 22.643357) scale(0.1 -0.1)">
       <defs>
        <path id="DejaVuSans-31" d="M 794 531 
L 1825 531 
L 1825 4091 
L 703 3866 
L 703 4441 
L 1819 4666 
L 2450 4666 
L 2450 531 
L 3481 531 
L 3481 0 
L 794 0 
L 794 531 
z
" transform="scale(0.015625)"/>
       </defs>
       <use xlink:href="#DejaVuSans-31"/>
       <use xlink:href="#DejaVuSans-2e" x="63.623047"/>
       <use xlink:href="#DejaVuSans-30" x="95.410156"/>
      </g>
     </g>
    </g>
   </g>
   <g id="patch_3">
    <path d="M 45 128.16 
L 45 17.28 
" style="fill: none; stroke: #000000; stroke-width: 0.8; stroke-linejoin: miter; stroke-linecap: square"/>
   </g>
   <g id="patch_4">
    <path d="M 324 128.16 
L 324 17.28 
" style="fill: none; stroke: #000000; stroke-width: 0.8; stroke-linejoin: miter; stroke-linecap: square"/>
   </g>
   <g id="patch_5">
    <path d="M 45 128.16 
L 324 128.16 
" style="fill: none; stroke: #000000; stroke-width: 0.8; stroke-linejoin: miter; stroke-linecap: square"/>
   </g>
   <g id="patch_6">
    <path d="M 45 17.28 
L 324 17.28 
" style="fill: none; stroke: #000000; stroke-width: 0.8; stroke-linejoin: miter; stroke-linecap: square"/>
   </g>
   <g id="PathCollection_1">
    <defs>
     <path id="C0_0_86c753b3a5" d="M 0 2.5 
C 0.663008 2.5 1.29895 2.236584 1.767767 1.767767 
C 2.236584 1.29895 2.5 0.663008 2.5 -0 
C 2.5 -0.663008 2.236584 -1.29895 1.767767 -1.767767 
C 1.29895 -2.236584 0.663008 -2.5 0 -2.5 
C -0.663008 -2.5 -1.29895 -2.236584 -1.767767 -1.767767 
C -2.236584 -1.29895 -2.5 -0.663008 -2.5 0 
C -2.5 0.663008 -2.236584 1.29895 -1.767767 1.767767 
C -1.29895 2.236584 -0.663008 2.5 0 2.5 
z
"/>
    </defs>
    <g clip-path="url(#pf68d407c4e)">
     <use xlink:href="#C0_0_86c753b3a5" x="114.75" y="123.12" style="fill: #b22222"/>
    </g>
    <g clip-path="url(#pf68d407c4e)">
     <use xlink:href="#C0_0_86c753b3a5" x="109.5" y="123.12" style="fill: #b22222"/>
    </g>
    <g clip-path="url(#pf68d407c4e)">
     <use xlink:href="#C0_0_86c753b3a5" x="120" y="123.12" style="fill: #b22222"/>
    </g>
    <g clip-path="url(#pf68d407c4e)">
     <use xlink:href="#C0_0_86c753b3a5" x="104.25" y="123.12" style="fill: #b22222"/>
    </g>
    <g clip-path="url(#pf68d407c4e)">
     <use xlink:href="#C0_0_86c753b3a5" x="99.142897" y="121.961379" style="fill: #b22222"/>
    </g>
    <g clip-path="url(#pf68d407c4e)">
     <use xlink:href="#C0_0_86c753b3a5" x="125.25" y="123.12" style="fill: #b22222"/>
    </g>
    <g clip-path="url(#pf68d407c4e)">
     <use xlink:href="#C0_0_86c753b3a5" x="114.75" y="115.009655" style="fill: #b22222"/>
    </g>
    <g clip-path="url(#pf68d407c4e)">
     <use xlink:href="#C0_0_86c753b3a5" x="130.357103" y="121.961379" style="fill: #b22222"/>
    </g>
    <g clip-path="url(#pf68d407c4e)">
     <use xlink:href="#C0_0_86c753b3a5" x="94.490746" y="119.644138" style="fill: #b22222"/>
    </g>
   </g>
   <g id="PathCollection_2">
    <defs>
     <path id="C1_0_7d63ad636d" d="M 0 2.5 
C 0.663008 2.5 1.29895 2.236584 1.767767 1.767767 
C 2.236584 1.29895 2.5 0.663008 2.5 -0 
C 2.5 -0.663008 2.236584 -1.29895 1.767767 -1.767767 
C 1.29895 -2.236584 0.663008 -2.5 0 -2.5 
C -0.663008 -2.5 -1.29895 -2.236584 -1.767767 -1.767767 
C -2.236584 -1.29895 -2.5 -0.663008 -2.5 0 
C -2.5 0.663008 -2.236584 1.29895 -1.767767 1.767767 
C -1.29895 2.236584 -0.663008 2.5 0 2.5 
z
"/>
    </defs>
    <g clip-path="url(#pf68d407c4e)">
     <use xlink:href="#C1_0_7d63ad636d" x="254.25" y="67.506207" style="fill: #808080"/>
    </g>
    <g clip-path="url(#pf68d407c4e)">
     <use xlink:href="#C1_0_7d63ad636d" x="254.25" y="90.678621" style="fill: #808080"/>
    </g>
    <g clip-path="url(#pf68d407c4e)">
     <use xlink:href="#C1_0_7d63ad636d" x="254.25" y="59.395862" style="fill: #808080"/>
    </g>
    <g clip-path="url(#pf68d407c4e)">
     <use xlink:href="#C1_0_7d63ad636d" x="249" y="59.395862" style="fill: #808080"/>
    </g>
    <g clip-path="url(#pf68d407c4e)">
     <use xlink:href="#C1_0_7d63ad636d" x="254.25" y="116.168276" style="fill: #808080"/>
    </g>
    <g clip-path="url(#pf68d407c4e)">
     <use xlink:href="#C1_0_7d63ad636d" x="254.25" y="97.630345" style="fill: #808080"/>
    </g>
    <g clip-path="url(#pf68d407c4e)">
     <use xlink:href="#C1_0_7d63ad636d" x="254.25" y="36.223448" style="fill: #808080"/>
    </g>
    <g clip-path="url(#pf68d407c4e)">
     <use xlink:href="#C1_0_7d63ad636d" x="252.279586" y="111.533793" style="fill: #808080"/>
    </g>
    <g clip-path="url(#pf68d407c4e)">
     <use xlink:href="#C1_0_7d63ad636d" x="249.142897" y="89.52" style="fill: #808080"/>
    </g>
    <g clip-path="url(#pf68d407c4e)">
     <use xlink:href="#C1_0_7d63ad636d" x="254.25" y="22.32" style="fill: #808080"/>
    </g>
    <g clip-path="url(#pf68d407c4e)">
     <use xlink:href="#C1_0_7d63ad636d" x="254.25" y="105.74069" style="fill: #808080"/>
    </g>
    <g clip-path="url(#pf68d407c4e)">
     <use xlink:href="#C1_0_7d63ad636d" x="258.902151" y="88.361379" style="fill: #808080"/>
    </g>
    <g clip-path="url(#pf68d407c4e)">
     <use xlink:href="#C1_0_7d63ad636d" x="249.597849" y="65.188966" style="fill: #808080"/>
    </g>
    <g clip-path="url(#pf68d407c4e)">
     <use xlink:href="#C1_0_7d63ad636d" x="254.25" y="76.775172" style="fill: #808080"/>
    </g>
    <g clip-path="url(#pf68d407c4e)">
     <use xlink:href="#C1_0_7d63ad636d" x="254.25" y="46.651034" style="fill: #808080"/>
    </g>
   </g>
   <g id="text_8">
    <!-- ETS -->
    <g transform="translate(173.235 11.28) scale(0.12 -0.12)">
     <defs>
      <path id="DejaVuSans-45" d="M 628 4666 
L 3578 4666 
L 3578 4134 
L 1259 4134 
L 1259 2753 
L 3481 2753 
L 3481 2222 
L 1259 2222 
L 1259 531 
L 3634 531 
L 3634 0 
L 628 0 
L 628 4666 
z
" transform="scale(0.015625)"/>
      <path id="DejaVuSans-54" d="M -19 4666 
L 3928 4666 
L 3928 4134 
L 2272 4134 
L 2272 0 
L 1638 0 
L 1638 4134 
L -19 4134 
L -19 4666 
z
" transform="scale(0.015625)"/>
      <path id="DejaVuSans-53" d="M 3425 4513 
L 3425 3897 
Q 3066 4069 2747 4153 
Q 2428 4238 2131 4238 
Q 1616 4238 1336 4038 
Q 1056 3838 1056 3469 
Q 1056 3159 1242 3001 
Q 1428 2844 1947 2747 
L 2328 2669 
Q 3034 2534 3370 2195 
Q 3706 1856 3706 1288 
Q 3706 609 3251 259 
Q 2797 -91 1919 -91 
Q 1588 -91 1214 -16 
Q 841 59 441 206 
L 441 856 
Q 825 641 1194 531 
Q 1563 422 1919 422 
Q 2459 422 2753 634 
Q 3047 847 3047 1241 
Q 3047 1584 2836 1778 
Q 2625 1972 2144 2069 
L 1759 2144 
Q 1053 2284 737 2584 
Q 422 2884 422 3419 
Q 422 4038 858 4394 
Q 1294 4750 2059 4750 
Q 2388 4750 2728 4690 
Q 3069 4631 3425 4513 
z
" transform="scale(0.015625)"/>
     </defs>
     <use xlink:href="#DejaVuSans-45"/>
     <use xlink:href="#DejaVuSans-54" x="63.183594"/>
     <use xlink:href="#DejaVuSans-53" x="124.267578"/>
    </g>
   </g>
  </g>
 </g>
 <defs>
  <clipPath id="pf68d407c4e">
   <rect x="45" y="17.28" width="279" height="110.88"/>
  </clipPath>
 </defs>
</svg>
