<?xml version="1.0" encoding="utf-8" standalone="no"?>
<!DOCTYPE svg PUBLIC "-//W3C//DTD SVG 1.1//EN"
  "http://www.w3.org/Graphics/SVG/1.1/DTD/svg11.dtd">
<svg xmlns:xlink="http://www.w3.org/1999/xlink" width="360pt" height="144pt" viewBox="0 0 360 144" xmlns="http://www.w3.org/2000/svg" version="1.1">
 <metadata>
  <rdf:RDF xmlns:dc="http://purl.org/dc/elements/1.1/" xmlns:cc="http://creativecommons.org/ns#" xmlns:rdf="http://www.w3.org/1999/02/22-rdf-syntax-ns#">
   <cc:Work>
    <dc:type rdf:resource="http://purl.org/dc/dcmitype/StillImage"/>
    <dc:date>2025-07-30T10:02:33.128730</dc:date>
    <dc:format>image/svg+xml</dc:format>
    <dc:creator>
     <cc:Agent>
      <dc:title>Matplotlib v3.9.2, https://matplotlib.org/</dc:title>
     </cc:Agent>
    </dc:creator>
   </cc:Work>
  </rdf:RDF>
 </metadata>
 <defs>
  <style type="text/css">*{stroke-linejoin: round; stroke-linecap: butt}</style>
 </defs>
 <g id="figure_1">
  <g id="patch_1">
   <path d="M 0 144 
L 360 144 
L 360 0 
L 0 0 
z
" style="fill: #ffffff"/>
  </g>
  <g id="axes_1">
   <g id="patch_2">
    <path d="M 45 128.16 
L 324 128.16 
L 324 17.28 
L 45 17.28 
z
" style="fill: #ffffff"/>
   </g>
   <g id="PolyCollection_1">
    <defs>
     <path id="md7a32f03e0" d="M 170.55 -20.88 
L 58.95 -20.88 
L 58.980906 -21.036643 
L 59.081609 -21.193287 
L 59.251652 -21.34993 
L 59.490315 -21.506573 
L 59.796608 -21.663217 
L 60.169285 -21.81986 
L 60.606848 -21.976503 
L 61.107555 -22.133147 
L 61.669431 -22.28979 
L 62.290278 -22.446434 
L 62.967688 -22.603077 
L 63.699058 -22.75972 
L 64.481605 -22.916364 
L 65.312377 -23.073007 
L 66.188276 -23.22965 
L 67.10607 -23.386294 
L 68.062413 -23.542937 
L 69.053862 -23.69958 
L 70.076896 -23.856224 
L 71.127931 -24.012867 
L 72.203344 -24.16951 
L 73.299486 -24.326154 
L 74.412701 -24.482797 
L 75.539346 -24.639441 
L 76.675803 -24.796084 
L 77.818499 -24.952727 
L 78.963921 -25.109371 
L 80.108628 -25.266014 
L 81.249269 -25.422657 
L 82.382592 -25.579301 
L 83.505458 -25.735944 
L 84.614853 -25.892587 
L 85.707894 -26.049231 
L 86.781842 -26.205874 
L 87.834107 -26.362517 
L 88.862256 -26.519161 
L 89.864018 -26.675804 
L 90.837288 -26.832448 
L 91.780131 -26.989091 
L 92.690787 -27.145734 
L 93.567666 -27.302378 
L 94.409355 -27.459021 
L 95.214617 -27.615664 
L 95.982384 -27.772308 
L 96.711764 -27.928951 
L 97.402032 -28.085594 
L 98.052629 -28.242238 
L 98.663159 -28.398881 
L 99.233383 -28.555524 
L 99.763218 -28.712168 
L 100.252727 -28.868811 
L 100.702116 -29.025455 
L 101.111731 -29.182098 
L 101.482046 -29.338741 
L 101.813663 -29.495385 
L 102.107302 -29.652028 
L 102.363796 -29.808671 
L 102.584084 -29.965315 
L 102.769206 -30.121958 
L 102.920292 -30.278601 
L 103.038563 -30.435245 
L 103.125317 -30.591888 
L 103.181925 -30.748531 
L 103.209828 -30.905175 
L 103.210526 -31.061818 
L 103.185572 -31.218462 
L 103.136568 -31.375105 
L 103.065157 -31.531748 
L 102.973018 -31.688392 
L 102.861859 -31.845035 
L 102.733409 -32.001678 
L 102.589416 -32.158322 
L 102.431637 -32.314965 
L 102.261835 -32.471608 
L 102.081771 -32.628252 
L 101.8932 -32.784895 
L 101.697861 -32.941538 
L 101.49748 -33.098182 
L 101.293752 -33.254825 
L 101.088348 -33.411469 
L 100.8829 -33.568112 
L 100.679001 -33.724755 
L 100.478199 -33.881399 
L 100.281989 -34.038042 
L 100.091813 -34.194685 
L 99.90905 -34.351329 
L 99.735017 -34.507972 
L 99.57096 -34.664615 
L 99.418054 -34.821259 
L 99.277397 -34.977902 
L 99.150008 -35.134545 
L 99.036821 -35.291189 
L 98.938687 -35.447832 
L 98.856371 -35.604476 
L 98.790545 -35.761119 
L 98.741792 -35.917762 
L 98.710605 -36.074406 
L 98.697382 -36.231049 
L 98.702431 -36.387692 
L 130.797569 -36.387692 
L 130.797569 -36.387692 
L 130.802618 -36.231049 
L 130.789395 -36.074406 
L 130.758208 -35.917762 
L 130.709455 -35.761119 
L 130.643629 -35.604476 
L 130.561313 -35.447832 
L 130.463179 -35.291189 
L 130.349992 -35.134545 
L 130.222603 -34.977902 
L 130.081946 -34.821259 
L 129.92904 -34.664615 
L 129.764983 -34.507972 
L 129.59095 -34.351329 
L 129.408187 -34.194685 
L 129.218011 -34.038042 
L 129.021801 -33.881399 
L 128.820999 -33.724755 
L 128.6171 -33.568112 
L 128.411652 -33.411469 
L 128.206248 -33.254825 
L 128.00252 -33.098182 
L 127.802139 -32.941538 
L 127.6068 -32.784895 
L 127.418229 -32.628252 
L 127.238165 -32.471608 
L 127.068363 -32.314965 
L 126.910584 -32.158322 
L 126.766591 -32.001678 
L 126.638141 -31.845035 
L 126.526982 -31.688392 
L 126.434843 -31.531748 
L 126.363432 -31.375105 
L 126.314428 -31.218462 
L 126.289474 -31.061818 
L 126.290172 -30.905175 
L 126.318075 -30.748531 
L 126.374683 -30.591888 
L 126.461437 -30.435245 
L 126.579708 -30.278601 
L 126.730794 -30.121958 
L 126.915916 -29.965315 
L 127.136204 -29.808671 
L 127.392698 -29.652028 
L 127.686337 -29.495385 
L 128.017954 -29.338741 
L 128.388269 -29.182098 
L 128.797884 -29.025455 
L 129.247273 -28.868811 
L 129.736782 -28.712168 
L 130.266617 -28.555524 
L 130.836841 -28.398881 
L 131.447371 -28.242238 
L 132.097968 -28.085594 
L 132.788236 -27.928951 
L 133.517616 -27.772308 
L 134.285383 -27.615664 
L 135.090645 -27.459021 
L 135.932334 -27.302378 
L 136.809213 -27.145734 
L 137.719869 -26.989091 
L 138.662712 -26.832448 
L 139.635982 -26.675804 
L 140.637744 -26.519161 
L 141.665893 -26.362517 
L 142.718158 -26.205874 
L 143.792106 -26.049231 
L 144.885147 -25.892587 
L 145.994542 -25.735944 
L 147.117408 -25.579301 
L 148.250731 -25.422657 
L 149.391372 -25.266014 
L 150.536079 -25.109371 
L 151.681501 -24.952727 
L 152.824197 -24.796084 
L 153.960654 -24.639441 
L 155.087299 -24.482797 
L 156.200514 -24.326154 
L 157.296656 -24.16951 
L 158.372069 -24.012867 
L 159.423104 -23.856224 
L 160.446138 -23.69958 
L 161.437587 -23.542937 
L 162.39393 -23.386294 
L 163.311724 -23.22965 
L 164.187623 -23.073007 
L 165.018395 -22.916364 
L 165.800942 -22.75972 
L 166.532312 -22.603077 
L 167.209722 -22.446434 
L 167.830569 -22.28979 
L 168.392445 -22.133147 
L 168.893152 -21.976503 
L 169.330715 -21.81986 
L 169.703392 -21.663217 
L 170.009685 -21.506573 
L 170.248348 -21.34993 
L 170.418391 -21.193287 
L 170.519094 -21.036643 
L 170.55 -20.88 
z
" style="stroke: #6e6e6e; stroke-width: 0.2"/>
    </defs>
    <g clip-path="url(#p22bc9cacf7)">
     <use xlink:href="#md7a32f03e0" x="0" y="144" style="fill: #e28e8e; stroke: #6e6e6e; stroke-width: 0.2"/>
    </g>
   </g>
   <g id="PolyCollection_2">
    <defs>
     <path id="mcf64cc41b5" d="M 293.33672 -20.88 
L 215.16328 -20.88 
L 213.779529 -21.898182 
L 212.432842 -22.916364 
L 211.128687 -23.934545 
L 209.872245 -24.952727 
L 208.668348 -25.970909 
L 207.521432 -26.989091 
L 206.435482 -28.007273 
L 205.413995 -29.025455 
L 204.459936 -30.043636 
L 203.575708 -31.061818 
L 202.763131 -32.08 
L 202.023418 -33.098182 
L 201.357172 -34.116364 
L 200.764379 -35.134545 
L 200.244419 -36.152727 
L 199.796075 -37.170909 
L 199.417562 -38.189091 
L 199.106552 -39.207273 
L 198.860215 -40.225455 
L 198.67526 -41.243636 
L 198.547989 -42.261818 
L 198.47435 -43.28 
L 198.45 -44.298182 
L 198.470368 -45.316364 
L 198.530722 -46.334545 
L 198.626235 -47.352727 
L 198.75206 -48.370909 
L 198.903392 -49.389091 
L 199.075534 -50.407273 
L 199.263967 -51.425455 
L 199.464403 -52.443636 
L 199.67284 -53.461818 
L 199.885614 -54.48 
L 200.099438 -55.498182 
L 200.311434 -56.516364 
L 200.519165 -57.534545 
L 200.720648 -58.552727 
L 200.914368 -59.570909 
L 201.099275 -60.589091 
L 201.274778 -61.607273 
L 201.440734 -62.625455 
L 201.597417 -63.643636 
L 201.745499 -64.661818 
L 201.886004 -65.68 
L 202.020276 -66.698182 
L 202.149928 -67.716364 
L 202.276798 -68.734545 
L 202.402899 -69.752727 
L 202.530367 -70.770909 
L 202.661412 -71.789091 
L 202.798271 -72.807273 
L 202.943159 -73.825455 
L 203.09823 -74.843636 
L 203.265537 -75.861818 
L 203.446998 -76.88 
L 203.644372 -77.898182 
L 203.859235 -78.916364 
L 204.092962 -79.934545 
L 204.346722 -80.952727 
L 204.621471 -81.970909 
L 204.917955 -82.989091 
L 205.236718 -84.007273 
L 205.578113 -85.025455 
L 205.942317 -86.043636 
L 206.329351 -87.061818 
L 206.739101 -88.08 
L 207.171341 -89.098182 
L 207.625758 -90.116364 
L 208.101973 -91.134545 
L 208.599565 -92.152727 
L 209.118092 -93.170909 
L 209.657111 -94.189091 
L 210.216191 -95.207273 
L 210.79493 -96.225455 
L 211.39296 -97.243636 
L 212.009956 -98.261818 
L 212.645636 -99.28 
L 213.299763 -100.298182 
L 213.972136 -101.316364 
L 214.662581 -102.334545 
L 215.370945 -103.352727 
L 216.09708 -104.370909 
L 216.840825 -105.389091 
L 217.601997 -106.407273 
L 218.380366 -107.425455 
L 219.175642 -108.443636 
L 219.987458 -109.461818 
L 220.815355 -110.48 
L 221.658765 -111.498182 
L 222.517 -112.516364 
L 223.389245 -113.534545 
L 224.274545 -114.552727 
L 225.171807 -115.570909 
L 226.079792 -116.589091 
L 226.997121 -117.607273 
L 227.922278 -118.625455 
L 228.853616 -119.643636 
L 229.789371 -120.661818 
L 230.72767 -121.68 
L 277.77233 -121.68 
L 277.77233 -121.68 
L 278.710629 -120.661818 
L 279.646384 -119.643636 
L 280.577722 -118.625455 
L 281.502879 -117.607273 
L 282.420208 -116.589091 
L 283.328193 -115.570909 
L 284.225455 -114.552727 
L 285.110755 -113.534545 
L 285.983 -112.516364 
L 286.841235 -111.498182 
L 287.684645 -110.48 
L 288.512542 -109.461818 
L 289.324358 -108.443636 
L 290.119634 -107.425455 
L 290.898003 -106.407273 
L 291.659175 -105.389091 
L 292.40292 -104.370909 
L 293.129055 -103.352727 
L 293.837419 -102.334545 
L 294.527864 -101.316364 
L 295.200237 -100.298182 
L 295.854364 -99.28 
L 296.490044 -98.261818 
L 297.10704 -97.243636 
L 297.70507 -96.225455 
L 298.283809 -95.207273 
L 298.842889 -94.189091 
L 299.381908 -93.170909 
L 299.900435 -92.152727 
L 300.398027 -91.134545 
L 300.874242 -90.116364 
L 301.328659 -89.098182 
L 301.760899 -88.08 
L 302.170649 -87.061818 
L 302.557683 -86.043636 
L 302.921887 -85.025455 
L 303.263282 -84.007273 
L 303.582045 -82.989091 
L 303.878529 -81.970909 
L 304.153278 -80.952727 
L 304.407038 -79.934545 
L 304.640765 -78.916364 
L 304.855628 -77.898182 
L 305.053002 -76.88 
L 305.234463 -75.861818 
L 305.40177 -74.843636 
L 305.556841 -73.825455 
L 305.701729 -72.807273 
L 305.838588 -71.789091 
L 305.969633 -70.770909 
L 306.097101 -69.752727 
L 306.223202 -68.734545 
L 306.350072 -67.716364 
L 306.479724 -66.698182 
L 306.613996 -65.68 
L 306.754501 -64.661818 
L 306.902583 -63.643636 
L 307.059266 -62.625455 
L 307.225222 -61.607273 
L 307.400725 -60.589091 
L 307.585632 -59.570909 
L 307.779352 -58.552727 
L 307.980835 -57.534545 
L 308.188566 -56.516364 
L 308.400562 -55.498182 
L 308.614386 -54.48 
L 308.82716 -53.461818 
L 309.035597 -52.443636 
L 309.236033 -51.425455 
L 309.424466 -50.407273 
L 309.596608 -49.389091 
L 309.74794 -48.370909 
L 309.873765 -47.352727 
L 309.969278 -46.334545 
L 310.029632 -45.316364 
L 310.05 -44.298182 
L 310.02565 -43.28 
L 309.952011 -42.261818 
L 309.82474 -41.243636 
L 309.639785 -40.225455 
L 309.393448 -39.207273 
L 309.082438 -38.189091 
L 308.703925 -37.170909 
L 308.255581 -36.152727 
L 307.735621 -35.134545 
L 307.142828 -34.116364 
L 306.476582 -33.098182 
L 305.736869 -32.08 
L 304.924292 -31.061818 
L 304.040064 -30.043636 
L 303.086005 -29.025455 
L 302.064518 -28.007273 
L 300.978568 -26.989091 
L 299.831652 -25.970909 
L 298.627755 -24.952727 
L 297.371313 -23.934545 
L 296.067158 -22.916364 
L 294.720471 -21.898182 
L 293.33672 -20.88 
z
" style="stroke: #6e6e6e; stroke-width: 0.2"/>
    </defs>
    <g clip-path="url(#p22bc9cacf7)">
     <use xlink:href="#mcf64cc41b5" x="0" y="144" style="fill: #f5f5f5; stroke: #6e6e6e; stroke-width: 0.2"/>
    </g>
   </g>
   <g id="matplotlib.axis_1">
    <g id="xtick_1">
     <g id="line2d_1">
      <defs>
       <path id="md8e721b036" d="M 0 0 
L 0 3.5 
" style="stroke: #000000; stroke-width: 0.8"/>
      </defs>
      <g>
       <use xlink:href="#md8e721b036" x="114.75" y="128.16" style="stroke: #000000; stroke-width: 0.8"/>
      </g>
     </g>
     <g id="text_1">
      <!-- HD∆C -->
      <g transform="translate(100.303906 142.758438) scale(0.1 -0.1)">
       <defs>
        <path id="DejaVuSans-48" d="M 628 4666 
L 1259 4666 
L 1259 2753 
L 3553 2753 
L 3553 4666 
L 4184 4666 
L 4184 0 
L 3553 0 
L 3553 2222 
L 1259 2222 
L 1259 0 
L 628 0 
L 628 4666 
z
" transform="scale(0.015625)"/>
        <path id="DejaVuSans-44" d="M 1259 4147 
L 1259 519 
L 2022 519 
Q 2988 519 3436 956 
Q 3884 1394 3884 2338 
Q 3884 3275 3436 3711 
Q 2988 4147 2022 4147 
L 1259 4147 
z
M 628 4666 
L 1925 4666 
Q 3281 4666 3915 4102 
Q 4550 3538 4550 2338 
Q 4550 1131 3912 565 
Q 3275 0 1925 0 
L 628 0 
L 628 4666 
z
" transform="scale(0.015625)"/>
        <path id="DejaVuSans-2206" d="M 2138 3944 
L 831 556 
L 3444 556 
L 2138 3944 
z
M 1791 4603 
L 2491 4603 
L 4300 0 
L -19 0 
L 1791 4603 
z
" transform="scale(0.015625)"/>
        <path id="DejaVuSans-43" d="M 4122 4306 
L 4122 3641 
Q 3803 3938 3442 4084 
Q 3081 4231 2675 4231 
Q 1875 4231 1450 3742 
Q 1025 3253 1025 2328 
Q 1025 1406 1450 917 
Q 1875 428 2675 428 
Q 3081 428 3442 575 
Q 3803 722 4122 1019 
L 4122 359 
Q 3791 134 3420 21 
Q 3050 -91 2638 -91 
Q 1578 -91 968 557 
Q 359 1206 359 2328 
Q 359 3453 968 4101 
Q 1578 4750 2638 4750 
Q 3056 4750 3426 4639 
Q 3797 4528 4122 4306 
z
" transform="scale(0.015625)"/>
       </defs>
       <use xlink:href="#DejaVuSans-48"/>
       <use xlink:href="#DejaVuSans-44" x="75.195312"/>
       <use xlink:href="#DejaVuSans-2206" x="152.197266"/>
       <use xlink:href="#DejaVuSans-43" x="219.091797"/>
      </g>
     </g>
    </g>
    <g id="xtick_2">
     <g id="line2d_2">
      <g>
       <use xlink:href="#md8e721b036" x="254.25" y="128.16" style="stroke: #000000; stroke-width: 0.8"/>
      </g>
     </g>
     <g id="text_2">
      <!-- None -->
      <g transform="translate(241.204688 142.758438) scale(0.1 -0.1)">
       <defs>
        <path id="DejaVuSans-4e" d="M 628 4666 
L 1478 4666 
L 3547 763 
L 3547 4666 
L 4159 4666 
L 4159 0 
L 3309 0 
L 1241 3903 
L 1241 0 
L 628 0 
L 628 4666 
z
" transform="scale(0.015625)"/>
        <path id="DejaVuSans-6f" d="M 1959 3097 
Q 1497 3097 1228 2736 
Q 959 2375 959 1747 
Q 959 1119 1226 758 
Q 1494 397 1959 397 
Q 2419 397 2687 759 
Q 2956 1122 2956 1747 
Q 2956 2369 2687 2733 
Q 2419 3097 1959 3097 
z
M 1959 3584 
Q 2709 3584 3137 3096 
Q 3566 2609 3566 1747 
Q 3566 888 3137 398 
Q 2709 -91 1959 -91 
Q 1206 -91 779 398 
Q 353 888 353 1747 
Q 353 2609 779 3096 
Q 1206 3584 1959 3584 
z
" transform="scale(0.015625)"/>
        <path id="DejaVuSans-6e" d="M 3513 2113 
L 3513 0 
L 2938 0 
L 2938 2094 
Q 2938 2591 2744 2837 
Q 2550 3084 2163 3084 
Q 1697 3084 1428 2787 
Q 1159 2491 1159 1978 
L 1159 0 
L 581 0 
L 581 3500 
L 1159 3500 
L 1159 2956 
Q 1366 3272 1645 3428 
Q 1925 3584 2291 3584 
Q 2894 3584 3203 3211 
Q 3513 2838 3513 2113 
z
" transform="scale(0.015625)"/>
        <path id="DejaVuSans-65" d="M 3597 1894 
L 3597 1613 
L 953 1613 
Q 991 1019 1311 708 
Q 1631 397 2203 397 
Q 2534 397 2845 478 
Q 3156 559 3463 722 
L 3463 178 
Q 3153 47 2828 -22 
Q 2503 -91 2169 -91 
Q 1331 -91 842 396 
Q 353 884 353 1716 
Q 353 2575 817 3079 
Q 1281 3584 2069 3584 
Q 2775 3584 3186 3129 
Q 3597 2675 3597 1894 
z
M 3022 2063 
Q 3016 2534 2758 2815 
Q 2500 3097 2075 3097 
Q 1594 3097 1305 2825 
Q 1016 2553 972 2059 
L 3022 2063 
z
" transform="scale(0.015625)"/>
       </defs>
       <use xlink:href="#DejaVuSans-4e"/>
       <use xlink:href="#DejaVuSans-6f" x="74.804688"/>
       <use xlink:href="#DejaVuSans-6e" x="135.986328"/>
       <use xlink:href="#DejaVuSans-65" x="199.365234"/>
      </g>
     </g>
    </g>
   </g>
   <g id="matplotlib.axis_2">
    <g id="ytick_1">
     <g id="line2d_3">
      <defs>
       <path id="m41a79f3dd2" d="M 0 0 
L -3.5 0 
" style="stroke: #000000; stroke-width: 0.8"/>
      </defs>
      <g>
       <use xlink:href="#m41a79f3dd2" x="45" y="92.104615" style="stroke: #000000; stroke-width: 0.8"/>
      </g>
     </g>
     <g id="text_3">
      <!-- 0.90 -->
      <g transform="translate(15.734375 95.903834) scale(0.1 -0.1)">
       <defs>
        <path id="DejaVuSans-30" d="M 2034 4250 
Q 1547 4250 1301 3770 
Q 1056 3291 1056 2328 
Q 1056 1369 1301 889 
Q 1547 409 2034 409 
Q 2525 409 2770 889 
Q 3016 1369 3016 2328 
Q 3016 3291 2770 3770 
Q 2525 4250 2034 4250 
z
M 2034 4750 
Q 2819 4750 3233 4129 
Q 3647 3509 3647 2328 
Q 3647 1150 3233 529 
Q 2819 -91 2034 -91 
Q 1250 -91 836 529 
Q 422 1150 422 2328 
Q 422 3509 836 4129 
Q 1250 4750 2034 4750 
z
" transform="scale(0.015625)"/>
        <path id="DejaVuSans-2e" d="M 684 794 
L 1344 794 
L 1344 0 
L 684 0 
L 684 794 
z
" transform="scale(0.015625)"/>
        <path id="DejaVuSans-39" d="M 703 97 
L 703 672 
Q 941 559 1184 500 
Q 1428 441 1663 441 
Q 2288 441 2617 861 
Q 2947 1281 2994 2138 
Q 2813 1869 2534 1725 
Q 2256 1581 1919 1581 
Q 1219 1581 811 2004 
Q 403 2428 403 3163 
Q 403 3881 828 4315 
Q 1253 4750 1959 4750 
Q 2769 4750 3195 4129 
Q 3622 3509 3622 2328 
Q 3622 1225 3098 567 
Q 2575 -91 1691 -91 
Q 1453 -91 1209 -44 
Q 966 3 703 97 
z
M 1959 2075 
Q 2384 2075 2632 2365 
Q 2881 2656 2881 3163 
Q 2881 3666 2632 3958 
Q 2384 4250 1959 4250 
Q 1534 4250 1286 3958 
Q 1038 3666 1038 3163 
Q 1038 2656 1286 2365 
Q 1534 2075 1959 2075 
z
" transform="scale(0.015625)"/>
       </defs>
       <use xlink:href="#DejaVuSans-30"/>
       <use xlink:href="#DejaVuSans-2e" x="63.623047"/>
       <use xlink:href="#DejaVuSans-39" x="95.410156"/>
       <use xlink:href="#DejaVuSans-30" x="159.033203"/>
      </g>
     </g>
    </g>
    <g id="ytick_2">
     <g id="line2d_4">
      <g>
       <use xlink:href="#m41a79f3dd2" x="45" y="53.335385" style="stroke: #000000; stroke-width: 0.8"/>
      </g>
     </g>
     <g id="text_4">
      <!-- 0.95 -->
      <g transform="translate(15.734375 57.134603) scale(0.1 -0.1)">
       <defs>
        <path id="DejaVuSans-35" d="M 691 4666 
L 3169 4666 
L 3169 4134 
L 1269 4134 
L 1269 2991 
Q 1406 3038 1543 3061 
Q 1681 3084 1819 3084 
Q 2600 3084 3056 2656 
Q 3513 2228 3513 1497 
Q 3513 744 3044 326 
Q 2575 -91 1722 -91 
Q 1428 -91 1123 -41 
Q 819 9 494 109 
L 494 744 
Q 775 591 1075 516 
Q 1375 441 1709 441 
Q 2250 441 2565 725 
Q 2881 1009 2881 1497 
Q 2881 1984 2565 2268 
Q 2250 2553 1709 2553 
Q 1456 2553 1204 2497 
Q 953 2441 691 2322 
L 691 4666 
z
" transform="scale(0.015625)"/>
       </defs>
       <use xlink:href="#DejaVuSans-30"/>
       <use xlink:href="#DejaVuSans-2e" x="63.623047"/>
       <use xlink:href="#DejaVuSans-39" x="95.410156"/>
       <use xlink:href="#DejaVuSans-35" x="159.033203"/>
      </g>
     </g>
    </g>
   </g>
   <g id="patch_3">
    <path d="M 45 128.16 
L 45 17.28 
" style="fill: none; stroke: #000000; stroke-width: 0.8; stroke-linejoin: miter; stroke-linecap: square"/>
   </g>
   <g id="patch_4">
    <path d="M 324 128.16 
L 324 17.28 
" style="fill: none; stroke: #000000; stroke-width: 0.8; stroke-linejoin: miter; stroke-linecap: square"/>
   </g>
   <g id="patch_5">
    <path d="M 45 128.16 
L 324 128.16 
" style="fill: none; stroke: #000000; stroke-width: 0.8; stroke-linejoin: miter; stroke-linecap: square"/>
   </g>
   <g id="patch_6">
    <path d="M 45 17.28 
L 324 17.28 
" style="fill: none; stroke: #000000; stroke-width: 0.8; stroke-linejoin: miter; stroke-linecap: square"/>
   </g>
   <g id="PathCollection_1">
    <defs>
     <path id="C0_0_fac40db37e" d="M 0 2.5 
C 0.663008 2.5 1.29895 2.236584 1.767767 1.767767 
C 2.236584 1.29895 2.5 0.663008 2.5 -0 
C 2.5 -0.663008 2.236584 -1.29895 1.767767 -1.767767 
C 1.29895 -2.236584 0.663008 -2.5 0 -2.5 
C -0.663008 -2.5 -1.29895 -2.236584 -1.767767 -1.767767 
C -2.236584 -1.29895 -2.5 -0.663008 -2.5 0 
C -2.5 0.663008 -2.236584 1.29895 -1.767767 1.767767 
C -1.29895 2.236584 -0.663008 2.5 0 2.5 
z
"/>
    </defs>
    <g clip-path="url(#p22bc9cacf7)">
     <use xlink:href="#C0_0_fac40db37e" x="114.75" y="123.12" style="fill: #b22222"/>
    </g>
    <g clip-path="url(#p22bc9cacf7)">
     <use xlink:href="#C0_0_fac40db37e" x="109.5" y="123.12" style="fill: #b22222"/>
    </g>
    <g clip-path="url(#p22bc9cacf7)">
     <use xlink:href="#C0_0_fac40db37e" x="114.75" y="107.612308" style="fill: #b22222"/>
    </g>
    <g clip-path="url(#p22bc9cacf7)">
     <use xlink:href="#C0_0_fac40db37e" x="120" y="123.12" style="fill: #b22222"/>
    </g>
    <g clip-path="url(#p22bc9cacf7)">
     <use xlink:href="#C0_0_fac40db37e" x="109.5" y="107.612308" style="fill: #b22222"/>
    </g>
    <g clip-path="url(#p22bc9cacf7)">
     <use xlink:href="#C0_0_fac40db37e" x="104.25" y="123.12" style="fill: #b22222"/>
    </g>
    <g clip-path="url(#p22bc9cacf7)">
     <use xlink:href="#C0_0_fac40db37e" x="125.25" y="123.12" style="fill: #b22222"/>
    </g>
    <g clip-path="url(#p22bc9cacf7)">
     <use xlink:href="#C0_0_fac40db37e" x="99" y="123.12" style="fill: #b22222"/>
    </g>
    <g clip-path="url(#p22bc9cacf7)">
     <use xlink:href="#C0_0_fac40db37e" x="130.5" y="123.12" style="fill: #b22222"/>
    </g>
   </g>
   <g id="PathCollection_2">
    <defs>
     <path id="C1_0_f23a855bb0" d="M 0 2.5 
C 0.663008 2.5 1.29895 2.236584 1.767767 1.767767 
C 2.236584 1.29895 2.5 0.663008 2.5 -0 
C 2.5 -0.663008 2.236584 -1.29895 1.767767 -1.767767 
C 1.29895 -2.236584 0.663008 -2.5 0 -2.5 
C -0.663008 -2.5 -1.29895 -2.236584 -1.767767 -1.767767 
C -2.236584 -1.29895 -2.5 -0.663008 -2.5 0 
C -2.5 0.663008 -2.236584 1.29895 -1.767767 1.767767 
C -1.29895 2.236584 -0.663008 2.5 0 2.5 
z
"/>
    </defs>
    <g clip-path="url(#p22bc9cacf7)">
     <use xlink:href="#C1_0_f23a855bb0" x="254.25" y="68.843077" style="fill: #808080"/>
    </g>
    <g clip-path="url(#p22bc9cacf7)">
     <use xlink:href="#C1_0_f23a855bb0" x="254.25" y="107.612308" style="fill: #808080"/>
    </g>
    <g clip-path="url(#p22bc9cacf7)">
     <use xlink:href="#C1_0_f23a855bb0" x="254.25" y="61.089231" style="fill: #808080"/>
    </g>
    <g clip-path="url(#p22bc9cacf7)">
     <use xlink:href="#C1_0_f23a855bb0" x="254.25" y="53.335385" style="fill: #808080"/>
    </g>
    <g clip-path="url(#p22bc9cacf7)">
     <use xlink:href="#C1_0_f23a855bb0" x="254.25" y="123.12" style="fill: #808080"/>
    </g>
    <g clip-path="url(#p22bc9cacf7)">
     <use xlink:href="#C1_0_f23a855bb0" x="254.25" y="115.366154" style="fill: #808080"/>
    </g>
    <g clip-path="url(#p22bc9cacf7)">
     <use xlink:href="#C1_0_f23a855bb0" x="254.25" y="37.827692" style="fill: #808080"/>
    </g>
    <g clip-path="url(#p22bc9cacf7)">
     <use xlink:href="#C1_0_f23a855bb0" x="254.25" y="99.858462" style="fill: #808080"/>
    </g>
    <g clip-path="url(#p22bc9cacf7)">
     <use xlink:href="#C1_0_f23a855bb0" x="249" y="115.366154" style="fill: #808080"/>
    </g>
    <g clip-path="url(#p22bc9cacf7)">
     <use xlink:href="#C1_0_f23a855bb0" x="254.25" y="22.32" style="fill: #808080"/>
    </g>
    <g clip-path="url(#p22bc9cacf7)">
     <use xlink:href="#C1_0_f23a855bb0" x="249" y="99.858462" style="fill: #808080"/>
    </g>
    <g clip-path="url(#p22bc9cacf7)">
     <use xlink:href="#C1_0_f23a855bb0" x="254.25" y="92.104615" style="fill: #808080"/>
    </g>
    <g clip-path="url(#p22bc9cacf7)">
     <use xlink:href="#C1_0_f23a855bb0" x="254.25" y="76.596923" style="fill: #808080"/>
    </g>
    <g clip-path="url(#p22bc9cacf7)">
     <use xlink:href="#C1_0_f23a855bb0" x="249" y="68.843077" style="fill: #808080"/>
    </g>
    <g clip-path="url(#p22bc9cacf7)">
     <use xlink:href="#C1_0_f23a855bb0" x="249" y="37.827692" style="fill: #808080"/>
    </g>
   </g>
   <g id="text_5">
    <!-- ETS -->
    <g transform="translate(173.235 11.28) scale(0.12 -0.12)">
     <defs>
      <path id="DejaVuSans-45" d="M 628 4666 
L 3578 4666 
L 3578 4134 
L 1259 4134 
L 1259 2753 
L 3481 2753 
L 3481 2222 
L 1259 2222 
L 1259 531 
L 3634 531 
L 3634 0 
L 628 0 
L 628 4666 
z
" transform="scale(0.015625)"/>
      <path id="DejaVuSans-54" d="M -19 4666 
L 3928 4666 
L 3928 4134 
L 2272 4134 
L 2272 0 
L 1638 0 
L 1638 4134 
L -19 4134 
L -19 4666 
z
" transform="scale(0.015625)"/>
      <path id="DejaVuSans-53" d="M 3425 4513 
L 3425 3897 
Q 3066 4069 2747 4153 
Q 2428 4238 2131 4238 
Q 1616 4238 1336 4038 
Q 1056 3838 1056 3469 
Q 1056 3159 1242 3001 
Q 1428 2844 1947 2747 
L 2328 2669 
Q 3034 2534 3370 2195 
Q 3706 1856 3706 1288 
Q 3706 609 3251 259 
Q 2797 -91 1919 -91 
Q 1588 -91 1214 -16 
Q 841 59 441 206 
L 441 856 
Q 825 641 1194 531 
Q 1563 422 1919 422 
Q 2459 422 2753 634 
Q 3047 847 3047 1241 
Q 3047 1584 2836 1778 
Q 2625 1972 2144 2069 
L 1759 2144 
Q 1053 2284 737 2584 
Q 422 2884 422 3419 
Q 422 4038 858 4394 
Q 1294 4750 2059 4750 
Q 2388 4750 2728 4690 
Q 3069 4631 3425 4513 
z
" transform="scale(0.015625)"/>
     </defs>
     <use xlink:href="#DejaVuSans-45"/>
     <use xlink:href="#DejaVuSans-54" x="63.183594"/>
     <use xlink:href="#DejaVuSans-53" x="124.267578"/>
    </g>
   </g>
  </g>
 </g>
 <defs>
  <clipPath id="p22bc9cacf7">
   <rect x="45" y="17.28" width="279" height="110.88"/>
  </clipPath>
 </defs>
</svg>
