<?xml version="1.0" encoding="utf-8" standalone="no"?>
<!DOCTYPE svg PUBLIC "-//W3C//DTD SVG 1.1//EN"
  "http://www.w3.org/Graphics/SVG/1.1/DTD/svg11.dtd">
<svg xmlns:xlink="http://www.w3.org/1999/xlink" width="360pt" height="144pt" viewBox="0 0 360 144" xmlns="http://www.w3.org/2000/svg" version="1.1">
 <metadata>
  <rdf:RDF xmlns:dc="http://purl.org/dc/elements/1.1/" xmlns:cc="http://creativecommons.org/ns#" xmlns:rdf="http://www.w3.org/1999/02/22-rdf-syntax-ns#">
   <cc:Work>
    <dc:type rdf:resource="http://purl.org/dc/dcmitype/StillImage"/>
    <dc:date>2025-07-30T10:02:36.281515</dc:date>
    <dc:format>image/svg+xml</dc:format>
    <dc:creator>
     <cc:Agent>
      <dc:title>Matplotlib v3.9.2, https://matplotlib.org/</dc:title>
     </cc:Agent>
    </dc:creator>
   </cc:Work>
  </rdf:RDF>
 </metadata>
 <defs>
  <style type="text/css">*{stroke-linejoin: round; stroke-linecap: butt}</style>
 </defs>
 <g id="figure_1">
  <g id="patch_1">
   <path d="M 0 144 
L 360 144 
L 360 0 
L 0 0 
z
" style="fill: #ffffff"/>
  </g>
  <g id="axes_1">
   <g id="patch_2">
    <path d="M 45 128.16 
L 324 128.16 
L 324 17.28 
L 45 17.28 
z
" style="fill: #ffffff"/>
   </g>
   <g id="PolyCollection_1">
    <defs>
     <path id="m38f0ea8742" d="M 162.433237 -20.88 
L 67.066763 -20.88 
L 65.787997 -20.993131 
L 64.597334 -21.106263 
L 63.502755 -21.219394 
L 62.511711 -21.332525 
L 61.631031 -21.445657 
L 60.866846 -21.558788 
L 60.224509 -21.671919 
L 59.708529 -21.785051 
L 59.322512 -21.898182 
L 59.069114 -22.011313 
L 58.95 -22.124444 
L 58.965822 -22.237576 
L 59.116201 -22.350707 
L 59.399733 -22.463838 
L 59.81399 -22.57697 
L 60.355554 -22.690101 
L 61.020046 -22.803232 
L 61.802178 -22.916364 
L 62.695811 -23.029495 
L 63.694024 -23.142626 
L 64.789191 -23.255758 
L 65.973071 -23.368889 
L 67.236898 -23.48202 
L 68.571483 -23.595152 
L 69.967309 -23.708283 
L 71.414644 -23.821414 
L 72.903641 -23.934545 
L 74.424444 -24.047677 
L 75.967287 -24.160808 
L 77.522599 -24.273939 
L 79.081088 -24.387071 
L 80.633836 -24.500202 
L 82.172374 -24.613333 
L 83.688752 -24.726465 
L 85.175605 -24.839596 
L 86.626203 -24.952727 
L 88.03449 -25.065859 
L 89.395121 -25.17899 
L 90.70348 -25.292121 
L 91.955691 -25.405253 
L 93.148617 -25.518384 
L 94.279854 -25.631515 
L 95.347711 -25.744646 
L 96.351183 -25.857778 
L 97.289916 -25.970909 
L 98.164167 -26.08404 
L 98.974756 -26.197172 
L 99.723015 -26.310303 
L 100.410731 -26.423434 
L 101.040089 -26.536566 
L 101.613612 -26.649697 
L 102.134098 -26.762828 
L 102.604564 -26.87596 
L 103.028182 -26.989091 
L 103.408228 -27.102222 
L 103.748023 -27.215354 
L 104.050887 -27.328485 
L 104.320093 -27.441616 
L 104.558822 -27.554747 
L 104.770133 -27.667879 
L 104.956931 -27.78101 
L 105.12194 -27.894141 
L 105.267689 -28.007273 
L 105.396497 -28.120404 
L 105.510462 -28.233535 
L 105.611466 -28.346667 
L 105.701173 -28.459798 
L 105.781036 -28.572929 
L 105.852313 -28.686061 
L 105.916075 -28.799192 
L 105.97323 -28.912323 
L 106.024539 -29.025455 
L 106.070641 -29.138586 
L 106.11207 -29.251717 
L 106.149286 -29.364848 
L 106.18269 -29.47798 
L 106.21265 -29.591111 
L 106.239519 -29.704242 
L 106.263658 -29.817374 
L 106.285446 -29.930505 
L 106.305297 -30.043636 
L 106.323673 -30.156768 
L 106.341087 -30.269899 
L 106.35811 -30.38303 
L 106.375374 -30.496162 
L 106.393566 -30.609293 
L 106.41343 -30.722424 
L 106.435753 -30.835556 
L 106.46136 -30.948687 
L 106.491101 -31.061818 
L 106.525838 -31.174949 
L 106.566429 -31.288081 
L 106.613714 -31.401212 
L 106.6685 -31.514343 
L 106.731542 -31.627475 
L 106.803533 -31.740606 
L 106.885085 -31.853737 
L 106.976716 -31.966869 
L 107.078844 -32.08 
L 122.421156 -32.08 
L 122.421156 -32.08 
L 122.523284 -31.966869 
L 122.614915 -31.853737 
L 122.696467 -31.740606 
L 122.768458 -31.627475 
L 122.8315 -31.514343 
L 122.886286 -31.401212 
L 122.933571 -31.288081 
L 122.974162 -31.174949 
L 123.008899 -31.061818 
L 123.03864 -30.948687 
L 123.064247 -30.835556 
L 123.08657 -30.722424 
L 123.106434 -30.609293 
L 123.124626 -30.496162 
L 123.14189 -30.38303 
L 123.158913 -30.269899 
L 123.176327 -30.156768 
L 123.194703 -30.043636 
L 123.214554 -29.930505 
L 123.236342 -29.817374 
L 123.260481 -29.704242 
L 123.28735 -29.591111 
L 123.31731 -29.47798 
L 123.350714 -29.364848 
L 123.38793 -29.251717 
L 123.429359 -29.138586 
L 123.475461 -29.025455 
L 123.52677 -28.912323 
L 123.583925 -28.799192 
L 123.647687 -28.686061 
L 123.718964 -28.572929 
L 123.798827 -28.459798 
L 123.888534 -28.346667 
L 123.989538 -28.233535 
L 124.103503 -28.120404 
L 124.232311 -28.007273 
L 124.37806 -27.894141 
L 124.543069 -27.78101 
L 124.729867 -27.667879 
L 124.941178 -27.554747 
L 125.179907 -27.441616 
L 125.449113 -27.328485 
L 125.751977 -27.215354 
L 126.091772 -27.102222 
L 126.471818 -26.989091 
L 126.895436 -26.87596 
L 127.365902 -26.762828 
L 127.886388 -26.649697 
L 128.459911 -26.536566 
L 129.089269 -26.423434 
L 129.776985 -26.310303 
L 130.525244 -26.197172 
L 131.335833 -26.08404 
L 132.210084 -25.970909 
L 133.148817 -25.857778 
L 134.152289 -25.744646 
L 135.220146 -25.631515 
L 136.351383 -25.518384 
L 137.544309 -25.405253 
L 138.79652 -25.292121 
L 140.104879 -25.17899 
L 141.46551 -25.065859 
L 142.873797 -24.952727 
L 144.324395 -24.839596 
L 145.811248 -24.726465 
L 147.327626 -24.613333 
L 148.866164 -24.500202 
L 150.418912 -24.387071 
L 151.977401 -24.273939 
L 153.532713 -24.160808 
L 155.075556 -24.047677 
L 156.596359 -23.934545 
L 158.085356 -23.821414 
L 159.532691 -23.708283 
L 160.928517 -23.595152 
L 162.263102 -23.48202 
L 163.526929 -23.368889 
L 164.710809 -23.255758 
L 165.805976 -23.142626 
L 166.804189 -23.029495 
L 167.697822 -22.916364 
L 168.479954 -22.803232 
L 169.144446 -22.690101 
L 169.68601 -22.57697 
L 170.100267 -22.463838 
L 170.383799 -22.350707 
L 170.534178 -22.237576 
L 170.55 -22.124444 
L 170.430886 -22.011313 
L 170.177488 -21.898182 
L 169.791471 -21.785051 
L 169.275491 -21.671919 
L 168.633154 -21.558788 
L 167.868969 -21.445657 
L 166.988289 -21.332525 
L 165.997245 -21.219394 
L 164.902666 -21.106263 
L 163.712003 -20.993131 
L 162.433237 -20.88 
z
" style="stroke: #6e6e6e; stroke-width: 0.2"/>
    </defs>
    <g clip-path="url(#p8bafb0e18f)">
     <use xlink:href="#m38f0ea8742" x="0" y="144" style="fill: #e28e8e; stroke: #6e6e6e; stroke-width: 0.2"/>
    </g>
   </g>
   <g id="PolyCollection_2">
    <defs>
     <path id="m679bc91b05" d="M 267.598092 -38.189091 
L 240.901908 -38.189091 
L 240.407724 -39.032433 
L 239.911806 -39.875776 
L 239.414511 -40.719118 
L 238.916192 -41.562461 
L 238.417205 -42.405803 
L 237.917915 -43.249146 
L 237.418697 -44.092489 
L 236.919943 -44.935831 
L 236.42206 -45.779174 
L 235.925466 -46.622516 
L 235.430586 -47.465859 
L 234.937848 -48.309201 
L 234.447664 -49.152544 
L 233.960424 -49.995886 
L 233.476479 -50.839229 
L 232.996116 -51.682571 
L 232.519548 -52.525914 
L 232.046886 -53.369256 
L 231.578119 -54.212599 
L 231.113095 -55.055941 
L 230.6515 -55.899284 
L 230.192838 -56.742626 
L 229.736419 -57.585969 
L 229.281345 -58.429311 
L 228.826505 -59.272654 
L 228.37057 -60.115996 
L 227.912001 -60.959339 
L 227.449056 -61.802681 
L 226.979806 -62.646024 
L 226.502159 -63.489366 
L 226.013892 -64.332709 
L 225.51268 -65.176051 
L 224.996147 -66.019394 
L 224.461903 -66.862736 
L 223.907605 -67.706079 
L 223.331004 -68.549421 
L 222.730006 -69.392764 
L 222.102731 -70.236107 
L 221.447569 -71.079449 
L 220.763238 -71.922792 
L 220.048836 -72.766134 
L 219.303892 -73.609477 
L 218.528408 -74.452819 
L 217.722897 -75.296162 
L 216.88841 -76.139504 
L 216.026556 -76.982847 
L 215.13951 -77.826189 
L 214.230016 -78.669532 
L 213.301371 -79.512874 
L 212.357406 -80.356217 
L 211.402453 -81.199559 
L 210.441298 -82.042902 
L 209.479137 -82.886244 
L 208.521506 -83.729587 
L 207.574221 -84.572929 
L 206.643299 -85.416272 
L 205.734883 -86.259614 
L 204.855156 -87.102957 
L 204.010266 -87.946299 
L 203.206237 -88.789642 
L 202.448894 -89.632984 
L 201.743785 -90.476327 
L 201.096112 -91.319669 
L 200.510666 -92.163012 
L 199.991774 -93.006354 
L 199.54325 -93.849697 
L 199.168358 -94.693039 
L 198.869788 -95.536382 
L 198.649638 -96.379725 
L 198.509406 -97.223067 
L 198.45 -98.06641 
L 198.471748 -98.909752 
L 198.57442 -99.753095 
L 198.757264 -100.596437 
L 199.019035 -101.43978 
L 199.358048 -102.283122 
L 199.772216 -103.126465 
L 200.259105 -103.969807 
L 200.815985 -104.81315 
L 201.439881 -105.656492 
L 202.12762 -106.499835 
L 202.875885 -107.343177 
L 203.681252 -108.18652 
L 204.540239 -109.029862 
L 205.449333 -109.873205 
L 206.405027 -110.716547 
L 207.403838 -111.55989 
L 208.442333 -112.403232 
L 209.517138 -113.246575 
L 210.624946 -114.089917 
L 211.762524 -114.93326 
L 212.926709 -115.776602 
L 214.114407 -116.619945 
L 215.322584 -117.463287 
L 216.548259 -118.30663 
L 217.788496 -119.149972 
L 219.04039 -119.993315 
L 220.301063 -120.836657 
L 221.567651 -121.68 
L 286.932349 -121.68 
L 286.932349 -121.68 
L 288.198937 -120.836657 
L 289.45961 -119.993315 
L 290.711504 -119.149972 
L 291.951741 -118.30663 
L 293.177416 -117.463287 
L 294.385593 -116.619945 
L 295.573291 -115.776602 
L 296.737476 -114.93326 
L 297.875054 -114.089917 
L 298.982862 -113.246575 
L 300.057667 -112.403232 
L 301.096162 -111.55989 
L 302.094973 -110.716547 
L 303.050667 -109.873205 
L 303.959761 -109.029862 
L 304.818748 -108.18652 
L 305.624115 -107.343177 
L 306.37238 -106.499835 
L 307.060119 -105.656492 
L 307.684015 -104.81315 
L 308.240895 -103.969807 
L 308.727784 -103.126465 
L 309.141952 -102.283122 
L 309.480965 -101.43978 
L 309.742736 -100.596437 
L 309.92558 -99.753095 
L 310.028252 -98.909752 
L 310.05 -98.06641 
L 309.990594 -97.223067 
L 309.850362 -96.379725 
L 309.630212 -95.536382 
L 309.331642 -94.693039 
L 308.95675 -93.849697 
L 308.508226 -93.006354 
L 307.989334 -92.163012 
L 307.403888 -91.319669 
L 306.756215 -90.476327 
L 306.051106 -89.632984 
L 305.293763 -88.789642 
L 304.489734 -87.946299 
L 303.644844 -87.102957 
L 302.765117 -86.259614 
L 301.856701 -85.416272 
L 300.925779 -84.572929 
L 299.978494 -83.729587 
L 299.020863 -82.886244 
L 298.058702 -82.042902 
L 297.097547 -81.199559 
L 296.142594 -80.356217 
L 295.198629 -79.512874 
L 294.269984 -78.669532 
L 293.36049 -77.826189 
L 292.473444 -76.982847 
L 291.61159 -76.139504 
L 290.777103 -75.296162 
L 289.971592 -74.452819 
L 289.196108 -73.609477 
L 288.451164 -72.766134 
L 287.736762 -71.922792 
L 287.052431 -71.079449 
L 286.397269 -70.236107 
L 285.769994 -69.392764 
L 285.168996 -68.549421 
L 284.592395 -67.706079 
L 284.038097 -66.862736 
L 283.503853 -66.019394 
L 282.98732 -65.176051 
L 282.486108 -64.332709 
L 281.997841 -63.489366 
L 281.520194 -62.646024 
L 281.050944 -61.802681 
L 280.587999 -60.959339 
L 280.12943 -60.115996 
L 279.673495 -59.272654 
L 279.218655 -58.429311 
L 278.763581 -57.585969 
L 278.307162 -56.742626 
L 277.8485 -55.899284 
L 277.386905 -55.055941 
L 276.921881 -54.212599 
L 276.453114 -53.369256 
L 275.980452 -52.525914 
L 275.503884 -51.682571 
L 275.023521 -50.839229 
L 274.539576 -49.995886 
L 274.052336 -49.152544 
L 273.562152 -48.309201 
L 273.069414 -47.465859 
L 272.574534 -46.622516 
L 272.07794 -45.779174 
L 271.580057 -44.935831 
L 271.081303 -44.092489 
L 270.582085 -43.249146 
L 270.082795 -42.405803 
L 269.583808 -41.562461 
L 269.085489 -40.719118 
L 268.588194 -39.875776 
L 268.092276 -39.032433 
L 267.598092 -38.189091 
z
" style="stroke: #6e6e6e; stroke-width: 0.2"/>
    </defs>
    <g clip-path="url(#p8bafb0e18f)">
     <use xlink:href="#m679bc91b05" x="0" y="144" style="fill: #f5f5f5; stroke: #6e6e6e; stroke-width: 0.2"/>
    </g>
   </g>
   <g id="matplotlib.axis_1">
    <g id="xtick_1">
     <g id="line2d_1">
      <defs>
       <path id="m768e50388f" d="M 0 0 
L 0 3.5 
" style="stroke: #000000; stroke-width: 0.8"/>
      </defs>
      <g>
       <use xlink:href="#m768e50388f" x="114.75" y="128.16" style="stroke: #000000; stroke-width: 0.8"/>
      </g>
     </g>
     <g id="text_1">
      <!-- HD∆C -->
      <g transform="translate(100.303906 142.758438) scale(0.1 -0.1)">
       <defs>
        <path id="DejaVuSans-48" d="M 628 4666 
L 1259 4666 
L 1259 2753 
L 3553 2753 
L 3553 4666 
L 4184 4666 
L 4184 0 
L 3553 0 
L 3553 2222 
L 1259 2222 
L 1259 0 
L 628 0 
L 628 4666 
z
" transform="scale(0.015625)"/>
        <path id="DejaVuSans-44" d="M 1259 4147 
L 1259 519 
L 2022 519 
Q 2988 519 3436 956 
Q 3884 1394 3884 2338 
Q 3884 3275 3436 3711 
Q 2988 4147 2022 4147 
L 1259 4147 
z
M 628 4666 
L 1925 4666 
Q 3281 4666 3915 4102 
Q 4550 3538 4550 2338 
Q 4550 1131 3912 565 
Q 3275 0 1925 0 
L 628 0 
L 628 4666 
z
" transform="scale(0.015625)"/>
        <path id="DejaVuSans-2206" d="M 2138 3944 
L 831 556 
L 3444 556 
L 2138 3944 
z
M 1791 4603 
L 2491 4603 
L 4300 0 
L -19 0 
L 1791 4603 
z
" transform="scale(0.015625)"/>
        <path id="DejaVuSans-43" d="M 4122 4306 
L 4122 3641 
Q 3803 3938 3442 4084 
Q 3081 4231 2675 4231 
Q 1875 4231 1450 3742 
Q 1025 3253 1025 2328 
Q 1025 1406 1450 917 
Q 1875 428 2675 428 
Q 3081 428 3442 575 
Q 3803 722 4122 1019 
L 4122 359 
Q 3791 134 3420 21 
Q 3050 -91 2638 -91 
Q 1578 -91 968 557 
Q 359 1206 359 2328 
Q 359 3453 968 4101 
Q 1578 4750 2638 4750 
Q 3056 4750 3426 4639 
Q 3797 4528 4122 4306 
z
" transform="scale(0.015625)"/>
       </defs>
       <use xlink:href="#DejaVuSans-48"/>
       <use xlink:href="#DejaVuSans-44" x="75.195312"/>
       <use xlink:href="#DejaVuSans-2206" x="152.197266"/>
       <use xlink:href="#DejaVuSans-43" x="219.091797"/>
      </g>
     </g>
    </g>
    <g id="xtick_2">
     <g id="line2d_2">
      <g>
       <use xlink:href="#m768e50388f" x="254.25" y="128.16" style="stroke: #000000; stroke-width: 0.8"/>
      </g>
     </g>
     <g id="text_2">
      <!-- None -->
      <g transform="translate(241.204688 142.758438) scale(0.1 -0.1)">
       <defs>
        <path id="DejaVuSans-4e" d="M 628 4666 
L 1478 4666 
L 3547 763 
L 3547 4666 
L 4159 4666 
L 4159 0 
L 3309 0 
L 1241 3903 
L 1241 0 
L 628 0 
L 628 4666 
z
" transform="scale(0.015625)"/>
        <path id="DejaVuSans-6f" d="M 1959 3097 
Q 1497 3097 1228 2736 
Q 959 2375 959 1747 
Q 959 1119 1226 758 
Q 1494 397 1959 397 
Q 2419 397 2687 759 
Q 2956 1122 2956 1747 
Q 2956 2369 2687 2733 
Q 2419 3097 1959 3097 
z
M 1959 3584 
Q 2709 3584 3137 3096 
Q 3566 2609 3566 1747 
Q 3566 888 3137 398 
Q 2709 -91 1959 -91 
Q 1206 -91 779 398 
Q 353 888 353 1747 
Q 353 2609 779 3096 
Q 1206 3584 1959 3584 
z
" transform="scale(0.015625)"/>
        <path id="DejaVuSans-6e" d="M 3513 2113 
L 3513 0 
L 2938 0 
L 2938 2094 
Q 2938 2591 2744 2837 
Q 2550 3084 2163 3084 
Q 1697 3084 1428 2787 
Q 1159 2491 1159 1978 
L 1159 0 
L 581 0 
L 581 3500 
L 1159 3500 
L 1159 2956 
Q 1366 3272 1645 3428 
Q 1925 3584 2291 3584 
Q 2894 3584 3203 3211 
Q 3513 2838 3513 2113 
z
" transform="scale(0.015625)"/>
        <path id="DejaVuSans-65" d="M 3597 1894 
L 3597 1613 
L 953 1613 
Q 991 1019 1311 708 
Q 1631 397 2203 397 
Q 2534 397 2845 478 
Q 3156 559 3463 722 
L 3463 178 
Q 3153 47 2828 -22 
Q 2503 -91 2169 -91 
Q 1331 -91 842 396 
Q 353 884 353 1716 
Q 353 2575 817 3079 
Q 1281 3584 2069 3584 
Q 2775 3584 3186 3129 
Q 3597 2675 3597 1894 
z
M 3022 2063 
Q 3016 2534 2758 2815 
Q 2500 3097 2075 3097 
Q 1594 3097 1305 2825 
Q 1016 2553 972 2059 
L 3022 2063 
z
" transform="scale(0.015625)"/>
       </defs>
       <use xlink:href="#DejaVuSans-4e"/>
       <use xlink:href="#DejaVuSans-6f" x="74.804688"/>
       <use xlink:href="#DejaVuSans-6e" x="135.986328"/>
       <use xlink:href="#DejaVuSans-65" x="199.365234"/>
      </g>
     </g>
    </g>
   </g>
   <g id="matplotlib.axis_2">
    <g id="ytick_1">
     <g id="line2d_3">
      <defs>
       <path id="m8a1aa48b36" d="M 0 0 
L -3.5 0 
" style="stroke: #000000; stroke-width: 0.8"/>
      </defs>
      <g>
       <use xlink:href="#m8a1aa48b36" x="45" y="124.138182" style="stroke: #000000; stroke-width: 0.8"/>
      </g>
     </g>
     <g id="text_3">
      <!-- 0.00 -->
      <g transform="translate(15.734375 127.937401) scale(0.1 -0.1)">
       <defs>
        <path id="DejaVuSans-30" d="M 2034 4250 
Q 1547 4250 1301 3770 
Q 1056 3291 1056 2328 
Q 1056 1369 1301 889 
Q 1547 409 2034 409 
Q 2525 409 2770 889 
Q 3016 1369 3016 2328 
Q 3016 3291 2770 3770 
Q 2525 4250 2034 4250 
z
M 2034 4750 
Q 2819 4750 3233 4129 
Q 3647 3509 3647 2328 
Q 3647 1150 3233 529 
Q 2819 -91 2034 -91 
Q 1250 -91 836 529 
Q 422 1150 422 2328 
Q 422 3509 836 4129 
Q 1250 4750 2034 4750 
z
" transform="scale(0.015625)"/>
        <path id="DejaVuSans-2e" d="M 684 794 
L 1344 794 
L 1344 0 
L 684 0 
L 684 794 
z
" transform="scale(0.015625)"/>
       </defs>
       <use xlink:href="#DejaVuSans-30"/>
       <use xlink:href="#DejaVuSans-2e" x="63.623047"/>
       <use xlink:href="#DejaVuSans-30" x="95.410156"/>
       <use xlink:href="#DejaVuSans-30" x="159.033203"/>
      </g>
     </g>
    </g>
    <g id="ytick_2">
     <g id="line2d_4">
      <g>
       <use xlink:href="#m8a1aa48b36" x="45" y="98.683636" style="stroke: #000000; stroke-width: 0.8"/>
      </g>
     </g>
     <g id="text_4">
      <!-- 0.25 -->
      <g transform="translate(15.734375 102.482855) scale(0.1 -0.1)">
       <defs>
        <path id="DejaVuSans-32" d="M 1228 531 
L 3431 531 
L 3431 0 
L 469 0 
L 469 531 
Q 828 903 1448 1529 
Q 2069 2156 2228 2338 
Q 2531 2678 2651 2914 
Q 2772 3150 2772 3378 
Q 2772 3750 2511 3984 
Q 2250 4219 1831 4219 
Q 1534 4219 1204 4116 
Q 875 4013 500 3803 
L 500 4441 
Q 881 4594 1212 4672 
Q 1544 4750 1819 4750 
Q 2544 4750 2975 4387 
Q 3406 4025 3406 3419 
Q 3406 3131 3298 2873 
Q 3191 2616 2906 2266 
Q 2828 2175 2409 1742 
Q 1991 1309 1228 531 
z
" transform="scale(0.015625)"/>
        <path id="DejaVuSans-35" d="M 691 4666 
L 3169 4666 
L 3169 4134 
L 1269 4134 
L 1269 2991 
Q 1406 3038 1543 3061 
Q 1681 3084 1819 3084 
Q 2600 3084 3056 2656 
Q 3513 2228 3513 1497 
Q 3513 744 3044 326 
Q 2575 -91 1722 -91 
Q 1428 -91 1123 -41 
Q 819 9 494 109 
L 494 744 
Q 775 591 1075 516 
Q 1375 441 1709 441 
Q 2250 441 2565 725 
Q 2881 1009 2881 1497 
Q 2881 1984 2565 2268 
Q 2250 2553 1709 2553 
Q 1456 2553 1204 2497 
Q 953 2441 691 2322 
L 691 4666 
z
" transform="scale(0.015625)"/>
       </defs>
       <use xlink:href="#DejaVuSans-30"/>
       <use xlink:href="#DejaVuSans-2e" x="63.623047"/>
       <use xlink:href="#DejaVuSans-32" x="95.410156"/>
       <use xlink:href="#DejaVuSans-35" x="159.033203"/>
      </g>
     </g>
    </g>
    <g id="ytick_3">
     <g id="line2d_5">
      <g>
       <use xlink:href="#m8a1aa48b36" x="45" y="73.229091" style="stroke: #000000; stroke-width: 0.8"/>
      </g>
     </g>
     <g id="text_5">
      <!-- 0.50 -->
      <g transform="translate(15.734375 77.02831) scale(0.1 -0.1)">
       <use xlink:href="#DejaVuSans-30"/>
       <use xlink:href="#DejaVuSans-2e" x="63.623047"/>
       <use xlink:href="#DejaVuSans-35" x="95.410156"/>
       <use xlink:href="#DejaVuSans-30" x="159.033203"/>
      </g>
     </g>
    </g>
    <g id="ytick_4">
     <g id="line2d_6">
      <g>
       <use xlink:href="#m8a1aa48b36" x="45" y="47.774545" style="stroke: #000000; stroke-width: 0.8"/>
      </g>
     </g>
     <g id="text_6">
      <!-- 0.75 -->
      <g transform="translate(15.734375 51.573764) scale(0.1 -0.1)">
       <defs>
        <path id="DejaVuSans-37" d="M 525 4666 
L 3525 4666 
L 3525 4397 
L 1831 0 
L 1172 0 
L 2766 4134 
L 525 4134 
L 525 4666 
z
" transform="scale(0.015625)"/>
       </defs>
       <use xlink:href="#DejaVuSans-30"/>
       <use xlink:href="#DejaVuSans-2e" x="63.623047"/>
       <use xlink:href="#DejaVuSans-37" x="95.410156"/>
       <use xlink:href="#DejaVuSans-35" x="159.033203"/>
      </g>
     </g>
    </g>
    <g id="ytick_5">
     <g id="line2d_7">
      <g>
       <use xlink:href="#m8a1aa48b36" x="45" y="22.32" style="stroke: #000000; stroke-width: 0.8"/>
      </g>
     </g>
     <g id="text_7">
      <!-- 1.00 -->
      <g transform="translate(15.734375 26.119219) scale(0.1 -0.1)">
       <defs>
        <path id="DejaVuSans-31" d="M 794 531 
L 1825 531 
L 1825 4091 
L 703 3866 
L 703 4441 
L 1819 4666 
L 2450 4666 
L 2450 531 
L 3481 531 
L 3481 0 
L 794 0 
L 794 531 
z
" transform="scale(0.015625)"/>
       </defs>
       <use xlink:href="#DejaVuSans-31"/>
       <use xlink:href="#DejaVuSans-2e" x="63.623047"/>
       <use xlink:href="#DejaVuSans-30" x="95.410156"/>
       <use xlink:href="#DejaVuSans-30" x="159.033203"/>
      </g>
     </g>
    </g>
   </g>
   <g id="patch_3">
    <path d="M 45 128.16 
L 45 17.28 
" style="fill: none; stroke: #000000; stroke-width: 0.8; stroke-linejoin: miter; stroke-linecap: square"/>
   </g>
   <g id="patch_4">
    <path d="M 324 128.16 
L 324 17.28 
" style="fill: none; stroke: #000000; stroke-width: 0.8; stroke-linejoin: miter; stroke-linecap: square"/>
   </g>
   <g id="patch_5">
    <path d="M 45 128.16 
L 324 128.16 
" style="fill: none; stroke: #000000; stroke-width: 0.8; stroke-linejoin: miter; stroke-linecap: square"/>
   </g>
   <g id="patch_6">
    <path d="M 45 17.28 
L 324 17.28 
" style="fill: none; stroke: #000000; stroke-width: 0.8; stroke-linejoin: miter; stroke-linecap: square"/>
   </g>
   <g id="PathCollection_1">
    <defs>
     <path id="C0_0_2cde6e883c" d="M 0 2.5 
C 0.663008 2.5 1.29895 2.236584 1.767767 1.767767 
C 2.236584 1.29895 2.5 0.663008 2.5 -0 
C 2.5 -0.663008 2.236584 -1.29895 1.767767 -1.767767 
C 1.29895 -2.236584 0.663008 -2.5 0 -2.5 
C -0.663008 -2.5 -1.29895 -2.236584 -1.767767 -1.767767 
C -2.236584 -1.29895 -2.5 -0.663008 -2.5 0 
C -2.5 0.663008 -2.236584 1.29895 -1.767767 1.767767 
C -1.29895 2.236584 -0.663008 2.5 0 2.5 
z
"/>
    </defs>
    <g clip-path="url(#p8bafb0e18f)">
     <use xlink:href="#C0_0_2cde6e883c" x="99.220011" y="121.083636" style="fill: #b22222"/>
    </g>
    <g clip-path="url(#p8bafb0e18f)">
     <use xlink:href="#C0_0_2cde6e883c" x="111.704476" y="111.92" style="fill: #b22222"/>
    </g>
    <g clip-path="url(#p8bafb0e18f)">
     <use xlink:href="#C0_0_2cde6e883c" x="114.75" y="123.12" style="fill: #b22222"/>
    </g>
    <g clip-path="url(#p8bafb0e18f)">
     <use xlink:href="#C0_0_2cde6e883c" x="130.279989" y="121.083636" style="fill: #b22222"/>
    </g>
    <g clip-path="url(#p8bafb0e18f)">
     <use xlink:href="#C0_0_2cde6e883c" x="119.889995" y="122.101818" style="fill: #b22222"/>
    </g>
    <g clip-path="url(#p8bafb0e18f)">
     <use xlink:href="#C0_0_2cde6e883c" x="109.5" y="123.12" style="fill: #b22222"/>
    </g>
    <g clip-path="url(#p8bafb0e18f)">
     <use xlink:href="#C0_0_2cde6e883c" x="104.360005" y="122.101818" style="fill: #b22222"/>
    </g>
    <g clip-path="url(#p8bafb0e18f)">
     <use xlink:href="#C0_0_2cde6e883c" x="125.139995" y="122.101818" style="fill: #b22222"/>
    </g>
    <g clip-path="url(#p8bafb0e18f)">
     <use xlink:href="#C0_0_2cde6e883c" x="93.970011" y="121.083636" style="fill: #b22222"/>
    </g>
    <g clip-path="url(#p8bafb0e18f)">
     <use xlink:href="#C0_0_2cde6e883c" x="135.529989" y="121.083636" style="fill: #b22222"/>
    </g>
    <g clip-path="url(#p8bafb0e18f)">
     <use xlink:href="#C0_0_2cde6e883c" x="114.75" y="115.992727" style="fill: #b22222"/>
    </g>
   </g>
   <g id="PathCollection_2">
    <defs>
     <path id="C1_0_2b229f375e" d="M 0 2.5 
C 0.663008 2.5 1.29895 2.236584 1.767767 1.767767 
C 2.236584 1.29895 2.5 0.663008 2.5 -0 
C 2.5 -0.663008 2.236584 -1.29895 1.767767 -1.767767 
C 1.29895 -2.236584 0.663008 -2.5 0 -2.5 
C -0.663008 -2.5 -1.29895 -2.236584 -1.767767 -1.767767 
C -2.236584 -1.29895 -2.5 -0.663008 -2.5 0 
C -2.5 0.663008 -2.236584 1.29895 -1.767767 1.767767 
C -1.29895 2.236584 -0.663008 2.5 0 2.5 
z
"/>
    </defs>
    <g clip-path="url(#p8bafb0e18f)">
     <use xlink:href="#C1_0_2b229f375e" x="249.110005" y="22.32" style="fill: #808080"/>
    </g>
    <g clip-path="url(#p8bafb0e18f)">
     <use xlink:href="#C1_0_2b229f375e" x="249.45514" y="34.538182" style="fill: #808080"/>
    </g>
    <g clip-path="url(#p8bafb0e18f)">
     <use xlink:href="#C1_0_2b229f375e" x="254.25" y="23.338182" style="fill: #808080"/>
    </g>
    <g clip-path="url(#p8bafb0e18f)">
     <use xlink:href="#C1_0_2b229f375e" x="254.25" y="36.574545" style="fill: #808080"/>
    </g>
    <g clip-path="url(#p8bafb0e18f)">
     <use xlink:href="#C1_0_2b229f375e" x="254.25" y="105.810909" style="fill: #808080"/>
    </g>
    <g clip-path="url(#p8bafb0e18f)">
     <use xlink:href="#C1_0_2b229f375e" x="247.360669" y="46.756364" style="fill: #808080"/>
    </g>
    <g clip-path="url(#p8bafb0e18f)">
     <use xlink:href="#C1_0_2b229f375e" x="254.25" y="53.883636" style="fill: #808080"/>
    </g>
    <g clip-path="url(#p8bafb0e18f)">
     <use xlink:href="#C1_0_2b229f375e" x="254.25" y="69.156364" style="fill: #808080"/>
    </g>
    <g clip-path="url(#p8bafb0e18f)">
     <use xlink:href="#C1_0_2b229f375e" x="258.406429" y="82.392727" style="fill: #808080"/>
    </g>
    <g clip-path="url(#p8bafb0e18f)">
     <use xlink:href="#C1_0_2b229f375e" x="254.25" y="85.447273" style="fill: #808080"/>
    </g>
    <g clip-path="url(#p8bafb0e18f)">
     <use xlink:href="#C1_0_2b229f375e" x="249.110005" y="52.865455" style="fill: #808080"/>
    </g>
    <g clip-path="url(#p8bafb0e18f)">
     <use xlink:href="#C1_0_2b229f375e" x="257.295524" y="49.810909" style="fill: #808080"/>
    </g>
    <g clip-path="url(#p8bafb0e18f)">
     <use xlink:href="#C1_0_2b229f375e" x="252.500664" y="47.774545" style="fill: #808080"/>
    </g>
   </g>
   <g id="text_8">
    <!-- GATA -->
    <g transform="translate(168.9075 11.28) scale(0.12 -0.12)">
     <defs>
      <path id="DejaVuSans-47" d="M 3809 666 
L 3809 1919 
L 2778 1919 
L 2778 2438 
L 4434 2438 
L 4434 434 
Q 4069 175 3628 42 
Q 3188 -91 2688 -91 
Q 1594 -91 976 548 
Q 359 1188 359 2328 
Q 359 3472 976 4111 
Q 1594 4750 2688 4750 
Q 3144 4750 3555 4637 
Q 3966 4525 4313 4306 
L 4313 3634 
Q 3963 3931 3569 4081 
Q 3175 4231 2741 4231 
Q 1884 4231 1454 3753 
Q 1025 3275 1025 2328 
Q 1025 1384 1454 906 
Q 1884 428 2741 428 
Q 3075 428 3337 486 
Q 3600 544 3809 666 
z
" transform="scale(0.015625)"/>
      <path id="DejaVuSans-41" d="M 2188 4044 
L 1331 1722 
L 3047 1722 
L 2188 4044 
z
M 1831 4666 
L 2547 4666 
L 4325 0 
L 3669 0 
L 3244 1197 
L 1141 1197 
L 716 0 
L 50 0 
L 1831 4666 
z
" transform="scale(0.015625)"/>
      <path id="DejaVuSans-54" d="M -19 4666 
L 3928 4666 
L 3928 4134 
L 2272 4134 
L 2272 0 
L 1638 0 
L 1638 4134 
L -19 4134 
L -19 4666 
z
" transform="scale(0.015625)"/>
     </defs>
     <use xlink:href="#DejaVuSans-47"/>
     <use xlink:href="#DejaVuSans-41" x="77.490234"/>
     <use xlink:href="#DejaVuSans-54" x="138.148438"/>
     <use xlink:href="#DejaVuSans-41" x="191.482422"/>
    </g>
   </g>
  </g>
 </g>
 <defs>
  <clipPath id="p8bafb0e18f">
   <rect x="45" y="17.28" width="279" height="110.88"/>
  </clipPath>
 </defs>
</svg>
