<?xml version="1.0" encoding="utf-8" standalone="no"?>
<!DOCTYPE svg PUBLIC "-//W3C//DTD SVG 1.1//EN"
  "http://www.w3.org/Graphics/SVG/1.1/DTD/svg11.dtd">
<svg xmlns:xlink="http://www.w3.org/1999/xlink" width="360pt" height="144pt" viewBox="0 0 360 144" xmlns="http://www.w3.org/2000/svg" version="1.1">
 <metadata>
  <rdf:RDF xmlns:dc="http://purl.org/dc/elements/1.1/" xmlns:cc="http://creativecommons.org/ns#" xmlns:rdf="http://www.w3.org/1999/02/22-rdf-syntax-ns#">
   <cc:Work>
    <dc:type rdf:resource="http://purl.org/dc/dcmitype/StillImage"/>
    <dc:date>2025-07-30T10:02:38.555867</dc:date>
    <dc:format>image/svg+xml</dc:format>
    <dc:creator>
     <cc:Agent>
      <dc:title>Matplotlib v3.9.2, https://matplotlib.org/</dc:title>
     </cc:Agent>
    </dc:creator>
   </cc:Work>
  </rdf:RDF>
 </metadata>
 <defs>
  <style type="text/css">*{stroke-linejoin: round; stroke-linecap: butt}</style>
 </defs>
 <g id="figure_1">
  <g id="patch_1">
   <path d="M 0 144 
L 360 144 
L 360 0 
L 0 0 
z
" style="fill: #ffffff"/>
  </g>
  <g id="axes_1">
   <g id="patch_2">
    <path d="M 45 128.16 
L 324 128.16 
L 324 17.28 
L 45 17.28 
z
" style="fill: #ffffff"/>
   </g>
   <g id="PolyCollection_1">
    <defs>
     <path id="mad4dd686ce" d="M 277.409481 -20.88 
L 231.090519 -20.88 
L 229.994353 -21.898182 
L 228.872563 -22.916364 
L 227.726536 -23.934545 
L 226.557924 -24.952727 
L 225.368666 -25.970909 
L 224.160994 -26.989091 
L 222.937447 -28.007273 
L 221.700877 -29.025455 
L 220.454447 -30.043636 
L 219.201627 -31.061818 
L 217.946188 -32.08 
L 216.692179 -33.098182 
L 215.443914 -34.116364 
L 214.205935 -35.134545 
L 212.982989 -36.152727 
L 211.779978 -37.170909 
L 210.601925 -38.189091 
L 209.453915 -39.207273 
L 208.341051 -40.225455 
L 207.268388 -41.243636 
L 206.240882 -42.261818 
L 205.263321 -43.28 
L 204.340269 -44.298182 
L 203.476001 -45.316364 
L 202.674441 -46.334545 
L 201.939108 -47.352727 
L 201.273057 -48.370909 
L 200.678831 -49.389091 
L 200.158414 -50.407273 
L 199.713193 -51.425455 
L 199.343926 -52.443636 
L 199.050714 -53.461818 
L 198.83299 -54.48 
L 198.689507 -55.498182 
L 198.618339 -56.516364 
L 198.616892 -57.534545 
L 198.681921 -58.552727 
L 198.809558 -59.570909 
L 198.995349 -60.589091 
L 199.234295 -61.607273 
L 199.520902 -62.625455 
L 199.849244 -63.643636 
L 200.213024 -64.661818 
L 200.605641 -65.68 
L 201.020269 -66.698182 
L 201.449931 -67.716364 
L 201.88758 -68.734545 
L 202.326178 -69.752727 
L 202.758784 -70.770909 
L 203.17863 -71.789091 
L 203.579205 -72.807273 
L 203.954331 -73.825455 
L 204.298241 -74.843636 
L 204.605647 -75.861818 
L 204.871806 -76.88 
L 205.092583 -77.898182 
L 205.264503 -78.916364 
L 205.384798 -79.934545 
L 205.451447 -80.952727 
L 205.463203 -81.970909 
L 205.419622 -82.989091 
L 205.321071 -84.007273 
L 205.168732 -85.025455 
L 204.964601 -86.043636 
L 204.711465 -87.061818 
L 204.412886 -88.08 
L 204.073162 -89.098182 
L 203.697284 -90.116364 
L 203.290887 -91.134545 
L 202.860185 -92.152727 
L 202.41191 -93.170909 
L 201.95323 -94.189091 
L 201.491675 -95.207273 
L 201.035045 -96.225455 
L 200.591325 -97.243636 
L 200.168586 -98.261818 
L 199.774896 -99.28 
L 199.418222 -100.298182 
L 199.106332 -101.316364 
L 198.846705 -102.334545 
L 198.646442 -103.352727 
L 198.512177 -104.370909 
L 198.45 -105.389091 
L 198.465383 -106.407273 
L 198.563117 -107.425455 
L 198.74725 -108.443636 
L 199.02105 -109.461818 
L 199.386957 -110.48 
L 199.84657 -111.498182 
L 200.400621 -112.516364 
L 201.048981 -113.534545 
L 201.790661 -114.552727 
L 202.623836 -115.570909 
L 203.54587 -116.589091 
L 204.55336 -117.607273 
L 205.642182 -118.625455 
L 206.807544 -119.643636 
L 208.04406 -120.661818 
L 209.345809 -121.68 
L 299.154191 -121.68 
L 299.154191 -121.68 
L 300.45594 -120.661818 
L 301.692456 -119.643636 
L 302.857818 -118.625455 
L 303.94664 -117.607273 
L 304.95413 -116.589091 
L 305.876164 -115.570909 
L 306.709339 -114.552727 
L 307.451019 -113.534545 
L 308.099379 -112.516364 
L 308.65343 -111.498182 
L 309.113043 -110.48 
L 309.47895 -109.461818 
L 309.75275 -108.443636 
L 309.936883 -107.425455 
L 310.034617 -106.407273 
L 310.05 -105.389091 
L 309.987823 -104.370909 
L 309.853558 -103.352727 
L 309.653295 -102.334545 
L 309.393668 -101.316364 
L 309.081778 -100.298182 
L 308.725104 -99.28 
L 308.331414 -98.261818 
L 307.908675 -97.243636 
L 307.464955 -96.225455 
L 307.008325 -95.207273 
L 306.54677 -94.189091 
L 306.08809 -93.170909 
L 305.639815 -92.152727 
L 305.209113 -91.134545 
L 304.802716 -90.116364 
L 304.426838 -89.098182 
L 304.087114 -88.08 
L 303.788535 -87.061818 
L 303.535399 -86.043636 
L 303.331268 -85.025455 
L 303.178929 -84.007273 
L 303.080378 -82.989091 
L 303.036797 -81.970909 
L 303.048553 -80.952727 
L 303.115202 -79.934545 
L 303.235497 -78.916364 
L 303.407417 -77.898182 
L 303.628194 -76.88 
L 303.894353 -75.861818 
L 304.201759 -74.843636 
L 304.545669 -73.825455 
L 304.920795 -72.807273 
L 305.32137 -71.789091 
L 305.741216 -70.770909 
L 306.173822 -69.752727 
L 306.61242 -68.734545 
L 307.050069 -67.716364 
L 307.479731 -66.698182 
L 307.894359 -65.68 
L 308.286976 -64.661818 
L 308.650756 -63.643636 
L 308.979098 -62.625455 
L 309.265705 -61.607273 
L 309.504651 -60.589091 
L 309.690442 -59.570909 
L 309.818079 -58.552727 
L 309.883108 -57.534545 
L 309.881661 -56.516364 
L 309.810493 -55.498182 
L 309.66701 -54.48 
L 309.449286 -53.461818 
L 309.156074 -52.443636 
L 308.786807 -51.425455 
L 308.341586 -50.407273 
L 307.821169 -49.389091 
L 307.226943 -48.370909 
L 306.560892 -47.352727 
L 305.825559 -46.334545 
L 305.023999 -45.316364 
L 304.159731 -44.298182 
L 303.236679 -43.28 
L 302.259118 -42.261818 
L 301.231612 -41.243636 
L 300.158949 -40.225455 
L 299.046085 -39.207273 
L 297.898075 -38.189091 
L 296.720022 -37.170909 
L 295.517011 -36.152727 
L 294.294065 -35.134545 
L 293.056086 -34.116364 
L 291.807821 -33.098182 
L 290.553812 -32.08 
L 289.298373 -31.061818 
L 288.045553 -30.043636 
L 286.799123 -29.025455 
L 285.562553 -28.007273 
L 284.339006 -26.989091 
L 283.131334 -25.970909 
L 281.942076 -24.952727 
L 280.773464 -23.934545 
L 279.627437 -22.916364 
L 278.505647 -21.898182 
L 277.409481 -20.88 
z
" style="stroke: #6e6e6e; stroke-width: 0.2"/>
    </defs>
    <g clip-path="url(#p57fd81fb80)">
     <use xlink:href="#mad4dd686ce" x="0" y="144" style="fill: #f5f5f5; stroke: #6e6e6e; stroke-width: 0.2"/>
    </g>
   </g>
   <g id="matplotlib.axis_1">
    <g id="xtick_1">
     <g id="line2d_1">
      <defs>
       <path id="m305aa50acf" d="M 0 0 
L 0 3.5 
" style="stroke: #000000; stroke-width: 0.8"/>
      </defs>
      <g>
       <use xlink:href="#m305aa50acf" x="114.75" y="128.16" style="stroke: #000000; stroke-width: 0.8"/>
      </g>
     </g>
     <g id="text_1">
      <!-- HD∆C -->
      <g transform="translate(100.303906 142.758438) scale(0.1 -0.1)">
       <defs>
        <path id="DejaVuSans-48" d="M 628 4666 
L 1259 4666 
L 1259 2753 
L 3553 2753 
L 3553 4666 
L 4184 4666 
L 4184 0 
L 3553 0 
L 3553 2222 
L 1259 2222 
L 1259 0 
L 628 0 
L 628 4666 
z
" transform="scale(0.015625)"/>
        <path id="DejaVuSans-44" d="M 1259 4147 
L 1259 519 
L 2022 519 
Q 2988 519 3436 956 
Q 3884 1394 3884 2338 
Q 3884 3275 3436 3711 
Q 2988 4147 2022 4147 
L 1259 4147 
z
M 628 4666 
L 1925 4666 
Q 3281 4666 3915 4102 
Q 4550 3538 4550 2338 
Q 4550 1131 3912 565 
Q 3275 0 1925 0 
L 628 0 
L 628 4666 
z
" transform="scale(0.015625)"/>
        <path id="DejaVuSans-2206" d="M 2138 3944 
L 831 556 
L 3444 556 
L 2138 3944 
z
M 1791 4603 
L 2491 4603 
L 4300 0 
L -19 0 
L 1791 4603 
z
" transform="scale(0.015625)"/>
        <path id="DejaVuSans-43" d="M 4122 4306 
L 4122 3641 
Q 3803 3938 3442 4084 
Q 3081 4231 2675 4231 
Q 1875 4231 1450 3742 
Q 1025 3253 1025 2328 
Q 1025 1406 1450 917 
Q 1875 428 2675 428 
Q 3081 428 3442 575 
Q 3803 722 4122 1019 
L 4122 359 
Q 3791 134 3420 21 
Q 3050 -91 2638 -91 
Q 1578 -91 968 557 
Q 359 1206 359 2328 
Q 359 3453 968 4101 
Q 1578 4750 2638 4750 
Q 3056 4750 3426 4639 
Q 3797 4528 4122 4306 
z
" transform="scale(0.015625)"/>
       </defs>
       <use xlink:href="#DejaVuSans-48"/>
       <use xlink:href="#DejaVuSans-44" x="75.195312"/>
       <use xlink:href="#DejaVuSans-2206" x="152.197266"/>
       <use xlink:href="#DejaVuSans-43" x="219.091797"/>
      </g>
     </g>
    </g>
    <g id="xtick_2">
     <g id="line2d_2">
      <g>
       <use xlink:href="#m305aa50acf" x="254.25" y="128.16" style="stroke: #000000; stroke-width: 0.8"/>
      </g>
     </g>
     <g id="text_2">
      <!-- None -->
      <g transform="translate(241.204688 142.758438) scale(0.1 -0.1)">
       <defs>
        <path id="DejaVuSans-4e" d="M 628 4666 
L 1478 4666 
L 3547 763 
L 3547 4666 
L 4159 4666 
L 4159 0 
L 3309 0 
L 1241 3903 
L 1241 0 
L 628 0 
L 628 4666 
z
" transform="scale(0.015625)"/>
        <path id="DejaVuSans-6f" d="M 1959 3097 
Q 1497 3097 1228 2736 
Q 959 2375 959 1747 
Q 959 1119 1226 758 
Q 1494 397 1959 397 
Q 2419 397 2687 759 
Q 2956 1122 2956 1747 
Q 2956 2369 2687 2733 
Q 2419 3097 1959 3097 
z
M 1959 3584 
Q 2709 3584 3137 3096 
Q 3566 2609 3566 1747 
Q 3566 888 3137 398 
Q 2709 -91 1959 -91 
Q 1206 -91 779 398 
Q 353 888 353 1747 
Q 353 2609 779 3096 
Q 1206 3584 1959 3584 
z
" transform="scale(0.015625)"/>
        <path id="DejaVuSans-6e" d="M 3513 2113 
L 3513 0 
L 2938 0 
L 2938 2094 
Q 2938 2591 2744 2837 
Q 2550 3084 2163 3084 
Q 1697 3084 1428 2787 
Q 1159 2491 1159 1978 
L 1159 0 
L 581 0 
L 581 3500 
L 1159 3500 
L 1159 2956 
Q 1366 3272 1645 3428 
Q 1925 3584 2291 3584 
Q 2894 3584 3203 3211 
Q 3513 2838 3513 2113 
z
" transform="scale(0.015625)"/>
        <path id="DejaVuSans-65" d="M 3597 1894 
L 3597 1613 
L 953 1613 
Q 991 1019 1311 708 
Q 1631 397 2203 397 
Q 2534 397 2845 478 
Q 3156 559 3463 722 
L 3463 178 
Q 3153 47 2828 -22 
Q 2503 -91 2169 -91 
Q 1331 -91 842 396 
Q 353 884 353 1716 
Q 353 2575 817 3079 
Q 1281 3584 2069 3584 
Q 2775 3584 3186 3129 
Q 3597 2675 3597 1894 
z
M 3022 2063 
Q 3016 2534 2758 2815 
Q 2500 3097 2075 3097 
Q 1594 3097 1305 2825 
Q 1016 2553 972 2059 
L 3022 2063 
z
" transform="scale(0.015625)"/>
       </defs>
       <use xlink:href="#DejaVuSans-4e"/>
       <use xlink:href="#DejaVuSans-6f" x="74.804688"/>
       <use xlink:href="#DejaVuSans-6e" x="135.986328"/>
       <use xlink:href="#DejaVuSans-65" x="199.365234"/>
      </g>
     </g>
    </g>
   </g>
   <g id="matplotlib.axis_2">
    <g id="ytick_1">
     <g id="line2d_3">
      <defs>
       <path id="m60452f3269" d="M 0 0 
L -3.5 0 
" style="stroke: #000000; stroke-width: 0.8"/>
      </defs>
      <g>
       <use xlink:href="#m60452f3269" x="45" y="111.261176" style="stroke: #000000; stroke-width: 0.8"/>
      </g>
     </g>
     <g id="text_3">
      <!-- 0.85 -->
      <g transform="translate(15.734375 115.060395) scale(0.1 -0.1)">
       <defs>
        <path id="DejaVuSans-30" d="M 2034 4250 
Q 1547 4250 1301 3770 
Q 1056 3291 1056 2328 
Q 1056 1369 1301 889 
Q 1547 409 2034 409 
Q 2525 409 2770 889 
Q 3016 1369 3016 2328 
Q 3016 3291 2770 3770 
Q 2525 4250 2034 4250 
z
M 2034 4750 
Q 2819 4750 3233 4129 
Q 3647 3509 3647 2328 
Q 3647 1150 3233 529 
Q 2819 -91 2034 -91 
Q 1250 -91 836 529 
Q 422 1150 422 2328 
Q 422 3509 836 4129 
Q 1250 4750 2034 4750 
z
" transform="scale(0.015625)"/>
        <path id="DejaVuSans-2e" d="M 684 794 
L 1344 794 
L 1344 0 
L 684 0 
L 684 794 
z
" transform="scale(0.015625)"/>
        <path id="DejaVuSans-38" d="M 2034 2216 
Q 1584 2216 1326 1975 
Q 1069 1734 1069 1313 
Q 1069 891 1326 650 
Q 1584 409 2034 409 
Q 2484 409 2743 651 
Q 3003 894 3003 1313 
Q 3003 1734 2745 1975 
Q 2488 2216 2034 2216 
z
M 1403 2484 
Q 997 2584 770 2862 
Q 544 3141 544 3541 
Q 544 4100 942 4425 
Q 1341 4750 2034 4750 
Q 2731 4750 3128 4425 
Q 3525 4100 3525 3541 
Q 3525 3141 3298 2862 
Q 3072 2584 2669 2484 
Q 3125 2378 3379 2068 
Q 3634 1759 3634 1313 
Q 3634 634 3220 271 
Q 2806 -91 2034 -91 
Q 1263 -91 848 271 
Q 434 634 434 1313 
Q 434 1759 690 2068 
Q 947 2378 1403 2484 
z
M 1172 3481 
Q 1172 3119 1398 2916 
Q 1625 2713 2034 2713 
Q 2441 2713 2670 2916 
Q 2900 3119 2900 3481 
Q 2900 3844 2670 4047 
Q 2441 4250 2034 4250 
Q 1625 4250 1398 4047 
Q 1172 3844 1172 3481 
z
" transform="scale(0.015625)"/>
        <path id="DejaVuSans-35" d="M 691 4666 
L 3169 4666 
L 3169 4134 
L 1269 4134 
L 1269 2991 
Q 1406 3038 1543 3061 
Q 1681 3084 1819 3084 
Q 2600 3084 3056 2656 
Q 3513 2228 3513 1497 
Q 3513 744 3044 326 
Q 2575 -91 1722 -91 
Q 1428 -91 1123 -41 
Q 819 9 494 109 
L 494 744 
Q 775 591 1075 516 
Q 1375 441 1709 441 
Q 2250 441 2565 725 
Q 2881 1009 2881 1497 
Q 2881 1984 2565 2268 
Q 2250 2553 1709 2553 
Q 1456 2553 1204 2497 
Q 953 2441 691 2322 
L 691 4666 
z
" transform="scale(0.015625)"/>
       </defs>
       <use xlink:href="#DejaVuSans-30"/>
       <use xlink:href="#DejaVuSans-2e" x="63.623047"/>
       <use xlink:href="#DejaVuSans-38" x="95.410156"/>
       <use xlink:href="#DejaVuSans-35" x="159.033203"/>
      </g>
     </g>
    </g>
    <g id="ytick_2">
     <g id="line2d_4">
      <g>
       <use xlink:href="#m60452f3269" x="45" y="81.614118" style="stroke: #000000; stroke-width: 0.8"/>
      </g>
     </g>
     <g id="text_4">
      <!-- 0.90 -->
      <g transform="translate(15.734375 85.413336) scale(0.1 -0.1)">
       <defs>
        <path id="DejaVuSans-39" d="M 703 97 
L 703 672 
Q 941 559 1184 500 
Q 1428 441 1663 441 
Q 2288 441 2617 861 
Q 2947 1281 2994 2138 
Q 2813 1869 2534 1725 
Q 2256 1581 1919 1581 
Q 1219 1581 811 2004 
Q 403 2428 403 3163 
Q 403 3881 828 4315 
Q 1253 4750 1959 4750 
Q 2769 4750 3195 4129 
Q 3622 3509 3622 2328 
Q 3622 1225 3098 567 
Q 2575 -91 1691 -91 
Q 1453 -91 1209 -44 
Q 966 3 703 97 
z
M 1959 2075 
Q 2384 2075 2632 2365 
Q 2881 2656 2881 3163 
Q 2881 3666 2632 3958 
Q 2384 4250 1959 4250 
Q 1534 4250 1286 3958 
Q 1038 3666 1038 3163 
Q 1038 2656 1286 2365 
Q 1534 2075 1959 2075 
z
" transform="scale(0.015625)"/>
       </defs>
       <use xlink:href="#DejaVuSans-30"/>
       <use xlink:href="#DejaVuSans-2e" x="63.623047"/>
       <use xlink:href="#DejaVuSans-39" x="95.410156"/>
       <use xlink:href="#DejaVuSans-30" x="159.033203"/>
      </g>
     </g>
    </g>
    <g id="ytick_3">
     <g id="line2d_5">
      <g>
       <use xlink:href="#m60452f3269" x="45" y="51.967059" style="stroke: #000000; stroke-width: 0.8"/>
      </g>
     </g>
     <g id="text_5">
      <!-- 0.95 -->
      <g transform="translate(15.734375 55.766278) scale(0.1 -0.1)">
       <use xlink:href="#DejaVuSans-30"/>
       <use xlink:href="#DejaVuSans-2e" x="63.623047"/>
       <use xlink:href="#DejaVuSans-39" x="95.410156"/>
       <use xlink:href="#DejaVuSans-35" x="159.033203"/>
      </g>
     </g>
    </g>
    <g id="ytick_4">
     <g id="line2d_6">
      <g>
       <use xlink:href="#m60452f3269" x="45" y="22.32" style="stroke: #000000; stroke-width: 0.8"/>
      </g>
     </g>
     <g id="text_6">
      <!-- 1.00 -->
      <g transform="translate(15.734375 26.119219) scale(0.1 -0.1)">
       <defs>
        <path id="DejaVuSans-31" d="M 794 531 
L 1825 531 
L 1825 4091 
L 703 3866 
L 703 4441 
L 1819 4666 
L 2450 4666 
L 2450 531 
L 3481 531 
L 3481 0 
L 794 0 
L 794 531 
z
" transform="scale(0.015625)"/>
       </defs>
       <use xlink:href="#DejaVuSans-31"/>
       <use xlink:href="#DejaVuSans-2e" x="63.623047"/>
       <use xlink:href="#DejaVuSans-30" x="95.410156"/>
       <use xlink:href="#DejaVuSans-30" x="159.033203"/>
      </g>
     </g>
    </g>
   </g>
   <g id="line2d_7">
    <path d="M 58.95 123.12 
L 170.55 123.12 
" clip-path="url(#p57fd81fb80)" style="fill: none; stroke: #6e6e6e; stroke-width: 0.2; stroke-linecap: square"/>
   </g>
   <g id="patch_3">
    <path d="M 45 128.16 
L 45 17.28 
" style="fill: none; stroke: #000000; stroke-width: 0.8; stroke-linejoin: miter; stroke-linecap: square"/>
   </g>
   <g id="patch_4">
    <path d="M 324 128.16 
L 324 17.28 
" style="fill: none; stroke: #000000; stroke-width: 0.8; stroke-linejoin: miter; stroke-linecap: square"/>
   </g>
   <g id="patch_5">
    <path d="M 45 128.16 
L 324 128.16 
" style="fill: none; stroke: #000000; stroke-width: 0.8; stroke-linejoin: miter; stroke-linecap: square"/>
   </g>
   <g id="patch_6">
    <path d="M 45 17.28 
L 324 17.28 
" style="fill: none; stroke: #000000; stroke-width: 0.8; stroke-linejoin: miter; stroke-linecap: square"/>
   </g>
   <g id="PathCollection_1">
    <defs>
     <path id="C0_0_2b296a448c" d="M 0 2.5 
C 0.663008 2.5 1.29895 2.236584 1.767767 1.767767 
C 2.236584 1.29895 2.5 0.663008 2.5 -0 
C 2.5 -0.663008 2.236584 -1.29895 1.767767 -1.767767 
C 1.29895 -2.236584 0.663008 -2.5 0 -2.5 
C -0.663008 -2.5 -1.29895 -2.236584 -1.767767 -1.767767 
C -2.236584 -1.29895 -2.5 -0.663008 -2.5 0 
C -2.5 0.663008 -2.236584 1.29895 -1.767767 1.767767 
C -1.29895 2.236584 -0.663008 2.5 0 2.5 
z
"/>
    </defs>
    <g clip-path="url(#p57fd81fb80)">
     <use xlink:href="#C0_0_2b296a448c" x="114.75" y="123.12" style="fill: #b22222"/>
    </g>
    <g clip-path="url(#p57fd81fb80)">
     <use xlink:href="#C0_0_2b296a448c" x="109.5" y="123.12" style="fill: #b22222"/>
    </g>
    <g clip-path="url(#p57fd81fb80)">
     <use xlink:href="#C0_0_2b296a448c" x="120" y="123.12" style="fill: #b22222"/>
    </g>
    <g clip-path="url(#p57fd81fb80)">
     <use xlink:href="#C0_0_2b296a448c" x="104.25" y="123.12" style="fill: #b22222"/>
    </g>
    <g clip-path="url(#p57fd81fb80)">
     <use xlink:href="#C0_0_2b296a448c" x="125.25" y="123.12" style="fill: #b22222"/>
    </g>
    <g clip-path="url(#p57fd81fb80)">
     <use xlink:href="#C0_0_2b296a448c" x="99" y="123.12" style="fill: #b22222"/>
    </g>
    <g clip-path="url(#p57fd81fb80)">
     <use xlink:href="#C0_0_2b296a448c" x="130.5" y="123.12" style="fill: #b22222"/>
    </g>
    <g clip-path="url(#p57fd81fb80)">
     <use xlink:href="#C0_0_2b296a448c" x="93.75" y="123.12" style="fill: #b22222"/>
    </g>
    <g clip-path="url(#p57fd81fb80)">
     <use xlink:href="#C0_0_2b296a448c" x="135.75" y="123.12" style="fill: #b22222"/>
    </g>
    <g clip-path="url(#p57fd81fb80)">
     <use xlink:href="#C0_0_2b296a448c" x="88.5" y="123.12" style="fill: #b22222"/>
    </g>
    <g clip-path="url(#p57fd81fb80)">
     <use xlink:href="#C0_0_2b296a448c" x="141" y="123.12" style="fill: #b22222"/>
    </g>
   </g>
   <g id="PathCollection_2">
    <defs>
     <path id="C1_0_aeaee4927b" d="M 0 2.5 
C 0.663008 2.5 1.29895 2.236584 1.767767 1.767767 
C 2.236584 1.29895 2.5 0.663008 2.5 -0 
C 2.5 -0.663008 2.236584 -1.29895 1.767767 -1.767767 
C 1.29895 -2.236584 0.663008 -2.5 0 -2.5 
C -0.663008 -2.5 -1.29895 -2.236584 -1.767767 -1.767767 
C -2.236584 -1.29895 -2.5 -0.663008 -2.5 0 
C -2.5 0.663008 -2.236584 1.29895 -1.767767 1.767767 
C -1.29895 2.236584 -0.663008 2.5 0 2.5 
z
"/>
    </defs>
    <g clip-path="url(#p57fd81fb80)">
     <use xlink:href="#C1_0_aeaee4927b" x="254.25" y="34.178824" style="fill: #808080"/>
    </g>
    <g clip-path="url(#p57fd81fb80)">
     <use xlink:href="#C1_0_aeaee4927b" x="249" y="34.178824" style="fill: #808080"/>
    </g>
    <g clip-path="url(#p57fd81fb80)">
     <use xlink:href="#C1_0_aeaee4927b" x="254.25" y="22.32" style="fill: #808080"/>
    </g>
    <g clip-path="url(#p57fd81fb80)">
     <use xlink:href="#C1_0_aeaee4927b" x="259.5" y="34.178824" style="fill: #808080"/>
    </g>
    <g clip-path="url(#p57fd81fb80)">
     <use xlink:href="#C1_0_aeaee4927b" x="254.25" y="99.402353" style="fill: #808080"/>
    </g>
    <g clip-path="url(#p57fd81fb80)">
     <use xlink:href="#C1_0_aeaee4927b" x="254.25" y="51.967059" style="fill: #808080"/>
    </g>
    <g clip-path="url(#p57fd81fb80)">
     <use xlink:href="#C1_0_aeaee4927b" x="254.25" y="87.543529" style="fill: #808080"/>
    </g>
    <g clip-path="url(#p57fd81fb80)">
     <use xlink:href="#C1_0_aeaee4927b" x="254.25" y="93.472941" style="fill: #808080"/>
    </g>
    <g clip-path="url(#p57fd81fb80)">
     <use xlink:href="#C1_0_aeaee4927b" x="249" y="93.472941" style="fill: #808080"/>
    </g>
    <g clip-path="url(#p57fd81fb80)">
     <use xlink:href="#C1_0_aeaee4927b" x="254.25" y="123.12" style="fill: #808080"/>
    </g>
    <g clip-path="url(#p57fd81fb80)">
     <use xlink:href="#C1_0_aeaee4927b" x="254.25" y="81.614118" style="fill: #808080"/>
    </g>
    <g clip-path="url(#p57fd81fb80)">
     <use xlink:href="#C1_0_aeaee4927b" x="254.25" y="69.755294" style="fill: #808080"/>
    </g>
    <g clip-path="url(#p57fd81fb80)">
     <use xlink:href="#C1_0_aeaee4927b" x="243.75" y="34.178824" style="fill: #808080"/>
    </g>
   </g>
   <g id="text_7">
    <!-- GATA -->
    <g transform="translate(168.9075 11.28) scale(0.12 -0.12)">
     <defs>
      <path id="DejaVuSans-47" d="M 3809 666 
L 3809 1919 
L 2778 1919 
L 2778 2438 
L 4434 2438 
L 4434 434 
Q 4069 175 3628 42 
Q 3188 -91 2688 -91 
Q 1594 -91 976 548 
Q 359 1188 359 2328 
Q 359 3472 976 4111 
Q 1594 4750 2688 4750 
Q 3144 4750 3555 4637 
Q 3966 4525 4313 4306 
L 4313 3634 
Q 3963 3931 3569 4081 
Q 3175 4231 2741 4231 
Q 1884 4231 1454 3753 
Q 1025 3275 1025 2328 
Q 1025 1384 1454 906 
Q 1884 428 2741 428 
Q 3075 428 3337 486 
Q 3600 544 3809 666 
z
" transform="scale(0.015625)"/>
      <path id="DejaVuSans-41" d="M 2188 4044 
L 1331 1722 
L 3047 1722 
L 2188 4044 
z
M 1831 4666 
L 2547 4666 
L 4325 0 
L 3669 0 
L 3244 1197 
L 1141 1197 
L 716 0 
L 50 0 
L 1831 4666 
z
" transform="scale(0.015625)"/>
      <path id="DejaVuSans-54" d="M -19 4666 
L 3928 4666 
L 3928 4134 
L 2272 4134 
L 2272 0 
L 1638 0 
L 1638 4134 
L -19 4134 
L -19 4666 
z
" transform="scale(0.015625)"/>
     </defs>
     <use xlink:href="#DejaVuSans-47"/>
     <use xlink:href="#DejaVuSans-41" x="77.490234"/>
     <use xlink:href="#DejaVuSans-54" x="138.148438"/>
     <use xlink:href="#DejaVuSans-41" x="191.482422"/>
    </g>
   </g>
  </g>
 </g>
 <defs>
  <clipPath id="p57fd81fb80">
   <rect x="45" y="17.28" width="279" height="110.88"/>
  </clipPath>
 </defs>
</svg>
