<?xml version="1.0" encoding="utf-8" standalone="no"?>
<!DOCTYPE svg PUBLIC "-//W3C//DTD SVG 1.1//EN"
  "http://www.w3.org/Graphics/SVG/1.1/DTD/svg11.dtd">
<svg xmlns:xlink="http://www.w3.org/1999/xlink" width="360pt" height="144pt" viewBox="0 0 360 144" xmlns="http://www.w3.org/2000/svg" version="1.1">
 <metadata>
  <rdf:RDF xmlns:dc="http://purl.org/dc/elements/1.1/" xmlns:cc="http://creativecommons.org/ns#" xmlns:rdf="http://www.w3.org/1999/02/22-rdf-syntax-ns#">
   <cc:Work>
    <dc:type rdf:resource="http://purl.org/dc/dcmitype/StillImage"/>
    <dc:date>2025-07-30T10:02:41.768281</dc:date>
    <dc:format>image/svg+xml</dc:format>
    <dc:creator>
     <cc:Agent>
      <dc:title>Matplotlib v3.9.2, https://matplotlib.org/</dc:title>
     </cc:Agent>
    </dc:creator>
   </cc:Work>
  </rdf:RDF>
 </metadata>
 <defs>
  <style type="text/css">*{stroke-linejoin: round; stroke-linecap: butt}</style>
 </defs>
 <g id="figure_1">
  <g id="patch_1">
   <path d="M 0 144 
L 360 144 
L 360 0 
L 0 0 
z
" style="fill: #ffffff"/>
  </g>
  <g id="axes_1">
   <g id="patch_2">
    <path d="M 45 128.16 
L 324 128.16 
L 324 17.28 
L 45 17.28 
z
" style="fill: #ffffff"/>
   </g>
   <g id="PolyCollection_1">
    <defs>
     <path id="m1a544e7876" d="M 162.686851 -20.88 
L 66.813149 -20.88 
L 65.999622 -21.167403 
L 65.244361 -21.454805 
L 64.548803 -21.742208 
L 63.913952 -22.029611 
L 63.340371 -22.317014 
L 62.828169 -22.604416 
L 62.377005 -22.891819 
L 61.986087 -23.179222 
L 61.654183 -23.466625 
L 61.379631 -23.754027 
L 61.16036 -24.04143 
L 60.993911 -24.328833 
L 60.877462 -24.616236 
L 60.807861 -24.903638 
L 60.781663 -25.191041 
L 60.795159 -25.478444 
L 60.844428 -25.765847 
L 60.925369 -26.053249 
L 61.033753 -26.340652 
L 61.165266 -26.628055 
L 61.315552 -26.915458 
L 61.480263 -27.20286 
L 61.655101 -27.490263 
L 61.835867 -27.777666 
L 62.018494 -28.065069 
L 62.199098 -28.352471 
L 62.374005 -28.639874 
L 62.539792 -28.927277 
L 62.693313 -29.214679 
L 62.831727 -29.502082 
L 62.952523 -29.789485 
L 63.053531 -30.076888 
L 63.132942 -30.36429 
L 63.189315 -30.651693 
L 63.221582 -30.939096 
L 63.229044 -31.226499 
L 63.211375 -31.513901 
L 63.168607 -31.801304 
L 63.101121 -32.088707 
L 63.009632 -32.37611 
L 62.895169 -32.663512 
L 62.759056 -32.950915 
L 62.602886 -33.238318 
L 62.428497 -33.525721 
L 62.237945 -33.813123 
L 62.033477 -34.100526 
L 61.817497 -34.387929 
L 61.592545 -34.675332 
L 61.361262 -34.962734 
L 61.126364 -35.250137 
L 60.890615 -35.53754 
L 60.656799 -35.824943 
L 60.427696 -36.112345 
L 60.206059 -36.399748 
L 59.994595 -36.687151 
L 59.795939 -36.974553 
L 59.612643 -37.261956 
L 59.447159 -37.549359 
L 59.301823 -37.836762 
L 59.178848 -38.124164 
L 59.080313 -38.411567 
L 59.008157 -38.69897 
L 58.964172 -38.986373 
L 58.95 -39.273775 
L 58.967134 -39.561178 
L 59.016913 -39.848581 
L 59.100527 -40.135984 
L 59.219013 -40.423386 
L 59.373264 -40.710789 
L 59.564025 -40.998192 
L 59.791904 -41.285595 
L 60.05737 -41.572997 
L 60.360758 -41.8604 
L 60.702276 -42.147803 
L 61.082005 -42.435206 
L 61.499906 -42.722608 
L 61.955821 -43.010011 
L 62.449478 -43.297414 
L 62.980493 -43.584817 
L 63.548376 -43.872219 
L 64.152527 -44.159622 
L 64.792244 -44.447025 
L 65.466725 -44.734427 
L 66.175064 -45.02183 
L 66.916261 -45.309233 
L 67.689218 -45.596636 
L 68.492744 -45.884038 
L 69.325556 -46.171441 
L 70.186283 -46.458844 
L 71.073466 -46.746247 
L 71.985563 -47.033649 
L 72.920954 -47.321052 
L 73.877943 -47.608455 
L 74.854763 -47.895858 
L 75.849582 -48.18326 
L 76.860509 -48.470663 
L 77.8856 -48.758066 
L 78.922866 -49.045469 
L 79.970279 -49.332871 
L 149.529721 -49.332871 
L 149.529721 -49.332871 
L 150.577134 -49.045469 
L 151.6144 -48.758066 
L 152.639491 -48.470663 
L 153.650418 -48.18326 
L 154.645237 -47.895858 
L 155.622057 -47.608455 
L 156.579046 -47.321052 
L 157.514437 -47.033649 
L 158.426534 -46.746247 
L 159.313717 -46.458844 
L 160.174444 -46.171441 
L 161.007256 -45.884038 
L 161.810782 -45.596636 
L 162.583739 -45.309233 
L 163.324936 -45.02183 
L 164.033275 -44.734427 
L 164.707756 -44.447025 
L 165.347473 -44.159622 
L 165.951624 -43.872219 
L 166.519507 -43.584817 
L 167.050522 -43.297414 
L 167.544179 -43.010011 
L 168.000094 -42.722608 
L 168.417995 -42.435206 
L 168.797724 -42.147803 
L 169.139242 -41.8604 
L 169.44263 -41.572997 
L 169.708096 -41.285595 
L 169.935975 -40.998192 
L 170.126736 -40.710789 
L 170.280987 -40.423386 
L 170.399473 -40.135984 
L 170.483087 -39.848581 
L 170.532866 -39.561178 
L 170.55 -39.273775 
L 170.535828 -38.986373 
L 170.491843 -38.69897 
L 170.419687 -38.411567 
L 170.321152 -38.124164 
L 170.198177 -37.836762 
L 170.052841 -37.549359 
L 169.887357 -37.261956 
L 169.704061 -36.974553 
L 169.505405 -36.687151 
L 169.293941 -36.399748 
L 169.072304 -36.112345 
L 168.843201 -35.824943 
L 168.609385 -35.53754 
L 168.373636 -35.250137 
L 168.138738 -34.962734 
L 167.907455 -34.675332 
L 167.682503 -34.387929 
L 167.466523 -34.100526 
L 167.262055 -33.813123 
L 167.071503 -33.525721 
L 166.897114 -33.238318 
L 166.740944 -32.950915 
L 166.604831 -32.663512 
L 166.490368 -32.37611 
L 166.398879 -32.088707 
L 166.331393 -31.801304 
L 166.288625 -31.513901 
L 166.270956 -31.226499 
L 166.278418 -30.939096 
L 166.310685 -30.651693 
L 166.367058 -30.36429 
L 166.446469 -30.076888 
L 166.547477 -29.789485 
L 166.668273 -29.502082 
L 166.806687 -29.214679 
L 166.960208 -28.927277 
L 167.125995 -28.639874 
L 167.300902 -28.352471 
L 167.481506 -28.065069 
L 167.664133 -27.777666 
L 167.844899 -27.490263 
L 168.019737 -27.20286 
L 168.184448 -26.915458 
L 168.334734 -26.628055 
L 168.466247 -26.340652 
L 168.574631 -26.053249 
L 168.655572 -25.765847 
L 168.704841 -25.478444 
L 168.718337 -25.191041 
L 168.692139 -24.903638 
L 168.622538 -24.616236 
L 168.506089 -24.328833 
L 168.33964 -24.04143 
L 168.120369 -23.754027 
L 167.845817 -23.466625 
L 167.513913 -23.179222 
L 167.122995 -22.891819 
L 166.671831 -22.604416 
L 166.159629 -22.317014 
L 165.586048 -22.029611 
L 164.951197 -21.742208 
L 164.255639 -21.454805 
L 163.500378 -21.167403 
L 162.686851 -20.88 
z
" style="stroke: #6e6e6e; stroke-width: 0.2"/>
    </defs>
    <g clip-path="url(#pa190d14847)">
     <use xlink:href="#m1a544e7876" x="0" y="144" style="fill: #e28e8e; stroke: #6e6e6e; stroke-width: 0.2"/>
    </g>
   </g>
   <g id="PolyCollection_2">
    <defs>
     <path id="me07c178440" d="M 280.619308 -35.023243 
L 227.880692 -35.023243 
L 226.877327 -35.898564 
L 225.876742 -36.773885 
L 224.880137 -37.649206 
L 223.888545 -38.524526 
L 222.902839 -39.399847 
L 221.923737 -40.275168 
L 220.951813 -41.150489 
L 219.987515 -42.025809 
L 219.031186 -42.90113 
L 218.083084 -43.776451 
L 217.143418 -44.651772 
L 216.21237 -45.527093 
L 215.29013 -46.402413 
L 214.376932 -47.277734 
L 213.473084 -48.153055 
L 212.579002 -49.028376 
L 211.695243 -49.903696 
L 210.822531 -50.779017 
L 209.961786 -51.654338 
L 209.114143 -52.529659 
L 208.280971 -53.40498 
L 207.463881 -54.2803 
L 206.664737 -55.155621 
L 205.885646 -56.030942 
L 205.12896 -56.906263 
L 204.397253 -57.781583 
L 203.693302 -58.656904 
L 203.020061 -59.532225 
L 202.380621 -60.407546 
L 201.778172 -61.282867 
L 201.215959 -62.158187 
L 200.697225 -63.033508 
L 200.225165 -63.908829 
L 199.802864 -64.78415 
L 199.433241 -65.65947 
L 199.11899 -66.534791 
L 198.862525 -67.410112 
L 198.665924 -68.285433 
L 198.530877 -69.160754 
L 198.458641 -70.036074 
L 198.45 -70.911395 
L 198.505227 -71.786716 
L 198.624061 -72.662037 
L 198.805692 -73.537357 
L 199.048744 -74.412678 
L 199.351286 -75.287999 
L 199.710835 -76.16332 
L 200.12438 -77.03864 
L 200.588413 -77.913961 
L 201.098966 -78.789282 
L 201.651661 -79.664603 
L 202.241767 -80.539924 
L 202.864263 -81.415244 
L 203.513906 -82.290565 
L 204.185307 -83.165886 
L 204.87301 -84.041207 
L 205.57157 -84.916527 
L 206.275635 -85.791848 
L 206.980026 -86.667169 
L 207.679811 -87.54249 
L 208.370386 -88.417811 
L 209.047533 -89.293131 
L 209.707493 -90.168452 
L 210.347009 -91.043773 
L 210.963382 -91.919094 
L 211.554499 -92.794414 
L 212.118859 -93.669735 
L 212.655595 -94.545056 
L 213.164468 -95.420377 
L 213.645868 -96.295698 
L 214.10079 -97.171018 
L 214.530811 -98.046339 
L 214.938049 -98.92166 
L 215.325116 -99.796981 
L 215.695064 -100.672301 
L 216.051323 -101.547622 
L 216.397634 -102.422943 
L 216.737976 -103.298264 
L 217.076491 -104.173585 
L 217.41741 -105.048905 
L 217.764975 -105.924226 
L 218.123362 -106.799547 
L 218.496611 -107.674868 
L 218.888559 -108.550188 
L 219.302769 -109.425509 
L 219.742482 -110.30083 
L 220.210559 -111.176151 
L 220.70944 -112.051471 
L 221.241111 -112.926792 
L 221.807074 -113.802113 
L 222.408334 -114.677434 
L 223.045384 -115.552755 
L 223.718212 -116.428075 
L 224.426303 -117.303396 
L 225.168656 -118.178717 
L 225.943812 -119.054038 
L 226.749875 -119.929358 
L 227.584558 -120.804679 
L 228.445213 -121.68 
L 280.054787 -121.68 
L 280.054787 -121.68 
L 280.915442 -120.804679 
L 281.750125 -119.929358 
L 282.556188 -119.054038 
L 283.331344 -118.178717 
L 284.073697 -117.303396 
L 284.781788 -116.428075 
L 285.454616 -115.552755 
L 286.091666 -114.677434 
L 286.692926 -113.802113 
L 287.258889 -112.926792 
L 287.79056 -112.051471 
L 288.289441 -111.176151 
L 288.757518 -110.30083 
L 289.197231 -109.425509 
L 289.611441 -108.550188 
L 290.003389 -107.674868 
L 290.376638 -106.799547 
L 290.735025 -105.924226 
L 291.08259 -105.048905 
L 291.423509 -104.173585 
L 291.762024 -103.298264 
L 292.102366 -102.422943 
L 292.448677 -101.547622 
L 292.804936 -100.672301 
L 293.174884 -99.796981 
L 293.561951 -98.92166 
L 293.969189 -98.046339 
L 294.39921 -97.171018 
L 294.854132 -96.295698 
L 295.335532 -95.420377 
L 295.844405 -94.545056 
L 296.381141 -93.669735 
L 296.945501 -92.794414 
L 297.536618 -91.919094 
L 298.152991 -91.043773 
L 298.792507 -90.168452 
L 299.452467 -89.293131 
L 300.129614 -88.417811 
L 300.820189 -87.54249 
L 301.519974 -86.667169 
L 302.224365 -85.791848 
L 302.92843 -84.916527 
L 303.62699 -84.041207 
L 304.314693 -83.165886 
L 304.986094 -82.290565 
L 305.635737 -81.415244 
L 306.258233 -80.539924 
L 306.848339 -79.664603 
L 307.401034 -78.789282 
L 307.911587 -77.913961 
L 308.37562 -77.03864 
L 308.789165 -76.16332 
L 309.148714 -75.287999 
L 309.451256 -74.412678 
L 309.694308 -73.537357 
L 309.875939 -72.662037 
L 309.994773 -71.786716 
L 310.05 -70.911395 
L 310.041359 -70.036074 
L 309.969123 -69.160754 
L 309.834076 -68.285433 
L 309.637475 -67.410112 
L 309.38101 -66.534791 
L 309.066759 -65.65947 
L 308.697136 -64.78415 
L 308.274835 -63.908829 
L 307.802775 -63.033508 
L 307.284041 -62.158187 
L 306.721828 -61.282867 
L 306.119379 -60.407546 
L 305.479939 -59.532225 
L 304.806698 -58.656904 
L 304.102747 -57.781583 
L 303.37104 -56.906263 
L 302.614354 -56.030942 
L 301.835263 -55.155621 
L 301.036119 -54.2803 
L 300.219029 -53.40498 
L 299.385857 -52.529659 
L 298.538214 -51.654338 
L 297.677469 -50.779017 
L 296.804757 -49.903696 
L 295.920998 -49.028376 
L 295.026916 -48.153055 
L 294.123068 -47.277734 
L 293.20987 -46.402413 
L 292.28763 -45.527093 
L 291.356582 -44.651772 
L 290.416916 -43.776451 
L 289.468814 -42.90113 
L 288.512485 -42.025809 
L 287.548187 -41.150489 
L 286.576263 -40.275168 
L 285.597161 -39.399847 
L 284.611455 -38.524526 
L 283.619863 -37.649206 
L 282.623258 -36.773885 
L 281.622673 -35.898564 
L 280.619308 -35.023243 
z
" style="stroke: #6e6e6e; stroke-width: 0.2"/>
    </defs>
    <g clip-path="url(#pa190d14847)">
     <use xlink:href="#me07c178440" x="0" y="144" style="fill: #f5f5f5; stroke: #6e6e6e; stroke-width: 0.2"/>
    </g>
   </g>
   <g id="matplotlib.axis_1">
    <g id="xtick_1">
     <g id="line2d_1">
      <defs>
       <path id="mcc9b744699" d="M 0 0 
L 0 3.5 
" style="stroke: #000000; stroke-width: 0.8"/>
      </defs>
      <g>
       <use xlink:href="#mcc9b744699" x="114.75" y="128.16" style="stroke: #000000; stroke-width: 0.8"/>
      </g>
     </g>
     <g id="text_1">
      <!-- HD∆C -->
      <g transform="translate(100.303906 142.758438) scale(0.1 -0.1)">
       <defs>
        <path id="DejaVuSans-48" d="M 628 4666 
L 1259 4666 
L 1259 2753 
L 3553 2753 
L 3553 4666 
L 4184 4666 
L 4184 0 
L 3553 0 
L 3553 2222 
L 1259 2222 
L 1259 0 
L 628 0 
L 628 4666 
z
" transform="scale(0.015625)"/>
        <path id="DejaVuSans-44" d="M 1259 4147 
L 1259 519 
L 2022 519 
Q 2988 519 3436 956 
Q 3884 1394 3884 2338 
Q 3884 3275 3436 3711 
Q 2988 4147 2022 4147 
L 1259 4147 
z
M 628 4666 
L 1925 4666 
Q 3281 4666 3915 4102 
Q 4550 3538 4550 2338 
Q 4550 1131 3912 565 
Q 3275 0 1925 0 
L 628 0 
L 628 4666 
z
" transform="scale(0.015625)"/>
        <path id="DejaVuSans-2206" d="M 2138 3944 
L 831 556 
L 3444 556 
L 2138 3944 
z
M 1791 4603 
L 2491 4603 
L 4300 0 
L -19 0 
L 1791 4603 
z
" transform="scale(0.015625)"/>
        <path id="DejaVuSans-43" d="M 4122 4306 
L 4122 3641 
Q 3803 3938 3442 4084 
Q 3081 4231 2675 4231 
Q 1875 4231 1450 3742 
Q 1025 3253 1025 2328 
Q 1025 1406 1450 917 
Q 1875 428 2675 428 
Q 3081 428 3442 575 
Q 3803 722 4122 1019 
L 4122 359 
Q 3791 134 3420 21 
Q 3050 -91 2638 -91 
Q 1578 -91 968 557 
Q 359 1206 359 2328 
Q 359 3453 968 4101 
Q 1578 4750 2638 4750 
Q 3056 4750 3426 4639 
Q 3797 4528 4122 4306 
z
" transform="scale(0.015625)"/>
       </defs>
       <use xlink:href="#DejaVuSans-48"/>
       <use xlink:href="#DejaVuSans-44" x="75.195312"/>
       <use xlink:href="#DejaVuSans-2206" x="152.197266"/>
       <use xlink:href="#DejaVuSans-43" x="219.091797"/>
      </g>
     </g>
    </g>
    <g id="xtick_2">
     <g id="line2d_2">
      <g>
       <use xlink:href="#mcc9b744699" x="254.25" y="128.16" style="stroke: #000000; stroke-width: 0.8"/>
      </g>
     </g>
     <g id="text_2">
      <!-- None -->
      <g transform="translate(241.204688 142.758438) scale(0.1 -0.1)">
       <defs>
        <path id="DejaVuSans-4e" d="M 628 4666 
L 1478 4666 
L 3547 763 
L 3547 4666 
L 4159 4666 
L 4159 0 
L 3309 0 
L 1241 3903 
L 1241 0 
L 628 0 
L 628 4666 
z
" transform="scale(0.015625)"/>
        <path id="DejaVuSans-6f" d="M 1959 3097 
Q 1497 3097 1228 2736 
Q 959 2375 959 1747 
Q 959 1119 1226 758 
Q 1494 397 1959 397 
Q 2419 397 2687 759 
Q 2956 1122 2956 1747 
Q 2956 2369 2687 2733 
Q 2419 3097 1959 3097 
z
M 1959 3584 
Q 2709 3584 3137 3096 
Q 3566 2609 3566 1747 
Q 3566 888 3137 398 
Q 2709 -91 1959 -91 
Q 1206 -91 779 398 
Q 353 888 353 1747 
Q 353 2609 779 3096 
Q 1206 3584 1959 3584 
z
" transform="scale(0.015625)"/>
        <path id="DejaVuSans-6e" d="M 3513 2113 
L 3513 0 
L 2938 0 
L 2938 2094 
Q 2938 2591 2744 2837 
Q 2550 3084 2163 3084 
Q 1697 3084 1428 2787 
Q 1159 2491 1159 1978 
L 1159 0 
L 581 0 
L 581 3500 
L 1159 3500 
L 1159 2956 
Q 1366 3272 1645 3428 
Q 1925 3584 2291 3584 
Q 2894 3584 3203 3211 
Q 3513 2838 3513 2113 
z
" transform="scale(0.015625)"/>
        <path id="DejaVuSans-65" d="M 3597 1894 
L 3597 1613 
L 953 1613 
Q 991 1019 1311 708 
Q 1631 397 2203 397 
Q 2534 397 2845 478 
Q 3156 559 3463 722 
L 3463 178 
Q 3153 47 2828 -22 
Q 2503 -91 2169 -91 
Q 1331 -91 842 396 
Q 353 884 353 1716 
Q 353 2575 817 3079 
Q 1281 3584 2069 3584 
Q 2775 3584 3186 3129 
Q 3597 2675 3597 1894 
z
M 3022 2063 
Q 3016 2534 2758 2815 
Q 2500 3097 2075 3097 
Q 1594 3097 1305 2825 
Q 1016 2553 972 2059 
L 3022 2063 
z
" transform="scale(0.015625)"/>
       </defs>
       <use xlink:href="#DejaVuSans-4e"/>
       <use xlink:href="#DejaVuSans-6f" x="74.804688"/>
       <use xlink:href="#DejaVuSans-6e" x="135.986328"/>
       <use xlink:href="#DejaVuSans-65" x="199.365234"/>
      </g>
     </g>
    </g>
   </g>
   <g id="matplotlib.axis_2">
    <g id="ytick_1">
     <g id="line2d_3">
      <defs>
       <path id="m42c80f3ecc" d="M 0 0 
L -3.5 0 
" style="stroke: #000000; stroke-width: 0.8"/>
      </defs>
      <g>
       <use xlink:href="#m42c80f3ecc" x="45" y="107.778991" style="stroke: #000000; stroke-width: 0.8"/>
      </g>
     </g>
     <g id="text_3">
      <!-- 0.2 -->
      <g transform="translate(22.096875 111.57821) scale(0.1 -0.1)">
       <defs>
        <path id="DejaVuSans-30" d="M 2034 4250 
Q 1547 4250 1301 3770 
Q 1056 3291 1056 2328 
Q 1056 1369 1301 889 
Q 1547 409 2034 409 
Q 2525 409 2770 889 
Q 3016 1369 3016 2328 
Q 3016 3291 2770 3770 
Q 2525 4250 2034 4250 
z
M 2034 4750 
Q 2819 4750 3233 4129 
Q 3647 3509 3647 2328 
Q 3647 1150 3233 529 
Q 2819 -91 2034 -91 
Q 1250 -91 836 529 
Q 422 1150 422 2328 
Q 422 3509 836 4129 
Q 1250 4750 2034 4750 
z
" transform="scale(0.015625)"/>
        <path id="DejaVuSans-2e" d="M 684 794 
L 1344 794 
L 1344 0 
L 684 0 
L 684 794 
z
" transform="scale(0.015625)"/>
        <path id="DejaVuSans-32" d="M 1228 531 
L 3431 531 
L 3431 0 
L 469 0 
L 469 531 
Q 828 903 1448 1529 
Q 2069 2156 2228 2338 
Q 2531 2678 2651 2914 
Q 2772 3150 2772 3378 
Q 2772 3750 2511 3984 
Q 2250 4219 1831 4219 
Q 1534 4219 1204 4116 
Q 875 4013 500 3803 
L 500 4441 
Q 881 4594 1212 4672 
Q 1544 4750 1819 4750 
Q 2544 4750 2975 4387 
Q 3406 4025 3406 3419 
Q 3406 3131 3298 2873 
Q 3191 2616 2906 2266 
Q 2828 2175 2409 1742 
Q 1991 1309 1228 531 
z
" transform="scale(0.015625)"/>
       </defs>
       <use xlink:href="#DejaVuSans-30"/>
       <use xlink:href="#DejaVuSans-2e" x="63.623047"/>
       <use xlink:href="#DejaVuSans-32" x="95.410156"/>
      </g>
     </g>
    </g>
    <g id="ytick_2">
     <g id="line2d_4">
      <g>
       <use xlink:href="#m42c80f3ecc" x="45" y="80.240623" style="stroke: #000000; stroke-width: 0.8"/>
      </g>
     </g>
     <g id="text_4">
      <!-- 0.4 -->
      <g transform="translate(22.096875 84.039842) scale(0.1 -0.1)">
       <defs>
        <path id="DejaVuSans-34" d="M 2419 4116 
L 825 1625 
L 2419 1625 
L 2419 4116 
z
M 2253 4666 
L 3047 4666 
L 3047 1625 
L 3713 1625 
L 3713 1100 
L 3047 1100 
L 3047 0 
L 2419 0 
L 2419 1100 
L 313 1100 
L 313 1709 
L 2253 4666 
z
" transform="scale(0.015625)"/>
       </defs>
       <use xlink:href="#DejaVuSans-30"/>
       <use xlink:href="#DejaVuSans-2e" x="63.623047"/>
       <use xlink:href="#DejaVuSans-34" x="95.410156"/>
      </g>
     </g>
    </g>
    <g id="ytick_3">
     <g id="line2d_5">
      <g>
       <use xlink:href="#m42c80f3ecc" x="45" y="52.702255" style="stroke: #000000; stroke-width: 0.8"/>
      </g>
     </g>
     <g id="text_5">
      <!-- 0.6 -->
      <g transform="translate(22.096875 56.501474) scale(0.1 -0.1)">
       <defs>
        <path id="DejaVuSans-36" d="M 2113 2584 
Q 1688 2584 1439 2293 
Q 1191 2003 1191 1497 
Q 1191 994 1439 701 
Q 1688 409 2113 409 
Q 2538 409 2786 701 
Q 3034 994 3034 1497 
Q 3034 2003 2786 2293 
Q 2538 2584 2113 2584 
z
M 3366 4563 
L 3366 3988 
Q 3128 4100 2886 4159 
Q 2644 4219 2406 4219 
Q 1781 4219 1451 3797 
Q 1122 3375 1075 2522 
Q 1259 2794 1537 2939 
Q 1816 3084 2150 3084 
Q 2853 3084 3261 2657 
Q 3669 2231 3669 1497 
Q 3669 778 3244 343 
Q 2819 -91 2113 -91 
Q 1303 -91 875 529 
Q 447 1150 447 2328 
Q 447 3434 972 4092 
Q 1497 4750 2381 4750 
Q 2619 4750 2861 4703 
Q 3103 4656 3366 4563 
z
" transform="scale(0.015625)"/>
       </defs>
       <use xlink:href="#DejaVuSans-30"/>
       <use xlink:href="#DejaVuSans-2e" x="63.623047"/>
       <use xlink:href="#DejaVuSans-36" x="95.410156"/>
      </g>
     </g>
    </g>
    <g id="ytick_4">
     <g id="line2d_6">
      <g>
       <use xlink:href="#m42c80f3ecc" x="45" y="25.163887" style="stroke: #000000; stroke-width: 0.8"/>
      </g>
     </g>
     <g id="text_6">
      <!-- 0.8 -->
      <g transform="translate(22.096875 28.963105) scale(0.1 -0.1)">
       <defs>
        <path id="DejaVuSans-38" d="M 2034 2216 
Q 1584 2216 1326 1975 
Q 1069 1734 1069 1313 
Q 1069 891 1326 650 
Q 1584 409 2034 409 
Q 2484 409 2743 651 
Q 3003 894 3003 1313 
Q 3003 1734 2745 1975 
Q 2488 2216 2034 2216 
z
M 1403 2484 
Q 997 2584 770 2862 
Q 544 3141 544 3541 
Q 544 4100 942 4425 
Q 1341 4750 2034 4750 
Q 2731 4750 3128 4425 
Q 3525 4100 3525 3541 
Q 3525 3141 3298 2862 
Q 3072 2584 2669 2484 
Q 3125 2378 3379 2068 
Q 3634 1759 3634 1313 
Q 3634 634 3220 271 
Q 2806 -91 2034 -91 
Q 1263 -91 848 271 
Q 434 634 434 1313 
Q 434 1759 690 2068 
Q 947 2378 1403 2484 
z
M 1172 3481 
Q 1172 3119 1398 2916 
Q 1625 2713 2034 2713 
Q 2441 2713 2670 2916 
Q 2900 3119 2900 3481 
Q 2900 3844 2670 4047 
Q 2441 4250 2034 4250 
Q 1625 4250 1398 4047 
Q 1172 3844 1172 3481 
z
" transform="scale(0.015625)"/>
       </defs>
       <use xlink:href="#DejaVuSans-30"/>
       <use xlink:href="#DejaVuSans-2e" x="63.623047"/>
       <use xlink:href="#DejaVuSans-38" x="95.410156"/>
      </g>
     </g>
    </g>
   </g>
   <g id="patch_3">
    <path d="M 45 128.16 
L 45 17.28 
" style="fill: none; stroke: #000000; stroke-width: 0.8; stroke-linejoin: miter; stroke-linecap: square"/>
   </g>
   <g id="patch_4">
    <path d="M 324 128.16 
L 324 17.28 
" style="fill: none; stroke: #000000; stroke-width: 0.8; stroke-linejoin: miter; stroke-linecap: square"/>
   </g>
   <g id="patch_5">
    <path d="M 45 128.16 
L 324 128.16 
" style="fill: none; stroke: #000000; stroke-width: 0.8; stroke-linejoin: miter; stroke-linecap: square"/>
   </g>
   <g id="patch_6">
    <path d="M 45 17.28 
L 324 17.28 
" style="fill: none; stroke: #000000; stroke-width: 0.8; stroke-linejoin: miter; stroke-linecap: square"/>
   </g>
   <g id="PathCollection_1">
    <defs>
     <path id="C0_0_6c1256678a" d="M 0 2.5 
C 0.663008 2.5 1.29895 2.236584 1.767767 1.767767 
C 2.236584 1.29895 2.5 0.663008 2.5 -0 
C 2.5 -0.663008 2.236584 -1.29895 1.767767 -1.767767 
C 1.29895 -2.236584 0.663008 -2.5 0 -2.5 
C -0.663008 -2.5 -1.29895 -2.236584 -1.767767 -1.767767 
C -2.236584 -1.29895 -2.5 -0.663008 -2.5 0 
C -2.5 0.663008 -2.236584 1.29895 -1.767767 1.767767 
C -1.29895 2.236584 -0.663008 2.5 0 2.5 
z
"/>
    </defs>
    <g clip-path="url(#pa190d14847)">
     <use xlink:href="#C0_0_6c1256678a" x="110.100158" y="120.79856" style="fill: #b22222"/>
    </g>
    <g clip-path="url(#pa190d14847)">
     <use xlink:href="#C0_0_6c1256678a" x="114.75" y="123.12" style="fill: #b22222"/>
    </g>
    <g clip-path="url(#pa190d14847)">
     <use xlink:href="#C0_0_6c1256678a" x="110.46612" y="107.046352" style="fill: #b22222"/>
    </g>
    <g clip-path="url(#pa190d14847)">
     <use xlink:href="#C0_0_6c1256678a" x="109.610625" y="99.363601" style="fill: #b22222"/>
    </g>
    <g clip-path="url(#pa190d14847)">
     <use xlink:href="#C0_0_6c1256678a" x="114.75" y="109.936772" style="fill: #b22222"/>
    </g>
    <g clip-path="url(#pa190d14847)">
     <use xlink:href="#C0_0_6c1256678a" x="119.134941" y="120.370472" style="fill: #b22222"/>
    </g>
    <g clip-path="url(#pa190d14847)">
     <use xlink:href="#C0_0_6c1256678a" x="124.38494" y="120.369123" style="fill: #b22222"/>
    </g>
    <g clip-path="url(#pa190d14847)">
     <use xlink:href="#C0_0_6c1256678a" x="114.75" y="94.667129" style="fill: #b22222"/>
    </g>
    <g clip-path="url(#pa190d14847)">
     <use xlink:href="#C0_0_6c1256678a" x="118.335756" y="106.284686" style="fill: #b22222"/>
    </g>
    <g clip-path="url(#pa190d14847)">
     <use xlink:href="#C0_0_6c1256678a" x="114.75" y="100.384616" style="fill: #b22222"/>
    </g>
   </g>
   <g id="PathCollection_2">
    <defs>
     <path id="C1_0_5eb1a38143" d="M 0 2.5 
C 0.663008 2.5 1.29895 2.236584 1.767767 1.767767 
C 2.236584 1.29895 2.5 0.663008 2.5 -0 
C 2.5 -0.663008 2.236584 -1.29895 1.767767 -1.767767 
C 1.29895 -2.236584 0.663008 -2.5 0 -2.5 
C -0.663008 -2.5 -1.29895 -2.236584 -1.767767 -1.767767 
C -2.236584 -1.29895 -2.5 -0.663008 -2.5 0 
C -2.5 0.663008 -2.236584 1.29895 -1.767767 1.767767 
C -1.29895 2.236584 -0.663008 2.5 0 2.5 
z
"/>
    </defs>
    <g clip-path="url(#pa190d14847)">
     <use xlink:href="#C1_0_5eb1a38143" x="254.25" y="79.471122" style="fill: #808080"/>
    </g>
    <g clip-path="url(#pa190d14847)">
     <use xlink:href="#C1_0_5eb1a38143" x="254.25" y="22.32" style="fill: #808080"/>
    </g>
    <g clip-path="url(#pa190d14847)">
     <use xlink:href="#C1_0_5eb1a38143" x="254.25" y="102.628122" style="fill: #808080"/>
    </g>
    <g clip-path="url(#pa190d14847)">
     <use xlink:href="#C1_0_5eb1a38143" x="249.123618" y="32.244639" style="fill: #808080"/>
    </g>
    <g clip-path="url(#pa190d14847)">
     <use xlink:href="#C1_0_5eb1a38143" x="254.25" y="94.902962" style="fill: #808080"/>
    </g>
    <g clip-path="url(#pa190d14847)">
     <use xlink:href="#C1_0_5eb1a38143" x="254.25" y="33.323273" style="fill: #808080"/>
    </g>
    <g clip-path="url(#pa190d14847)">
     <use xlink:href="#C1_0_5eb1a38143" x="249.175308" y="72.031306" style="fill: #808080"/>
    </g>
    <g clip-path="url(#pa190d14847)">
     <use xlink:href="#C1_0_5eb1a38143" x="254.25" y="73.312603" style="fill: #808080"/>
    </g>
    <g clip-path="url(#pa190d14847)">
     <use xlink:href="#C1_0_5eb1a38143" x="254.25" y="108.976757" style="fill: #808080"/>
    </g>
    <g clip-path="url(#pa190d14847)">
     <use xlink:href="#C1_0_5eb1a38143" x="254.25" y="41.17088" style="fill: #808080"/>
    </g>
    <g clip-path="url(#pa190d14847)">
     <use xlink:href="#C1_0_5eb1a38143" x="254.25" y="85.079466" style="fill: #808080"/>
    </g>
    <g clip-path="url(#pa190d14847)">
     <use xlink:href="#C1_0_5eb1a38143" x="254.25" y="58.910479" style="fill: #808080"/>
    </g>
    <g clip-path="url(#pa190d14847)">
     <use xlink:href="#C1_0_5eb1a38143" x="254.25" y="68.281311" style="fill: #808080"/>
    </g>
    <g clip-path="url(#pa190d14847)">
     <use xlink:href="#C1_0_5eb1a38143" x="252.118" y="63.712158" style="fill: #808080"/>
    </g>
   </g>
   <g id="text_7">
    <!-- HOXb13 -->
    <g transform="translate(160.093125 11.28) scale(0.12 -0.12)">
     <defs>
      <path id="DejaVuSans-4f" d="M 2522 4238 
Q 1834 4238 1429 3725 
Q 1025 3213 1025 2328 
Q 1025 1447 1429 934 
Q 1834 422 2522 422 
Q 3209 422 3611 934 
Q 4013 1447 4013 2328 
Q 4013 3213 3611 3725 
Q 3209 4238 2522 4238 
z
M 2522 4750 
Q 3503 4750 4090 4092 
Q 4678 3434 4678 2328 
Q 4678 1225 4090 567 
Q 3503 -91 2522 -91 
Q 1538 -91 948 565 
Q 359 1222 359 2328 
Q 359 3434 948 4092 
Q 1538 4750 2522 4750 
z
" transform="scale(0.015625)"/>
      <path id="DejaVuSans-58" d="M 403 4666 
L 1081 4666 
L 2241 2931 
L 3406 4666 
L 4084 4666 
L 2584 2425 
L 4184 0 
L 3506 0 
L 2194 1984 
L 872 0 
L 191 0 
L 1856 2491 
L 403 4666 
z
" transform="scale(0.015625)"/>
      <path id="DejaVuSans-62" d="M 3116 1747 
Q 3116 2381 2855 2742 
Q 2594 3103 2138 3103 
Q 1681 3103 1420 2742 
Q 1159 2381 1159 1747 
Q 1159 1113 1420 752 
Q 1681 391 2138 391 
Q 2594 391 2855 752 
Q 3116 1113 3116 1747 
z
M 1159 2969 
Q 1341 3281 1617 3432 
Q 1894 3584 2278 3584 
Q 2916 3584 3314 3078 
Q 3713 2572 3713 1747 
Q 3713 922 3314 415 
Q 2916 -91 2278 -91 
Q 1894 -91 1617 61 
Q 1341 213 1159 525 
L 1159 0 
L 581 0 
L 581 4863 
L 1159 4863 
L 1159 2969 
z
" transform="scale(0.015625)"/>
      <path id="DejaVuSans-31" d="M 794 531 
L 1825 531 
L 1825 4091 
L 703 3866 
L 703 4441 
L 1819 4666 
L 2450 4666 
L 2450 531 
L 3481 531 
L 3481 0 
L 794 0 
L 794 531 
z
" transform="scale(0.015625)"/>
      <path id="DejaVuSans-33" d="M 2597 2516 
Q 3050 2419 3304 2112 
Q 3559 1806 3559 1356 
Q 3559 666 3084 287 
Q 2609 -91 1734 -91 
Q 1441 -91 1130 -33 
Q 819 25 488 141 
L 488 750 
Q 750 597 1062 519 
Q 1375 441 1716 441 
Q 2309 441 2620 675 
Q 2931 909 2931 1356 
Q 2931 1769 2642 2001 
Q 2353 2234 1838 2234 
L 1294 2234 
L 1294 2753 
L 1863 2753 
Q 2328 2753 2575 2939 
Q 2822 3125 2822 3475 
Q 2822 3834 2567 4026 
Q 2313 4219 1838 4219 
Q 1578 4219 1281 4162 
Q 984 4106 628 3988 
L 628 4550 
Q 988 4650 1302 4700 
Q 1616 4750 1894 4750 
Q 2613 4750 3031 4423 
Q 3450 4097 3450 3541 
Q 3450 3153 3228 2886 
Q 3006 2619 2597 2516 
z
" transform="scale(0.015625)"/>
     </defs>
     <use xlink:href="#DejaVuSans-48"/>
     <use xlink:href="#DejaVuSans-4f" x="75.195312"/>
     <use xlink:href="#DejaVuSans-58" x="147.53125"/>
     <use xlink:href="#DejaVuSans-62" x="216.037109"/>
     <use xlink:href="#DejaVuSans-31" x="279.513672"/>
     <use xlink:href="#DejaVuSans-33" x="343.136719"/>
    </g>
   </g>
  </g>
 </g>
 <defs>
  <clipPath id="pa190d14847">
   <rect x="45" y="17.28" width="279" height="110.88"/>
  </clipPath>
 </defs>
</svg>
