<?xml version="1.0" encoding="utf-8" standalone="no"?>
<!DOCTYPE svg PUBLIC "-//W3C//DTD SVG 1.1//EN"
  "http://www.w3.org/Graphics/SVG/1.1/DTD/svg11.dtd">
<svg xmlns:xlink="http://www.w3.org/1999/xlink" width="360pt" height="144pt" viewBox="0 0 360 144" xmlns="http://www.w3.org/2000/svg" version="1.1">
 <metadata>
  <rdf:RDF xmlns:dc="http://purl.org/dc/elements/1.1/" xmlns:cc="http://creativecommons.org/ns#" xmlns:rdf="http://www.w3.org/1999/02/22-rdf-syntax-ns#">
   <cc:Work>
    <dc:type rdf:resource="http://purl.org/dc/dcmitype/StillImage"/>
    <dc:date>2025-07-30T10:02:44.533973</dc:date>
    <dc:format>image/svg+xml</dc:format>
    <dc:creator>
     <cc:Agent>
      <dc:title>Matplotlib v3.9.2, https://matplotlib.org/</dc:title>
     </cc:Agent>
    </dc:creator>
   </cc:Work>
  </rdf:RDF>
 </metadata>
 <defs>
  <style type="text/css">*{stroke-linejoin: round; stroke-linecap: butt}</style>
 </defs>
 <g id="figure_1">
  <g id="patch_1">
   <path d="M 0 144 
L 360 144 
L 360 0 
L 0 0 
z
" style="fill: #ffffff"/>
  </g>
  <g id="axes_1">
   <g id="patch_2">
    <path d="M 45 128.16 
L 324 128.16 
L 324 17.28 
L 45 17.28 
z
" style="fill: #ffffff"/>
   </g>
   <g id="PolyCollection_1">
    <defs>
     <path id="m2297b45652" d="M 163.17132 -20.88 
L 66.32868 -20.88 
L 65.278022 -21.493699 
L 64.298554 -22.107397 
L 63.394069 -22.721096 
L 62.567901 -23.334795 
L 61.822892 -23.948493 
L 61.161375 -24.562192 
L 60.585148 -25.17589 
L 60.095463 -25.789589 
L 59.693017 -26.403288 
L 59.377947 -27.016986 
L 59.149829 -27.630685 
L 59.007687 -28.244384 
L 58.95 -28.858082 
L 58.974718 -29.471781 
L 59.079285 -30.085479 
L 59.260658 -30.699178 
L 59.515343 -31.312877 
L 59.839421 -31.926575 
L 60.228587 -32.540274 
L 60.678193 -33.153973 
L 61.183288 -33.767671 
L 61.738662 -34.38137 
L 62.338902 -34.995068 
L 62.978434 -35.608767 
L 63.651581 -36.222466 
L 64.352612 -36.836164 
L 65.075798 -37.449863 
L 65.815464 -38.063562 
L 66.566044 -38.67726 
L 67.322128 -39.290959 
L 68.078518 -39.904658 
L 68.830273 -40.518356 
L 69.57275 -41.132055 
L 70.301652 -41.745753 
L 71.013061 -42.359452 
L 71.703474 -42.973151 
L 72.369825 -43.586849 
L 73.009516 -44.200548 
L 73.620427 -44.814247 
L 74.200931 -45.427945 
L 74.749897 -46.041644 
L 75.26669 -46.655342 
L 75.751166 -47.269041 
L 76.203652 -47.88274 
L 76.624935 -48.496438 
L 77.01623 -49.110137 
L 77.379156 -49.723836 
L 77.715697 -50.337534 
L 78.028164 -50.951233 
L 78.319154 -51.564932 
L 78.591502 -52.17863 
L 78.848235 -52.792329 
L 79.092521 -53.406027 
L 79.327619 -54.019726 
L 79.55683 -54.633425 
L 79.783444 -55.247123 
L 80.010699 -55.860822 
L 80.241727 -56.474521 
L 80.479517 -57.088219 
L 80.726874 -57.701918 
L 80.986382 -58.315616 
L 81.260378 -58.929315 
L 81.55092 -59.543014 
L 81.859775 -60.156712 
L 82.188394 -60.770411 
L 82.537911 -61.38411 
L 82.909134 -61.997808 
L 83.302549 -62.611507 
L 83.718326 -63.225205 
L 84.156328 -63.838904 
L 84.616131 -64.452603 
L 85.097041 -65.066301 
L 85.598119 -65.68 
L 86.118207 -66.293699 
L 86.655957 -66.907397 
L 87.209859 -67.521096 
L 87.77828 -68.134795 
L 88.359485 -68.748493 
L 88.95168 -69.362192 
L 89.553035 -69.97589 
L 90.161717 -70.589589 
L 90.775917 -71.203288 
L 91.393876 -71.816986 
L 92.013907 -72.430685 
L 92.634415 -73.044384 
L 93.253913 -73.658082 
L 93.871035 -74.271781 
L 94.484545 -74.885479 
L 95.093344 -75.499178 
L 95.696473 -76.112877 
L 96.293111 -76.726575 
L 96.88257 -77.340274 
L 97.464295 -77.953973 
L 98.037848 -78.567671 
L 98.602901 -79.18137 
L 99.159225 -79.795068 
L 99.706674 -80.408767 
L 100.245174 -81.022466 
L 100.774705 -81.636164 
L 128.725295 -81.636164 
L 128.725295 -81.636164 
L 129.254826 -81.022466 
L 129.793326 -80.408767 
L 130.340775 -79.795068 
L 130.897099 -79.18137 
L 131.462152 -78.567671 
L 132.035705 -77.953973 
L 132.61743 -77.340274 
L 133.206889 -76.726575 
L 133.803527 -76.112877 
L 134.406656 -75.499178 
L 135.015455 -74.885479 
L 135.628965 -74.271781 
L 136.246087 -73.658082 
L 136.865585 -73.044384 
L 137.486093 -72.430685 
L 138.106124 -71.816986 
L 138.724083 -71.203288 
L 139.338283 -70.589589 
L 139.946965 -69.97589 
L 140.54832 -69.362192 
L 141.140515 -68.748493 
L 141.72172 -68.134795 
L 142.290141 -67.521096 
L 142.844043 -66.907397 
L 143.381793 -66.293699 
L 143.901881 -65.68 
L 144.402959 -65.066301 
L 144.883869 -64.452603 
L 145.343672 -63.838904 
L 145.781674 -63.225205 
L 146.197451 -62.611507 
L 146.590866 -61.997808 
L 146.962089 -61.38411 
L 147.311606 -60.770411 
L 147.640225 -60.156712 
L 147.94908 -59.543014 
L 148.239622 -58.929315 
L 148.513618 -58.315616 
L 148.773126 -57.701918 
L 149.020483 -57.088219 
L 149.258273 -56.474521 
L 149.489301 -55.860822 
L 149.716556 -55.247123 
L 149.94317 -54.633425 
L 150.172381 -54.019726 
L 150.407479 -53.406027 
L 150.651765 -52.792329 
L 150.908498 -52.17863 
L 151.180846 -51.564932 
L 151.471836 -50.951233 
L 151.784303 -50.337534 
L 152.120844 -49.723836 
L 152.48377 -49.110137 
L 152.875065 -48.496438 
L 153.296348 -47.88274 
L 153.748834 -47.269041 
L 154.23331 -46.655342 
L 154.750103 -46.041644 
L 155.299069 -45.427945 
L 155.879573 -44.814247 
L 156.490484 -44.200548 
L 157.130175 -43.586849 
L 157.796526 -42.973151 
L 158.486939 -42.359452 
L 159.198348 -41.745753 
L 159.92725 -41.132055 
L 160.669727 -40.518356 
L 161.421482 -39.904658 
L 162.177872 -39.290959 
L 162.933956 -38.67726 
L 163.684536 -38.063562 
L 164.424202 -37.449863 
L 165.147388 -36.836164 
L 165.848419 -36.222466 
L 166.521566 -35.608767 
L 167.161098 -34.995068 
L 167.761338 -34.38137 
L 168.316712 -33.767671 
L 168.821807 -33.153973 
L 169.271413 -32.540274 
L 169.660579 -31.926575 
L 169.984657 -31.312877 
L 170.239342 -30.699178 
L 170.420715 -30.085479 
L 170.525282 -29.471781 
L 170.55 -28.858082 
L 170.492313 -28.244384 
L 170.350171 -27.630685 
L 170.122053 -27.016986 
L 169.806983 -26.403288 
L 169.404537 -25.789589 
L 168.914852 -25.17589 
L 168.338625 -24.562192 
L 167.677108 -23.948493 
L 166.932099 -23.334795 
L 166.105931 -22.721096 
L 165.201446 -22.107397 
L 164.221978 -21.493699 
L 163.17132 -20.88 
z
" style="stroke: #6e6e6e; stroke-width: 0.2"/>
    </defs>
    <g clip-path="url(#p5fc7490263)">
     <use xlink:href="#m2297b45652" x="0" y="144" style="fill: #e28e8e; stroke: #6e6e6e; stroke-width: 0.2"/>
    </g>
   </g>
   <g id="PolyCollection_2">
    <defs>
     <path id="mffda3c884c" d="M 274.222748 -51.258082 
L 234.277252 -51.258082 
L 233.860985 -51.969415 
L 233.460656 -52.680747 
L 233.075408 -53.39208 
L 232.704085 -54.103412 
L 232.345253 -54.814745 
L 231.997203 -55.526077 
L 231.657978 -56.23741 
L 231.325393 -56.948742 
L 230.997061 -57.660075 
L 230.670427 -58.371407 
L 230.342799 -59.08274 
L 230.011388 -59.794072 
L 229.673346 -60.505405 
L 229.325808 -61.216737 
L 228.965933 -61.92807 
L 228.590945 -62.639402 
L 228.198179 -63.350735 
L 227.785118 -64.062067 
L 227.349434 -64.7734 
L 226.889022 -65.484732 
L 226.402036 -66.196065 
L 225.886917 -66.907397 
L 225.342423 -67.61873 
L 224.767642 -68.330062 
L 224.162017 -69.041395 
L 223.525354 -69.752727 
L 222.857827 -70.46406 
L 222.159982 -71.175392 
L 221.432732 -71.886725 
L 220.677348 -72.598057 
L 219.895449 -73.30939 
L 219.088977 -74.020722 
L 218.260184 -74.732055 
L 217.411602 -75.443387 
L 216.546016 -76.15472 
L 215.666433 -76.866052 
L 214.776052 -77.577385 
L 213.878229 -78.288717 
L 212.976443 -79.00005 
L 212.074262 -79.711382 
L 211.175307 -80.422715 
L 210.283223 -81.134047 
L 209.401644 -81.84538 
L 208.534163 -82.556712 
L 207.684307 -83.268045 
L 206.855507 -83.979377 
L 206.051077 -84.69071 
L 205.274193 -85.402042 
L 204.527874 -86.113375 
L 203.814966 -86.824707 
L 203.138132 -87.53604 
L 202.499838 -88.247372 
L 201.902347 -88.958705 
L 201.347712 -89.670037 
L 200.837773 -90.38137 
L 200.374156 -91.092702 
L 199.958271 -91.804035 
L 199.591316 -92.515367 
L 199.274274 -93.2267 
L 199.007926 -93.938032 
L 198.792847 -94.649365 
L 198.629416 -95.360697 
L 198.517823 -96.07203 
L 198.458074 -96.783362 
L 198.45 -97.494695 
L 198.493266 -98.206027 
L 198.587377 -98.91736 
L 198.731691 -99.628692 
L 198.925428 -100.340025 
L 199.167675 -101.051357 
L 199.457406 -101.76269 
L 199.793485 -102.474022 
L 200.174678 -103.185355 
L 200.59967 -103.896687 
L 201.06707 -104.60802 
L 201.575425 -105.319352 
L 202.123234 -106.030685 
L 202.708954 -106.742017 
L 203.331014 -107.45335 
L 203.987825 -108.164682 
L 204.677788 -108.876015 
L 205.399306 -109.587347 
L 206.150787 -110.29868 
L 206.930654 -111.010012 
L 207.73735 -111.721345 
L 208.569339 -112.432677 
L 209.425114 -113.14401 
L 210.303193 -113.855342 
L 211.202122 -114.566675 
L 212.120473 -115.278007 
L 213.056842 -115.98934 
L 214.009841 -116.700672 
L 214.978101 -117.412005 
L 215.96026 -118.123337 
L 216.954958 -118.83467 
L 217.960835 -119.546002 
L 218.97652 -120.257335 
L 220.000626 -120.968667 
L 221.031745 -121.68 
L 287.468255 -121.68 
L 287.468255 -121.68 
L 288.499374 -120.968667 
L 289.52348 -120.257335 
L 290.539165 -119.546002 
L 291.545042 -118.83467 
L 292.53974 -118.123337 
L 293.521899 -117.412005 
L 294.490159 -116.700672 
L 295.443158 -115.98934 
L 296.379527 -115.278007 
L 297.297878 -114.566675 
L 298.196807 -113.855342 
L 299.074886 -113.14401 
L 299.930661 -112.432677 
L 300.76265 -111.721345 
L 301.569346 -111.010012 
L 302.349213 -110.29868 
L 303.100694 -109.587347 
L 303.822212 -108.876015 
L 304.512175 -108.164682 
L 305.168986 -107.45335 
L 305.791046 -106.742017 
L 306.376766 -106.030685 
L 306.924575 -105.319352 
L 307.43293 -104.60802 
L 307.90033 -103.896687 
L 308.325322 -103.185355 
L 308.706515 -102.474022 
L 309.042594 -101.76269 
L 309.332325 -101.051357 
L 309.574572 -100.340025 
L 309.768309 -99.628692 
L 309.912623 -98.91736 
L 310.006734 -98.206027 
L 310.05 -97.494695 
L 310.041926 -96.783362 
L 309.982177 -96.07203 
L 309.870584 -95.360697 
L 309.707153 -94.649365 
L 309.492074 -93.938032 
L 309.225726 -93.2267 
L 308.908684 -92.515367 
L 308.541729 -91.804035 
L 308.125844 -91.092702 
L 307.662227 -90.38137 
L 307.152288 -89.670037 
L 306.597653 -88.958705 
L 306.000162 -88.247372 
L 305.361868 -87.53604 
L 304.685034 -86.824707 
L 303.972126 -86.113375 
L 303.225807 -85.402042 
L 302.448923 -84.69071 
L 301.644493 -83.979377 
L 300.815693 -83.268045 
L 299.965837 -82.556712 
L 299.098356 -81.84538 
L 298.216777 -81.134047 
L 297.324693 -80.422715 
L 296.425738 -79.711382 
L 295.523557 -79.00005 
L 294.621771 -78.288717 
L 293.723948 -77.577385 
L 292.833567 -76.866052 
L 291.953984 -76.15472 
L 291.088398 -75.443387 
L 290.239816 -74.732055 
L 289.411023 -74.020722 
L 288.604551 -73.30939 
L 287.822652 -72.598057 
L 287.067268 -71.886725 
L 286.340018 -71.175392 
L 285.642173 -70.46406 
L 284.974646 -69.752727 
L 284.337983 -69.041395 
L 283.732358 -68.330062 
L 283.157577 -67.61873 
L 282.613083 -66.907397 
L 282.097964 -66.196065 
L 281.610978 -65.484732 
L 281.150566 -64.7734 
L 280.714882 -64.062067 
L 280.301821 -63.350735 
L 279.909055 -62.639402 
L 279.534067 -61.92807 
L 279.174192 -61.216737 
L 278.826654 -60.505405 
L 278.488612 -59.794072 
L 278.157201 -59.08274 
L 277.829573 -58.371407 
L 277.502939 -57.660075 
L 277.174607 -56.948742 
L 276.842022 -56.23741 
L 276.502797 -55.526077 
L 276.154747 -54.814745 
L 275.795915 -54.103412 
L 275.424592 -53.39208 
L 275.039344 -52.680747 
L 274.639015 -51.969415 
L 274.222748 -51.258082 
z
" style="stroke: #6e6e6e; stroke-width: 0.2"/>
    </defs>
    <g clip-path="url(#p5fc7490263)">
     <use xlink:href="#mffda3c884c" x="0" y="144" style="fill: #f5f5f5; stroke: #6e6e6e; stroke-width: 0.2"/>
    </g>
   </g>
   <g id="matplotlib.axis_1">
    <g id="xtick_1">
     <g id="line2d_1">
      <defs>
       <path id="ma31ceb4e2d" d="M 0 0 
L 0 3.5 
" style="stroke: #000000; stroke-width: 0.8"/>
      </defs>
      <g>
       <use xlink:href="#ma31ceb4e2d" x="114.75" y="128.16" style="stroke: #000000; stroke-width: 0.8"/>
      </g>
     </g>
     <g id="text_1">
      <!-- HD∆C -->
      <g transform="translate(100.303906 142.758438) scale(0.1 -0.1)">
       <defs>
        <path id="DejaVuSans-48" d="M 628 4666 
L 1259 4666 
L 1259 2753 
L 3553 2753 
L 3553 4666 
L 4184 4666 
L 4184 0 
L 3553 0 
L 3553 2222 
L 1259 2222 
L 1259 0 
L 628 0 
L 628 4666 
z
" transform="scale(0.015625)"/>
        <path id="DejaVuSans-44" d="M 1259 4147 
L 1259 519 
L 2022 519 
Q 2988 519 3436 956 
Q 3884 1394 3884 2338 
Q 3884 3275 3436 3711 
Q 2988 4147 2022 4147 
L 1259 4147 
z
M 628 4666 
L 1925 4666 
Q 3281 4666 3915 4102 
Q 4550 3538 4550 2338 
Q 4550 1131 3912 565 
Q 3275 0 1925 0 
L 628 0 
L 628 4666 
z
" transform="scale(0.015625)"/>
        <path id="DejaVuSans-2206" d="M 2138 3944 
L 831 556 
L 3444 556 
L 2138 3944 
z
M 1791 4603 
L 2491 4603 
L 4300 0 
L -19 0 
L 1791 4603 
z
" transform="scale(0.015625)"/>
        <path id="DejaVuSans-43" d="M 4122 4306 
L 4122 3641 
Q 3803 3938 3442 4084 
Q 3081 4231 2675 4231 
Q 1875 4231 1450 3742 
Q 1025 3253 1025 2328 
Q 1025 1406 1450 917 
Q 1875 428 2675 428 
Q 3081 428 3442 575 
Q 3803 722 4122 1019 
L 4122 359 
Q 3791 134 3420 21 
Q 3050 -91 2638 -91 
Q 1578 -91 968 557 
Q 359 1206 359 2328 
Q 359 3453 968 4101 
Q 1578 4750 2638 4750 
Q 3056 4750 3426 4639 
Q 3797 4528 4122 4306 
z
" transform="scale(0.015625)"/>
       </defs>
       <use xlink:href="#DejaVuSans-48"/>
       <use xlink:href="#DejaVuSans-44" x="75.195312"/>
       <use xlink:href="#DejaVuSans-2206" x="152.197266"/>
       <use xlink:href="#DejaVuSans-43" x="219.091797"/>
      </g>
     </g>
    </g>
    <g id="xtick_2">
     <g id="line2d_2">
      <g>
       <use xlink:href="#ma31ceb4e2d" x="254.25" y="128.16" style="stroke: #000000; stroke-width: 0.8"/>
      </g>
     </g>
     <g id="text_2">
      <!-- None -->
      <g transform="translate(241.204688 142.758438) scale(0.1 -0.1)">
       <defs>
        <path id="DejaVuSans-4e" d="M 628 4666 
L 1478 4666 
L 3547 763 
L 3547 4666 
L 4159 4666 
L 4159 0 
L 3309 0 
L 1241 3903 
L 1241 0 
L 628 0 
L 628 4666 
z
" transform="scale(0.015625)"/>
        <path id="DejaVuSans-6f" d="M 1959 3097 
Q 1497 3097 1228 2736 
Q 959 2375 959 1747 
Q 959 1119 1226 758 
Q 1494 397 1959 397 
Q 2419 397 2687 759 
Q 2956 1122 2956 1747 
Q 2956 2369 2687 2733 
Q 2419 3097 1959 3097 
z
M 1959 3584 
Q 2709 3584 3137 3096 
Q 3566 2609 3566 1747 
Q 3566 888 3137 398 
Q 2709 -91 1959 -91 
Q 1206 -91 779 398 
Q 353 888 353 1747 
Q 353 2609 779 3096 
Q 1206 3584 1959 3584 
z
" transform="scale(0.015625)"/>
        <path id="DejaVuSans-6e" d="M 3513 2113 
L 3513 0 
L 2938 0 
L 2938 2094 
Q 2938 2591 2744 2837 
Q 2550 3084 2163 3084 
Q 1697 3084 1428 2787 
Q 1159 2491 1159 1978 
L 1159 0 
L 581 0 
L 581 3500 
L 1159 3500 
L 1159 2956 
Q 1366 3272 1645 3428 
Q 1925 3584 2291 3584 
Q 2894 3584 3203 3211 
Q 3513 2838 3513 2113 
z
" transform="scale(0.015625)"/>
        <path id="DejaVuSans-65" d="M 3597 1894 
L 3597 1613 
L 953 1613 
Q 991 1019 1311 708 
Q 1631 397 2203 397 
Q 2534 397 2845 478 
Q 3156 559 3463 722 
L 3463 178 
Q 3153 47 2828 -22 
Q 2503 -91 2169 -91 
Q 1331 -91 842 396 
Q 353 884 353 1716 
Q 353 2575 817 3079 
Q 1281 3584 2069 3584 
Q 2775 3584 3186 3129 
Q 3597 2675 3597 1894 
z
M 3022 2063 
Q 3016 2534 2758 2815 
Q 2500 3097 2075 3097 
Q 1594 3097 1305 2825 
Q 1016 2553 972 2059 
L 3022 2063 
z
" transform="scale(0.015625)"/>
       </defs>
       <use xlink:href="#DejaVuSans-4e"/>
       <use xlink:href="#DejaVuSans-6f" x="74.804688"/>
       <use xlink:href="#DejaVuSans-6e" x="135.986328"/>
       <use xlink:href="#DejaVuSans-65" x="199.365234"/>
      </g>
     </g>
    </g>
   </g>
   <g id="matplotlib.axis_2">
    <g id="ytick_1">
     <g id="line2d_3">
      <defs>
       <path id="m5796675aec" d="M 0 0 
L -3.5 0 
" style="stroke: #000000; stroke-width: 0.8"/>
      </defs>
      <g>
       <use xlink:href="#m5796675aec" x="45" y="107.930959" style="stroke: #000000; stroke-width: 0.8"/>
      </g>
     </g>
     <g id="text_3">
      <!-- 0.2 -->
      <g transform="translate(22.096875 111.730178) scale(0.1 -0.1)">
       <defs>
        <path id="DejaVuSans-30" d="M 2034 4250 
Q 1547 4250 1301 3770 
Q 1056 3291 1056 2328 
Q 1056 1369 1301 889 
Q 1547 409 2034 409 
Q 2525 409 2770 889 
Q 3016 1369 3016 2328 
Q 3016 3291 2770 3770 
Q 2525 4250 2034 4250 
z
M 2034 4750 
Q 2819 4750 3233 4129 
Q 3647 3509 3647 2328 
Q 3647 1150 3233 529 
Q 2819 -91 2034 -91 
Q 1250 -91 836 529 
Q 422 1150 422 2328 
Q 422 3509 836 4129 
Q 1250 4750 2034 4750 
z
" transform="scale(0.015625)"/>
        <path id="DejaVuSans-2e" d="M 684 794 
L 1344 794 
L 1344 0 
L 684 0 
L 684 794 
z
" transform="scale(0.015625)"/>
        <path id="DejaVuSans-32" d="M 1228 531 
L 3431 531 
L 3431 0 
L 469 0 
L 469 531 
Q 828 903 1448 1529 
Q 2069 2156 2228 2338 
Q 2531 2678 2651 2914 
Q 2772 3150 2772 3378 
Q 2772 3750 2511 3984 
Q 2250 4219 1831 4219 
Q 1534 4219 1204 4116 
Q 875 4013 500 3803 
L 500 4441 
Q 881 4594 1212 4672 
Q 1544 4750 1819 4750 
Q 2544 4750 2975 4387 
Q 3406 4025 3406 3419 
Q 3406 3131 3298 2873 
Q 3191 2616 2906 2266 
Q 2828 2175 2409 1742 
Q 1991 1309 1228 531 
z
" transform="scale(0.015625)"/>
       </defs>
       <use xlink:href="#DejaVuSans-30"/>
       <use xlink:href="#DejaVuSans-2e" x="63.623047"/>
       <use xlink:href="#DejaVuSans-32" x="95.410156"/>
      </g>
     </g>
    </g>
    <g id="ytick_2">
     <g id="line2d_4">
      <g>
       <use xlink:href="#m5796675aec" x="45" y="80.314521" style="stroke: #000000; stroke-width: 0.8"/>
      </g>
     </g>
     <g id="text_4">
      <!-- 0.4 -->
      <g transform="translate(22.096875 84.113739) scale(0.1 -0.1)">
       <defs>
        <path id="DejaVuSans-34" d="M 2419 4116 
L 825 1625 
L 2419 1625 
L 2419 4116 
z
M 2253 4666 
L 3047 4666 
L 3047 1625 
L 3713 1625 
L 3713 1100 
L 3047 1100 
L 3047 0 
L 2419 0 
L 2419 1100 
L 313 1100 
L 313 1709 
L 2253 4666 
z
" transform="scale(0.015625)"/>
       </defs>
       <use xlink:href="#DejaVuSans-30"/>
       <use xlink:href="#DejaVuSans-2e" x="63.623047"/>
       <use xlink:href="#DejaVuSans-34" x="95.410156"/>
      </g>
     </g>
    </g>
    <g id="ytick_3">
     <g id="line2d_5">
      <g>
       <use xlink:href="#m5796675aec" x="45" y="52.698082" style="stroke: #000000; stroke-width: 0.8"/>
      </g>
     </g>
     <g id="text_5">
      <!-- 0.6 -->
      <g transform="translate(22.096875 56.497301) scale(0.1 -0.1)">
       <defs>
        <path id="DejaVuSans-36" d="M 2113 2584 
Q 1688 2584 1439 2293 
Q 1191 2003 1191 1497 
Q 1191 994 1439 701 
Q 1688 409 2113 409 
Q 2538 409 2786 701 
Q 3034 994 3034 1497 
Q 3034 2003 2786 2293 
Q 2538 2584 2113 2584 
z
M 3366 4563 
L 3366 3988 
Q 3128 4100 2886 4159 
Q 2644 4219 2406 4219 
Q 1781 4219 1451 3797 
Q 1122 3375 1075 2522 
Q 1259 2794 1537 2939 
Q 1816 3084 2150 3084 
Q 2853 3084 3261 2657 
Q 3669 2231 3669 1497 
Q 3669 778 3244 343 
Q 2819 -91 2113 -91 
Q 1303 -91 875 529 
Q 447 1150 447 2328 
Q 447 3434 972 4092 
Q 1497 4750 2381 4750 
Q 2619 4750 2861 4703 
Q 3103 4656 3366 4563 
z
" transform="scale(0.015625)"/>
       </defs>
       <use xlink:href="#DejaVuSans-30"/>
       <use xlink:href="#DejaVuSans-2e" x="63.623047"/>
       <use xlink:href="#DejaVuSans-36" x="95.410156"/>
      </g>
     </g>
    </g>
    <g id="ytick_4">
     <g id="line2d_6">
      <g>
       <use xlink:href="#m5796675aec" x="45" y="25.081644" style="stroke: #000000; stroke-width: 0.8"/>
      </g>
     </g>
     <g id="text_6">
      <!-- 0.8 -->
      <g transform="translate(22.096875 28.880863) scale(0.1 -0.1)">
       <defs>
        <path id="DejaVuSans-38" d="M 2034 2216 
Q 1584 2216 1326 1975 
Q 1069 1734 1069 1313 
Q 1069 891 1326 650 
Q 1584 409 2034 409 
Q 2484 409 2743 651 
Q 3003 894 3003 1313 
Q 3003 1734 2745 1975 
Q 2488 2216 2034 2216 
z
M 1403 2484 
Q 997 2584 770 2862 
Q 544 3141 544 3541 
Q 544 4100 942 4425 
Q 1341 4750 2034 4750 
Q 2731 4750 3128 4425 
Q 3525 4100 3525 3541 
Q 3525 3141 3298 2862 
Q 3072 2584 2669 2484 
Q 3125 2378 3379 2068 
Q 3634 1759 3634 1313 
Q 3634 634 3220 271 
Q 2806 -91 2034 -91 
Q 1263 -91 848 271 
Q 434 634 434 1313 
Q 434 1759 690 2068 
Q 947 2378 1403 2484 
z
M 1172 3481 
Q 1172 3119 1398 2916 
Q 1625 2713 2034 2713 
Q 2441 2713 2670 2916 
Q 2900 3119 2900 3481 
Q 2900 3844 2670 4047 
Q 2441 4250 2034 4250 
Q 1625 4250 1398 4047 
Q 1172 3844 1172 3481 
z
" transform="scale(0.015625)"/>
       </defs>
       <use xlink:href="#DejaVuSans-30"/>
       <use xlink:href="#DejaVuSans-2e" x="63.623047"/>
       <use xlink:href="#DejaVuSans-38" x="95.410156"/>
      </g>
     </g>
    </g>
   </g>
   <g id="patch_3">
    <path d="M 45 128.16 
L 45 17.28 
" style="fill: none; stroke: #000000; stroke-width: 0.8; stroke-linejoin: miter; stroke-linecap: square"/>
   </g>
   <g id="patch_4">
    <path d="M 324 128.16 
L 324 17.28 
" style="fill: none; stroke: #000000; stroke-width: 0.8; stroke-linejoin: miter; stroke-linecap: square"/>
   </g>
   <g id="patch_5">
    <path d="M 45 128.16 
L 324 128.16 
" style="fill: none; stroke: #000000; stroke-width: 0.8; stroke-linejoin: miter; stroke-linecap: square"/>
   </g>
   <g id="patch_6">
    <path d="M 45 17.28 
L 324 17.28 
" style="fill: none; stroke: #000000; stroke-width: 0.8; stroke-linejoin: miter; stroke-linecap: square"/>
   </g>
   <g id="PathCollection_1">
    <defs>
     <path id="C0_0_c1d3c770e1" d="M 0 2.5 
C 0.663008 2.5 1.29895 2.236584 1.767767 1.767767 
C 2.236584 1.29895 2.5 0.663008 2.5 -0 
C 2.5 -0.663008 2.236584 -1.29895 1.767767 -1.767767 
C 1.29895 -2.236584 0.663008 -2.5 0 -2.5 
C -0.663008 -2.5 -1.29895 -2.236584 -1.767767 -1.767767 
C -2.236584 -1.29895 -2.5 -0.663008 -2.5 0 
C -2.5 0.663008 -2.236584 1.29895 -1.767767 1.767767 
C -1.29895 2.236584 -0.663008 2.5 0 2.5 
z
"/>
    </defs>
    <g clip-path="url(#p5fc7490263)">
     <use xlink:href="#C0_0_c1d3c770e1" x="114.75" y="80.314521" style="fill: #b22222"/>
    </g>
    <g clip-path="url(#p5fc7490263)">
     <use xlink:href="#C0_0_c1d3c770e1" x="117.689996" y="107.930959" style="fill: #b22222"/>
    </g>
    <g clip-path="url(#p5fc7490263)">
     <use xlink:href="#C0_0_c1d3c770e1" x="114.75" y="87.21863" style="fill: #b22222"/>
    </g>
    <g clip-path="url(#p5fc7490263)">
     <use xlink:href="#C0_0_c1d3c770e1" x="114.75" y="92.741918" style="fill: #b22222"/>
    </g>
    <g clip-path="url(#p5fc7490263)">
     <use xlink:href="#C0_0_c1d3c770e1" x="114.75" y="62.363836" style="fill: #b22222"/>
    </g>
    <g clip-path="url(#p5fc7490263)">
     <use xlink:href="#C0_0_c1d3c770e1" x="119.79583" y="121.739178" style="fill: #b22222"/>
    </g>
    <g clip-path="url(#p5fc7490263)">
     <use xlink:href="#C0_0_c1d3c770e1" x="114.75" y="112.073425" style="fill: #b22222"/>
    </g>
    <g clip-path="url(#p5fc7490263)">
     <use xlink:href="#C0_0_c1d3c770e1" x="114.75" y="123.12" style="fill: #b22222"/>
    </g>
    <g clip-path="url(#p5fc7490263)">
     <use xlink:href="#C0_0_c1d3c770e1" x="104.45417" y="121.739178" style="fill: #b22222"/>
    </g>
    <g clip-path="url(#p5fc7490263)">
     <use xlink:href="#C0_0_c1d3c770e1" x="109.5" y="123.12" style="fill: #b22222"/>
    </g>
    <g clip-path="url(#p5fc7490263)">
     <use xlink:href="#C0_0_c1d3c770e1" x="109.5" y="112.073425" style="fill: #b22222"/>
    </g>
    <g clip-path="url(#p5fc7490263)">
     <use xlink:href="#C0_0_c1d3c770e1" x="109.5" y="80.314521" style="fill: #b22222"/>
    </g>
    <g clip-path="url(#p5fc7490263)">
     <use xlink:href="#C0_0_c1d3c770e1" x="106.560004" y="107.930959" style="fill: #b22222"/>
    </g>
   </g>
   <g id="PathCollection_2">
    <defs>
     <path id="C1_0_fc4bfcfc5f" d="M 0 2.5 
C 0.663008 2.5 1.29895 2.236584 1.767767 1.767767 
C 2.236584 1.29895 2.5 0.663008 2.5 -0 
C 2.5 -0.663008 2.236584 -1.29895 1.767767 -1.767767 
C 1.29895 -2.236584 0.663008 -2.5 0 -2.5 
C -0.663008 -2.5 -1.29895 -2.236584 -1.767767 -1.767767 
C -2.236584 -1.29895 -2.5 -0.663008 -2.5 0 
C -2.5 0.663008 -2.236584 1.29895 -1.767767 1.767767 
C -1.29895 2.236584 -0.663008 2.5 0 2.5 
z
"/>
    </defs>
    <g clip-path="url(#p5fc7490263)">
     <use xlink:href="#C1_0_fc4bfcfc5f" x="254.25" y="38.889863" style="fill: #808080"/>
    </g>
    <g clip-path="url(#p5fc7490263)">
     <use xlink:href="#C1_0_fc4bfcfc5f" x="254.25" y="22.32" style="fill: #808080"/>
    </g>
    <g clip-path="url(#p5fc7490263)">
     <use xlink:href="#C1_0_fc4bfcfc5f" x="258.626538" y="59.602192" style="fill: #808080"/>
    </g>
    <g clip-path="url(#p5fc7490263)">
     <use xlink:href="#C1_0_fc4bfcfc5f" x="254.25" y="45.793973" style="fill: #808080"/>
    </g>
    <g clip-path="url(#p5fc7490263)">
     <use xlink:href="#C1_0_fc4bfcfc5f" x="254.25" y="87.21863" style="fill: #808080"/>
    </g>
    <g clip-path="url(#p5fc7490263)">
     <use xlink:href="#C1_0_fc4bfcfc5f" x="254.25" y="62.363836" style="fill: #808080"/>
    </g>
    <g clip-path="url(#p5fc7490263)">
     <use xlink:href="#C1_0_fc4bfcfc5f" x="254.25" y="92.741918" style="fill: #808080"/>
    </g>
    <g clip-path="url(#p5fc7490263)">
     <use xlink:href="#C1_0_fc4bfcfc5f" x="249" y="45.793973" style="fill: #808080"/>
    </g>
    <g clip-path="url(#p5fc7490263)">
     <use xlink:href="#C1_0_fc4bfcfc5f" x="249" y="22.32" style="fill: #808080"/>
    </g>
    <g clip-path="url(#p5fc7490263)">
     <use xlink:href="#C1_0_fc4bfcfc5f" x="249" y="38.889863" style="fill: #808080"/>
    </g>
    <g clip-path="url(#p5fc7490263)">
     <use xlink:href="#C1_0_fc4bfcfc5f" x="249.873462" y="59.602192" style="fill: #808080"/>
    </g>
   </g>
   <g id="text_7">
    <!-- LHX2 -->
    <g transform="translate(168.717187 11.28) scale(0.12 -0.12)">
     <defs>
      <path id="DejaVuSans-4c" d="M 628 4666 
L 1259 4666 
L 1259 531 
L 3531 531 
L 3531 0 
L 628 0 
L 628 4666 
z
" transform="scale(0.015625)"/>
      <path id="DejaVuSans-58" d="M 403 4666 
L 1081 4666 
L 2241 2931 
L 3406 4666 
L 4084 4666 
L 2584 2425 
L 4184 0 
L 3506 0 
L 2194 1984 
L 872 0 
L 191 0 
L 1856 2491 
L 403 4666 
z
" transform="scale(0.015625)"/>
     </defs>
     <use xlink:href="#DejaVuSans-4c"/>
     <use xlink:href="#DejaVuSans-48" x="55.712891"/>
     <use xlink:href="#DejaVuSans-58" x="130.908203"/>
     <use xlink:href="#DejaVuSans-32" x="199.414062"/>
    </g>
   </g>
  </g>
 </g>
 <defs>
  <clipPath id="p5fc7490263">
   <rect x="45" y="17.28" width="279" height="110.88"/>
  </clipPath>
 </defs>
</svg>
