<?xml version="1.0" encoding="utf-8" standalone="no"?>
<!DOCTYPE svg PUBLIC "-//W3C//DTD SVG 1.1//EN"
  "http://www.w3.org/Graphics/SVG/1.1/DTD/svg11.dtd">
<svg xmlns:xlink="http://www.w3.org/1999/xlink" width="360pt" height="144pt" viewBox="0 0 360 144" xmlns="http://www.w3.org/2000/svg" version="1.1">
 <metadata>
  <rdf:RDF xmlns:dc="http://purl.org/dc/elements/1.1/" xmlns:cc="http://creativecommons.org/ns#" xmlns:rdf="http://www.w3.org/1999/02/22-rdf-syntax-ns#">
   <cc:Work>
    <dc:type rdf:resource="http://purl.org/dc/dcmitype/StillImage"/>
    <dc:date>2025-07-30T10:02:46.432761</dc:date>
    <dc:format>image/svg+xml</dc:format>
    <dc:creator>
     <cc:Agent>
      <dc:title>Matplotlib v3.9.2, https://matplotlib.org/</dc:title>
     </cc:Agent>
    </dc:creator>
   </cc:Work>
  </rdf:RDF>
 </metadata>
 <defs>
  <style type="text/css">*{stroke-linejoin: round; stroke-linecap: butt}</style>
 </defs>
 <g id="figure_1">
  <g id="patch_1">
   <path d="M 0 144 
L 360 144 
L 360 0 
L 0 0 
z
" style="fill: #ffffff"/>
  </g>
  <g id="axes_1">
   <g id="patch_2">
    <path d="M 45 128.16 
L 324 128.16 
L 324 17.28 
L 45 17.28 
z
" style="fill: #ffffff"/>
   </g>
   <g id="PolyCollection_1">
    <defs>
     <path id="m797eb2d952" d="M 168.115101 -20.88 
L 61.384899 -20.88 
L 60.70419 -21.558788 
L 60.133494 -22.237576 
L 59.674326 -22.916364 
L 59.32725 -23.595152 
L 59.091881 -24.273939 
L 58.966885 -24.952727 
L 58.95 -25.631515 
L 59.038066 -26.310303 
L 59.227069 -26.989091 
L 59.512195 -27.667879 
L 59.887891 -28.346667 
L 60.347948 -29.025455 
L 60.885572 -29.704242 
L 61.493485 -30.38303 
L 62.16401 -31.061818 
L 62.889176 -31.740606 
L 63.660822 -32.419394 
L 64.470693 -33.098182 
L 65.310549 -33.77697 
L 66.172262 -34.455758 
L 67.047916 -35.134545 
L 67.929898 -35.813333 
L 68.810985 -36.492121 
L 69.684423 -37.170909 
L 70.544001 -37.849697 
L 71.384108 -38.528485 
L 72.199787 -39.207273 
L 72.98678 -39.886061 
L 73.741553 -40.564848 
L 74.461321 -41.243636 
L 75.144053 -41.922424 
L 75.788468 -42.601212 
L 76.394027 -43.28 
L 76.960905 -43.958788 
L 77.489957 -44.637576 
L 77.98268 -45.316364 
L 78.441155 -45.995152 
L 78.867997 -46.673939 
L 79.266284 -47.352727 
L 79.63949 -48.031515 
L 79.991412 -48.710303 
L 80.326095 -49.389091 
L 80.647751 -50.067879 
L 80.960684 -50.746667 
L 81.26921 -51.425455 
L 81.577586 -52.104242 
L 81.889936 -52.78303 
L 82.210181 -53.461818 
L 82.541984 -54.140606 
L 82.888685 -54.819394 
L 83.25326 -55.498182 
L 83.638273 -56.17697 
L 84.045845 -56.855758 
L 84.477627 -57.534545 
L 84.934786 -58.213333 
L 85.417991 -58.892121 
L 85.927419 -59.570909 
L 86.462759 -60.249697 
L 87.023228 -60.928485 
L 87.607599 -61.607273 
L 88.214226 -62.286061 
L 88.841084 -62.964848 
L 89.485811 -63.643636 
L 90.145751 -64.322424 
L 90.81801 -65.001212 
L 91.499502 -65.68 
L 92.187009 -66.358788 
L 92.877233 -67.037576 
L 93.566854 -67.716364 
L 94.252581 -68.395152 
L 94.931202 -69.073939 
L 95.599638 -69.752727 
L 96.254985 -70.431515 
L 96.894555 -71.110303 
L 97.515911 -71.789091 
L 98.116898 -72.467879 
L 98.69567 -73.146667 
L 99.250705 -73.825455 
L 99.78082 -74.504242 
L 100.285177 -75.18303 
L 100.763282 -75.861818 
L 101.214983 -76.540606 
L 101.640454 -77.219394 
L 102.040185 -77.898182 
L 102.414956 -78.57697 
L 102.765813 -79.255758 
L 103.094045 -79.934545 
L 103.401144 -80.613333 
L 103.688778 -81.292121 
L 103.958755 -81.970909 
L 104.212983 -82.649697 
L 104.45344 -83.328485 
L 104.682133 -84.007273 
L 104.901069 -84.686061 
L 105.112217 -85.364848 
L 105.31748 -86.043636 
L 105.518666 -86.722424 
L 105.717467 -87.401212 
L 105.91543 -88.08 
L 123.58457 -88.08 
L 123.58457 -88.08 
L 123.782533 -87.401212 
L 123.981334 -86.722424 
L 124.18252 -86.043636 
L 124.387783 -85.364848 
L 124.598931 -84.686061 
L 124.817867 -84.007273 
L 125.04656 -83.328485 
L 125.287017 -82.649697 
L 125.541245 -81.970909 
L 125.811222 -81.292121 
L 126.098856 -80.613333 
L 126.405955 -79.934545 
L 126.734187 -79.255758 
L 127.085044 -78.57697 
L 127.459815 -77.898182 
L 127.859546 -77.219394 
L 128.285017 -76.540606 
L 128.736718 -75.861818 
L 129.214823 -75.18303 
L 129.71918 -74.504242 
L 130.249295 -73.825455 
L 130.80433 -73.146667 
L 131.383102 -72.467879 
L 131.984089 -71.789091 
L 132.605445 -71.110303 
L 133.245015 -70.431515 
L 133.900362 -69.752727 
L 134.568798 -69.073939 
L 135.247419 -68.395152 
L 135.933146 -67.716364 
L 136.622767 -67.037576 
L 137.312991 -66.358788 
L 138.000498 -65.68 
L 138.68199 -65.001212 
L 139.354249 -64.322424 
L 140.014189 -63.643636 
L 140.658916 -62.964848 
L 141.285774 -62.286061 
L 141.892401 -61.607273 
L 142.476772 -60.928485 
L 143.037241 -60.249697 
L 143.572581 -59.570909 
L 144.082009 -58.892121 
L 144.565214 -58.213333 
L 145.022373 -57.534545 
L 145.454155 -56.855758 
L 145.861727 -56.17697 
L 146.24674 -55.498182 
L 146.611315 -54.819394 
L 146.958016 -54.140606 
L 147.289819 -53.461818 
L 147.610064 -52.78303 
L 147.922414 -52.104242 
L 148.23079 -51.425455 
L 148.539316 -50.746667 
L 148.852249 -50.067879 
L 149.173905 -49.389091 
L 149.508588 -48.710303 
L 149.86051 -48.031515 
L 150.233716 -47.352727 
L 150.632003 -46.673939 
L 151.058845 -45.995152 
L 151.51732 -45.316364 
L 152.010043 -44.637576 
L 152.539095 -43.958788 
L 153.105973 -43.28 
L 153.711532 -42.601212 
L 154.355947 -41.922424 
L 155.038679 -41.243636 
L 155.758447 -40.564848 
L 156.51322 -39.886061 
L 157.300213 -39.207273 
L 158.115892 -38.528485 
L 158.955999 -37.849697 
L 159.815577 -37.170909 
L 160.689015 -36.492121 
L 161.570102 -35.813333 
L 162.452084 -35.134545 
L 163.327738 -34.455758 
L 164.189451 -33.77697 
L 165.029307 -33.098182 
L 165.839178 -32.419394 
L 166.610824 -31.740606 
L 167.33599 -31.061818 
L 168.006515 -30.38303 
L 168.614428 -29.704242 
L 169.152052 -29.025455 
L 169.612109 -28.346667 
L 169.987805 -27.667879 
L 170.272931 -26.989091 
L 170.461934 -26.310303 
L 170.55 -25.631515 
L 170.533115 -24.952727 
L 170.408119 -24.273939 
L 170.17275 -23.595152 
L 169.825674 -22.916364 
L 169.366506 -22.237576 
L 168.79581 -21.558788 
L 168.115101 -20.88 
z
" style="stroke: #6e6e6e; stroke-width: 0.2"/>
    </defs>
    <g clip-path="url(#pfc1b5d81a1)">
     <use xlink:href="#m797eb2d952" x="0" y="144" style="fill: #e28e8e; stroke: #6e6e6e; stroke-width: 0.2"/>
    </g>
   </g>
   <g id="PolyCollection_2">
    <defs>
     <path id="mb7add2fa7e" d="M 268.123438 -48.88 
L 240.376562 -48.88 
L 239.927423 -49.615354 
L 239.478991 -50.350707 
L 239.030449 -51.086061 
L 238.580805 -51.821414 
L 238.128911 -52.556768 
L 237.673474 -53.292121 
L 237.213083 -54.027475 
L 236.746223 -54.762828 
L 236.27131 -55.498182 
L 235.786703 -56.233535 
L 235.290742 -56.968889 
L 234.781766 -57.704242 
L 234.258142 -58.439596 
L 233.718289 -59.174949 
L 233.160706 -59.910303 
L 232.58399 -60.645657 
L 231.986858 -61.38101 
L 231.368173 -62.116364 
L 230.726951 -62.851717 
L 230.062388 -63.587071 
L 229.373865 -64.322424 
L 228.66096 -65.057778 
L 227.923463 -65.793131 
L 227.161376 -66.528485 
L 226.374921 -67.263838 
L 225.564544 -67.999192 
L 224.730913 -68.734545 
L 223.87492 -69.469899 
L 222.997675 -70.205253 
L 222.100507 -70.940606 
L 221.184957 -71.67596 
L 220.252767 -72.411313 
L 219.30588 -73.146667 
L 218.346425 -73.88202 
L 217.37671 -74.617374 
L 216.399213 -75.352727 
L 215.416566 -76.088081 
L 214.431545 -76.823434 
L 213.447062 -77.558788 
L 212.466143 -78.294141 
L 211.491923 -79.029495 
L 210.527625 -79.764848 
L 209.576551 -80.500202 
L 208.642064 -81.235556 
L 207.727576 -81.970909 
L 206.836531 -82.706263 
L 205.972389 -83.441616 
L 205.138616 -84.17697 
L 204.338663 -84.912323 
L 203.57595 -85.647677 
L 202.853856 -86.38303 
L 202.175697 -87.118384 
L 201.544711 -87.853737 
L 200.964042 -88.589091 
L 200.436721 -89.324444 
L 199.965646 -90.059798 
L 199.553567 -90.795152 
L 199.203063 -91.530505 
L 198.916524 -92.265859 
L 198.696128 -93.001212 
L 198.543823 -93.736566 
L 198.461306 -94.471919 
L 198.45 -95.207273 
L 198.511037 -95.942626 
L 198.645237 -96.67798 
L 198.853092 -97.413333 
L 199.134748 -98.148687 
L 199.489996 -98.88404 
L 199.918256 -99.619394 
L 200.418575 -100.354747 
L 200.98962 -101.090101 
L 201.629679 -101.825455 
L 202.33667 -102.560808 
L 203.108146 -103.296162 
L 203.941312 -104.031515 
L 204.833044 -104.766869 
L 205.779913 -105.502222 
L 206.778214 -106.237576 
L 207.823997 -106.972929 
L 208.913105 -107.708283 
L 210.041213 -108.443636 
L 211.203865 -109.17899 
L 212.396525 -109.914343 
L 213.614611 -110.649697 
L 214.853545 -111.385051 
L 216.108793 -112.120404 
L 217.375904 -112.855758 
L 218.65055 -113.591111 
L 219.928558 -114.326465 
L 221.205942 -115.061818 
L 222.47893 -115.797172 
L 223.74398 -116.532525 
L 224.997804 -117.267879 
L 226.237374 -118.003232 
L 227.459928 -118.738586 
L 228.662976 -119.473939 
L 229.844293 -120.209293 
L 231.001913 -120.944646 
L 232.134121 -121.68 
L 276.365879 -121.68 
L 276.365879 -121.68 
L 277.498087 -120.944646 
L 278.655707 -120.209293 
L 279.837024 -119.473939 
L 281.040072 -118.738586 
L 282.262626 -118.003232 
L 283.502196 -117.267879 
L 284.75602 -116.532525 
L 286.02107 -115.797172 
L 287.294058 -115.061818 
L 288.571442 -114.326465 
L 289.84945 -113.591111 
L 291.124096 -112.855758 
L 292.391207 -112.120404 
L 293.646455 -111.385051 
L 294.885389 -110.649697 
L 296.103475 -109.914343 
L 297.296135 -109.17899 
L 298.458787 -108.443636 
L 299.586895 -107.708283 
L 300.676003 -106.972929 
L 301.721786 -106.237576 
L 302.720087 -105.502222 
L 303.666956 -104.766869 
L 304.558688 -104.031515 
L 305.391854 -103.296162 
L 306.16333 -102.560808 
L 306.870321 -101.825455 
L 307.51038 -101.090101 
L 308.081425 -100.354747 
L 308.581744 -99.619394 
L 309.010004 -98.88404 
L 309.365252 -98.148687 
L 309.646908 -97.413333 
L 309.854763 -96.67798 
L 309.988963 -95.942626 
L 310.05 -95.207273 
L 310.038694 -94.471919 
L 309.956177 -93.736566 
L 309.803872 -93.001212 
L 309.583476 -92.265859 
L 309.296937 -91.530505 
L 308.946433 -90.795152 
L 308.534354 -90.059798 
L 308.063279 -89.324444 
L 307.535958 -88.589091 
L 306.955289 -87.853737 
L 306.324303 -87.118384 
L 305.646144 -86.38303 
L 304.92405 -85.647677 
L 304.161337 -84.912323 
L 303.361384 -84.17697 
L 302.527611 -83.441616 
L 301.663469 -82.706263 
L 300.772424 -81.970909 
L 299.857936 -81.235556 
L 298.923449 -80.500202 
L 297.972375 -79.764848 
L 297.008077 -79.029495 
L 296.033857 -78.294141 
L 295.052938 -77.558788 
L 294.068455 -76.823434 
L 293.083434 -76.088081 
L 292.100787 -75.352727 
L 291.12329 -74.617374 
L 290.153575 -73.88202 
L 289.19412 -73.146667 
L 288.247233 -72.411313 
L 287.315043 -71.67596 
L 286.399493 -70.940606 
L 285.502325 -70.205253 
L 284.62508 -69.469899 
L 283.769087 -68.734545 
L 282.935456 -67.999192 
L 282.125079 -67.263838 
L 281.338624 -66.528485 
L 280.576537 -65.793131 
L 279.83904 -65.057778 
L 279.126135 -64.322424 
L 278.437612 -63.587071 
L 277.773049 -62.851717 
L 277.131827 -62.116364 
L 276.513142 -61.38101 
L 275.91601 -60.645657 
L 275.339294 -59.910303 
L 274.781711 -59.174949 
L 274.241858 -58.439596 
L 273.718234 -57.704242 
L 273.209258 -56.968889 
L 272.713297 -56.233535 
L 272.22869 -55.498182 
L 271.753777 -54.762828 
L 271.286917 -54.027475 
L 270.826526 -53.292121 
L 270.371089 -52.556768 
L 269.919195 -51.821414 
L 269.469551 -51.086061 
L 269.021009 -50.350707 
L 268.572577 -49.615354 
L 268.123438 -48.88 
z
" style="stroke: #6e6e6e; stroke-width: 0.2"/>
    </defs>
    <g clip-path="url(#pfc1b5d81a1)">
     <use xlink:href="#mb7add2fa7e" x="0" y="144" style="fill: #f5f5f5; stroke: #6e6e6e; stroke-width: 0.2"/>
    </g>
   </g>
   <g id="matplotlib.axis_1">
    <g id="xtick_1">
     <g id="line2d_1">
      <defs>
       <path id="m80e08487af" d="M 0 0 
L 0 3.5 
" style="stroke: #000000; stroke-width: 0.8"/>
      </defs>
      <g>
       <use xlink:href="#m80e08487af" x="114.75" y="128.16" style="stroke: #000000; stroke-width: 0.8"/>
      </g>
     </g>
     <g id="text_1">
      <!-- HD∆C -->
      <g transform="translate(100.303906 142.758438) scale(0.1 -0.1)">
       <defs>
        <path id="DejaVuSans-48" d="M 628 4666 
L 1259 4666 
L 1259 2753 
L 3553 2753 
L 3553 4666 
L 4184 4666 
L 4184 0 
L 3553 0 
L 3553 2222 
L 1259 2222 
L 1259 0 
L 628 0 
L 628 4666 
z
" transform="scale(0.015625)"/>
        <path id="DejaVuSans-44" d="M 1259 4147 
L 1259 519 
L 2022 519 
Q 2988 519 3436 956 
Q 3884 1394 3884 2338 
Q 3884 3275 3436 3711 
Q 2988 4147 2022 4147 
L 1259 4147 
z
M 628 4666 
L 1925 4666 
Q 3281 4666 3915 4102 
Q 4550 3538 4550 2338 
Q 4550 1131 3912 565 
Q 3275 0 1925 0 
L 628 0 
L 628 4666 
z
" transform="scale(0.015625)"/>
        <path id="DejaVuSans-2206" d="M 2138 3944 
L 831 556 
L 3444 556 
L 2138 3944 
z
M 1791 4603 
L 2491 4603 
L 4300 0 
L -19 0 
L 1791 4603 
z
" transform="scale(0.015625)"/>
        <path id="DejaVuSans-43" d="M 4122 4306 
L 4122 3641 
Q 3803 3938 3442 4084 
Q 3081 4231 2675 4231 
Q 1875 4231 1450 3742 
Q 1025 3253 1025 2328 
Q 1025 1406 1450 917 
Q 1875 428 2675 428 
Q 3081 428 3442 575 
Q 3803 722 4122 1019 
L 4122 359 
Q 3791 134 3420 21 
Q 3050 -91 2638 -91 
Q 1578 -91 968 557 
Q 359 1206 359 2328 
Q 359 3453 968 4101 
Q 1578 4750 2638 4750 
Q 3056 4750 3426 4639 
Q 3797 4528 4122 4306 
z
" transform="scale(0.015625)"/>
       </defs>
       <use xlink:href="#DejaVuSans-48"/>
       <use xlink:href="#DejaVuSans-44" x="75.195312"/>
       <use xlink:href="#DejaVuSans-2206" x="152.197266"/>
       <use xlink:href="#DejaVuSans-43" x="219.091797"/>
      </g>
     </g>
    </g>
    <g id="xtick_2">
     <g id="line2d_2">
      <g>
       <use xlink:href="#m80e08487af" x="254.25" y="128.16" style="stroke: #000000; stroke-width: 0.8"/>
      </g>
     </g>
     <g id="text_2">
      <!-- None -->
      <g transform="translate(241.204688 142.758438) scale(0.1 -0.1)">
       <defs>
        <path id="DejaVuSans-4e" d="M 628 4666 
L 1478 4666 
L 3547 763 
L 3547 4666 
L 4159 4666 
L 4159 0 
L 3309 0 
L 1241 3903 
L 1241 0 
L 628 0 
L 628 4666 
z
" transform="scale(0.015625)"/>
        <path id="DejaVuSans-6f" d="M 1959 3097 
Q 1497 3097 1228 2736 
Q 959 2375 959 1747 
Q 959 1119 1226 758 
Q 1494 397 1959 397 
Q 2419 397 2687 759 
Q 2956 1122 2956 1747 
Q 2956 2369 2687 2733 
Q 2419 3097 1959 3097 
z
M 1959 3584 
Q 2709 3584 3137 3096 
Q 3566 2609 3566 1747 
Q 3566 888 3137 398 
Q 2709 -91 1959 -91 
Q 1206 -91 779 398 
Q 353 888 353 1747 
Q 353 2609 779 3096 
Q 1206 3584 1959 3584 
z
" transform="scale(0.015625)"/>
        <path id="DejaVuSans-6e" d="M 3513 2113 
L 3513 0 
L 2938 0 
L 2938 2094 
Q 2938 2591 2744 2837 
Q 2550 3084 2163 3084 
Q 1697 3084 1428 2787 
Q 1159 2491 1159 1978 
L 1159 0 
L 581 0 
L 581 3500 
L 1159 3500 
L 1159 2956 
Q 1366 3272 1645 3428 
Q 1925 3584 2291 3584 
Q 2894 3584 3203 3211 
Q 3513 2838 3513 2113 
z
" transform="scale(0.015625)"/>
        <path id="DejaVuSans-65" d="M 3597 1894 
L 3597 1613 
L 953 1613 
Q 991 1019 1311 708 
Q 1631 397 2203 397 
Q 2534 397 2845 478 
Q 3156 559 3463 722 
L 3463 178 
Q 3153 47 2828 -22 
Q 2503 -91 2169 -91 
Q 1331 -91 842 396 
Q 353 884 353 1716 
Q 353 2575 817 3079 
Q 1281 3584 2069 3584 
Q 2775 3584 3186 3129 
Q 3597 2675 3597 1894 
z
M 3022 2063 
Q 3016 2534 2758 2815 
Q 2500 3097 2075 3097 
Q 1594 3097 1305 2825 
Q 1016 2553 972 2059 
L 3022 2063 
z
" transform="scale(0.015625)"/>
       </defs>
       <use xlink:href="#DejaVuSans-4e"/>
       <use xlink:href="#DejaVuSans-6f" x="74.804688"/>
       <use xlink:href="#DejaVuSans-6e" x="135.986328"/>
       <use xlink:href="#DejaVuSans-65" x="199.365234"/>
      </g>
     </g>
    </g>
   </g>
   <g id="matplotlib.axis_2">
    <g id="ytick_1">
     <g id="line2d_3">
      <defs>
       <path id="md54ace9d24" d="M 0 0 
L -3.5 0 
" style="stroke: #000000; stroke-width: 0.8"/>
      </defs>
      <g>
       <use xlink:href="#md54ace9d24" x="45" y="106.32" style="stroke: #000000; stroke-width: 0.8"/>
      </g>
     </g>
     <g id="text_3">
      <!-- 0.85 -->
      <g transform="translate(15.734375 110.119219) scale(0.1 -0.1)">
       <defs>
        <path id="DejaVuSans-30" d="M 2034 4250 
Q 1547 4250 1301 3770 
Q 1056 3291 1056 2328 
Q 1056 1369 1301 889 
Q 1547 409 2034 409 
Q 2525 409 2770 889 
Q 3016 1369 3016 2328 
Q 3016 3291 2770 3770 
Q 2525 4250 2034 4250 
z
M 2034 4750 
Q 2819 4750 3233 4129 
Q 3647 3509 3647 2328 
Q 3647 1150 3233 529 
Q 2819 -91 2034 -91 
Q 1250 -91 836 529 
Q 422 1150 422 2328 
Q 422 3509 836 4129 
Q 1250 4750 2034 4750 
z
" transform="scale(0.015625)"/>
        <path id="DejaVuSans-2e" d="M 684 794 
L 1344 794 
L 1344 0 
L 684 0 
L 684 794 
z
" transform="scale(0.015625)"/>
        <path id="DejaVuSans-38" d="M 2034 2216 
Q 1584 2216 1326 1975 
Q 1069 1734 1069 1313 
Q 1069 891 1326 650 
Q 1584 409 2034 409 
Q 2484 409 2743 651 
Q 3003 894 3003 1313 
Q 3003 1734 2745 1975 
Q 2488 2216 2034 2216 
z
M 1403 2484 
Q 997 2584 770 2862 
Q 544 3141 544 3541 
Q 544 4100 942 4425 
Q 1341 4750 2034 4750 
Q 2731 4750 3128 4425 
Q 3525 4100 3525 3541 
Q 3525 3141 3298 2862 
Q 3072 2584 2669 2484 
Q 3125 2378 3379 2068 
Q 3634 1759 3634 1313 
Q 3634 634 3220 271 
Q 2806 -91 2034 -91 
Q 1263 -91 848 271 
Q 434 634 434 1313 
Q 434 1759 690 2068 
Q 947 2378 1403 2484 
z
M 1172 3481 
Q 1172 3119 1398 2916 
Q 1625 2713 2034 2713 
Q 2441 2713 2670 2916 
Q 2900 3119 2900 3481 
Q 2900 3844 2670 4047 
Q 2441 4250 2034 4250 
Q 1625 4250 1398 4047 
Q 1172 3844 1172 3481 
z
" transform="scale(0.015625)"/>
        <path id="DejaVuSans-35" d="M 691 4666 
L 3169 4666 
L 3169 4134 
L 1269 4134 
L 1269 2991 
Q 1406 3038 1543 3061 
Q 1681 3084 1819 3084 
Q 2600 3084 3056 2656 
Q 3513 2228 3513 1497 
Q 3513 744 3044 326 
Q 2575 -91 1722 -91 
Q 1428 -91 1123 -41 
Q 819 9 494 109 
L 494 744 
Q 775 591 1075 516 
Q 1375 441 1709 441 
Q 2250 441 2565 725 
Q 2881 1009 2881 1497 
Q 2881 1984 2565 2268 
Q 2250 2553 1709 2553 
Q 1456 2553 1204 2497 
Q 953 2441 691 2322 
L 691 4666 
z
" transform="scale(0.015625)"/>
       </defs>
       <use xlink:href="#DejaVuSans-30"/>
       <use xlink:href="#DejaVuSans-2e" x="63.623047"/>
       <use xlink:href="#DejaVuSans-38" x="95.410156"/>
       <use xlink:href="#DejaVuSans-35" x="159.033203"/>
      </g>
     </g>
    </g>
    <g id="ytick_2">
     <g id="line2d_4">
      <g>
       <use xlink:href="#md54ace9d24" x="45" y="78.32" style="stroke: #000000; stroke-width: 0.8"/>
      </g>
     </g>
     <g id="text_4">
      <!-- 0.90 -->
      <g transform="translate(15.734375 82.119219) scale(0.1 -0.1)">
       <defs>
        <path id="DejaVuSans-39" d="M 703 97 
L 703 672 
Q 941 559 1184 500 
Q 1428 441 1663 441 
Q 2288 441 2617 861 
Q 2947 1281 2994 2138 
Q 2813 1869 2534 1725 
Q 2256 1581 1919 1581 
Q 1219 1581 811 2004 
Q 403 2428 403 3163 
Q 403 3881 828 4315 
Q 1253 4750 1959 4750 
Q 2769 4750 3195 4129 
Q 3622 3509 3622 2328 
Q 3622 1225 3098 567 
Q 2575 -91 1691 -91 
Q 1453 -91 1209 -44 
Q 966 3 703 97 
z
M 1959 2075 
Q 2384 2075 2632 2365 
Q 2881 2656 2881 3163 
Q 2881 3666 2632 3958 
Q 2384 4250 1959 4250 
Q 1534 4250 1286 3958 
Q 1038 3666 1038 3163 
Q 1038 2656 1286 2365 
Q 1534 2075 1959 2075 
z
" transform="scale(0.015625)"/>
       </defs>
       <use xlink:href="#DejaVuSans-30"/>
       <use xlink:href="#DejaVuSans-2e" x="63.623047"/>
       <use xlink:href="#DejaVuSans-39" x="95.410156"/>
       <use xlink:href="#DejaVuSans-30" x="159.033203"/>
      </g>
     </g>
    </g>
    <g id="ytick_3">
     <g id="line2d_5">
      <g>
       <use xlink:href="#md54ace9d24" x="45" y="50.32" style="stroke: #000000; stroke-width: 0.8"/>
      </g>
     </g>
     <g id="text_5">
      <!-- 0.95 -->
      <g transform="translate(15.734375 54.119219) scale(0.1 -0.1)">
       <use xlink:href="#DejaVuSans-30"/>
       <use xlink:href="#DejaVuSans-2e" x="63.623047"/>
       <use xlink:href="#DejaVuSans-39" x="95.410156"/>
       <use xlink:href="#DejaVuSans-35" x="159.033203"/>
      </g>
     </g>
    </g>
    <g id="ytick_4">
     <g id="line2d_6">
      <g>
       <use xlink:href="#md54ace9d24" x="45" y="22.32" style="stroke: #000000; stroke-width: 0.8"/>
      </g>
     </g>
     <g id="text_6">
      <!-- 1.00 -->
      <g transform="translate(15.734375 26.119219) scale(0.1 -0.1)">
       <defs>
        <path id="DejaVuSans-31" d="M 794 531 
L 1825 531 
L 1825 4091 
L 703 3866 
L 703 4441 
L 1819 4666 
L 2450 4666 
L 2450 531 
L 3481 531 
L 3481 0 
L 794 0 
L 794 531 
z
" transform="scale(0.015625)"/>
       </defs>
       <use xlink:href="#DejaVuSans-31"/>
       <use xlink:href="#DejaVuSans-2e" x="63.623047"/>
       <use xlink:href="#DejaVuSans-30" x="95.410156"/>
       <use xlink:href="#DejaVuSans-30" x="159.033203"/>
      </g>
     </g>
    </g>
   </g>
   <g id="patch_3">
    <path d="M 45 128.16 
L 45 17.28 
" style="fill: none; stroke: #000000; stroke-width: 0.8; stroke-linejoin: miter; stroke-linecap: square"/>
   </g>
   <g id="patch_4">
    <path d="M 324 128.16 
L 324 17.28 
" style="fill: none; stroke: #000000; stroke-width: 0.8; stroke-linejoin: miter; stroke-linecap: square"/>
   </g>
   <g id="patch_5">
    <path d="M 45 128.16 
L 324 128.16 
" style="fill: none; stroke: #000000; stroke-width: 0.8; stroke-linejoin: miter; stroke-linecap: square"/>
   </g>
   <g id="patch_6">
    <path d="M 45 17.28 
L 324 17.28 
" style="fill: none; stroke: #000000; stroke-width: 0.8; stroke-linejoin: miter; stroke-linecap: square"/>
   </g>
   <g id="PathCollection_1">
    <defs>
     <path id="C0_0_5c088ace68" d="M 0 2.5 
C 0.663008 2.5 1.29895 2.236584 1.767767 1.767767 
C 2.236584 1.29895 2.5 0.663008 2.5 -0 
C 2.5 -0.663008 2.236584 -1.29895 1.767767 -1.767767 
C 1.29895 -2.236584 0.663008 -2.5 0 -2.5 
C -0.663008 -2.5 -1.29895 -2.236584 -1.767767 -1.767767 
C -2.236584 -1.29895 -2.5 -0.663008 -2.5 0 
C -2.5 0.663008 -2.236584 1.29895 -1.767767 1.767767 
C -1.29895 2.236584 -0.663008 2.5 0 2.5 
z
"/>
    </defs>
    <g clip-path="url(#pfc1b5d81a1)">
     <use xlink:href="#C0_0_5c088ace68" x="114.75" y="83.92" style="fill: #b22222"/>
    </g>
    <g clip-path="url(#pfc1b5d81a1)">
     <use xlink:href="#C0_0_5c088ace68" x="114.75" y="111.92" style="fill: #b22222"/>
    </g>
    <g clip-path="url(#pfc1b5d81a1)">
     <use xlink:href="#C0_0_5c088ace68" x="109.5" y="83.92" style="fill: #b22222"/>
    </g>
    <g clip-path="url(#pfc1b5d81a1)">
     <use xlink:href="#C0_0_5c088ace68" x="114.75" y="95.12" style="fill: #b22222"/>
    </g>
    <g clip-path="url(#pfc1b5d81a1)">
     <use xlink:href="#C0_0_5c088ace68" x="114.75" y="55.92" style="fill: #b22222"/>
    </g>
    <g clip-path="url(#pfc1b5d81a1)">
     <use xlink:href="#C0_0_5c088ace68" x="114.75" y="123.12" style="fill: #b22222"/>
    </g>
    <g clip-path="url(#pfc1b5d81a1)">
     <use xlink:href="#C0_0_5c088ace68" x="109.5" y="111.92" style="fill: #b22222"/>
    </g>
    <g clip-path="url(#pfc1b5d81a1)">
     <use xlink:href="#C0_0_5c088ace68" x="109.5" y="123.12" style="fill: #b22222"/>
    </g>
    <g clip-path="url(#pfc1b5d81a1)">
     <use xlink:href="#C0_0_5c088ace68" x="120" y="123.12" style="fill: #b22222"/>
    </g>
    <g clip-path="url(#pfc1b5d81a1)">
     <use xlink:href="#C0_0_5c088ace68" x="104.25" y="123.12" style="fill: #b22222"/>
    </g>
    <g clip-path="url(#pfc1b5d81a1)">
     <use xlink:href="#C0_0_5c088ace68" x="125.25" y="123.12" style="fill: #b22222"/>
    </g>
    <g clip-path="url(#pfc1b5d81a1)">
     <use xlink:href="#C0_0_5c088ace68" x="114.75" y="89.52" style="fill: #b22222"/>
    </g>
    <g clip-path="url(#pfc1b5d81a1)">
     <use xlink:href="#C0_0_5c088ace68" x="114.75" y="117.52" style="fill: #b22222"/>
    </g>
   </g>
   <g id="PathCollection_2">
    <defs>
     <path id="C1_0_0d37944e59" d="M 0 2.5 
C 0.663008 2.5 1.29895 2.236584 1.767767 1.767767 
C 2.236584 1.29895 2.5 0.663008 2.5 -0 
C 2.5 -0.663008 2.236584 -1.29895 1.767767 -1.767767 
C 1.29895 -2.236584 0.663008 -2.5 0 -2.5 
C -0.663008 -2.5 -1.29895 -2.236584 -1.767767 -1.767767 
C -2.236584 -1.29895 -2.5 -0.663008 -2.5 0 
C -2.5 0.663008 -2.236584 1.29895 -1.767767 1.767767 
C -1.29895 2.236584 -0.663008 2.5 0 2.5 
z
"/>
    </defs>
    <g clip-path="url(#pfc1b5d81a1)">
     <use xlink:href="#C1_0_0d37944e59" x="254.25" y="61.52" style="fill: #808080"/>
    </g>
    <g clip-path="url(#pfc1b5d81a1)">
     <use xlink:href="#C1_0_0d37944e59" x="254.25" y="50.32" style="fill: #808080"/>
    </g>
    <g clip-path="url(#pfc1b5d81a1)">
     <use xlink:href="#C1_0_0d37944e59" x="254.25" y="55.92" style="fill: #808080"/>
    </g>
    <g clip-path="url(#pfc1b5d81a1)">
     <use xlink:href="#C1_0_0d37944e59" x="254.25" y="39.12" style="fill: #808080"/>
    </g>
    <g clip-path="url(#pfc1b5d81a1)">
     <use xlink:href="#C1_0_0d37944e59" x="254.25" y="95.12" style="fill: #808080"/>
    </g>
    <g clip-path="url(#pfc1b5d81a1)">
     <use xlink:href="#C1_0_0d37944e59" x="254.25" y="67.12" style="fill: #808080"/>
    </g>
    <g clip-path="url(#pfc1b5d81a1)">
     <use xlink:href="#C1_0_0d37944e59" x="254.25" y="78.32" style="fill: #808080"/>
    </g>
    <g clip-path="url(#pfc1b5d81a1)">
     <use xlink:href="#C1_0_0d37944e59" x="249" y="50.32" style="fill: #808080"/>
    </g>
    <g clip-path="url(#pfc1b5d81a1)">
     <use xlink:href="#C1_0_0d37944e59" x="254.25" y="22.32" style="fill: #808080"/>
    </g>
    <g clip-path="url(#pfc1b5d81a1)">
     <use xlink:href="#C1_0_0d37944e59" x="249" y="39.12" style="fill: #808080"/>
    </g>
    <g clip-path="url(#pfc1b5d81a1)">
     <use xlink:href="#C1_0_0d37944e59" x="259.5" y="39.12" style="fill: #808080"/>
    </g>
   </g>
   <g id="text_7">
    <!-- LHX2 -->
    <g transform="translate(168.717187 11.28) scale(0.12 -0.12)">
     <defs>
      <path id="DejaVuSans-4c" d="M 628 4666 
L 1259 4666 
L 1259 531 
L 3531 531 
L 3531 0 
L 628 0 
L 628 4666 
z
" transform="scale(0.015625)"/>
      <path id="DejaVuSans-58" d="M 403 4666 
L 1081 4666 
L 2241 2931 
L 3406 4666 
L 4084 4666 
L 2584 2425 
L 4184 0 
L 3506 0 
L 2194 1984 
L 872 0 
L 191 0 
L 1856 2491 
L 403 4666 
z
" transform="scale(0.015625)"/>
      <path id="DejaVuSans-32" d="M 1228 531 
L 3431 531 
L 3431 0 
L 469 0 
L 469 531 
Q 828 903 1448 1529 
Q 2069 2156 2228 2338 
Q 2531 2678 2651 2914 
Q 2772 3150 2772 3378 
Q 2772 3750 2511 3984 
Q 2250 4219 1831 4219 
Q 1534 4219 1204 4116 
Q 875 4013 500 3803 
L 500 4441 
Q 881 4594 1212 4672 
Q 1544 4750 1819 4750 
Q 2544 4750 2975 4387 
Q 3406 4025 3406 3419 
Q 3406 3131 3298 2873 
Q 3191 2616 2906 2266 
Q 2828 2175 2409 1742 
Q 1991 1309 1228 531 
z
" transform="scale(0.015625)"/>
     </defs>
     <use xlink:href="#DejaVuSans-4c"/>
     <use xlink:href="#DejaVuSans-48" x="55.712891"/>
     <use xlink:href="#DejaVuSans-58" x="130.908203"/>
     <use xlink:href="#DejaVuSans-32" x="199.414062"/>
    </g>
   </g>
  </g>
 </g>
 <defs>
  <clipPath id="pfc1b5d81a1">
   <rect x="45" y="17.28" width="279" height="110.88"/>
  </clipPath>
 </defs>
</svg>
