<?xml version="1.0" encoding="utf-8" standalone="no"?>
<!DOCTYPE svg PUBLIC "-//W3C//DTD SVG 1.1//EN"
  "http://www.w3.org/Graphics/SVG/1.1/DTD/svg11.dtd">
<svg xmlns:xlink="http://www.w3.org/1999/xlink" width="360pt" height="144pt" viewBox="0 0 360 144" xmlns="http://www.w3.org/2000/svg" version="1.1">
 <metadata>
  <rdf:RDF xmlns:dc="http://purl.org/dc/elements/1.1/" xmlns:cc="http://creativecommons.org/ns#" xmlns:rdf="http://www.w3.org/1999/02/22-rdf-syntax-ns#">
   <cc:Work>
    <dc:type rdf:resource="http://purl.org/dc/dcmitype/StillImage"/>
    <dc:date>2025-07-29T15:18:08.699102</dc:date>
    <dc:format>image/svg+xml</dc:format>
    <dc:creator>
     <cc:Agent>
      <dc:title>Matplotlib v3.9.2, https://matplotlib.org/</dc:title>
     </cc:Agent>
    </dc:creator>
   </cc:Work>
  </rdf:RDF>
 </metadata>
 <defs>
  <style type="text/css">*{stroke-linejoin: round; stroke-linecap: butt}</style>
 </defs>
 <g id="figure_1">
  <g id="patch_1">
   <path d="M 0 144 
L 360 144 
L 360 0 
L 0 0 
z
" style="fill: #ffffff"/>
  </g>
  <g id="axes_1">
   <g id="patch_2">
    <path d="M 45 128.16 
L 324 128.16 
L 324 17.28 
L 45 17.28 
z
" style="fill: #ffffff"/>
   </g>
   <g id="PolyCollection_1">
    <defs>
     <path id="m97a66eb8b2" d="M 168.973247 -20.88 
L 60.526753 -20.88 
L 60.03217 -21.45697 
L 59.6315 -22.033939 
L 59.324338 -22.610909 
L 59.109611 -23.187879 
L 58.985603 -23.764848 
L 58.95 -24.341818 
L 58.999932 -24.918788 
L 59.132028 -25.495758 
L 59.342475 -26.072727 
L 59.627084 -26.649697 
L 59.981356 -27.226667 
L 60.400553 -27.803636 
L 60.879773 -28.380606 
L 61.414016 -28.957576 
L 61.998258 -29.534545 
L 62.627517 -30.111515 
L 63.296919 -30.688485 
L 64.001749 -31.265455 
L 64.737512 -31.842424 
L 65.499974 -32.419394 
L 66.285199 -32.996364 
L 67.089583 -33.573333 
L 67.909876 -34.150303 
L 68.74319 -34.727273 
L 69.587015 -35.304242 
L 70.439206 -35.881212 
L 71.297982 -36.458182 
L 72.161904 -37.035152 
L 73.029855 -37.612121 
L 73.901007 -38.189091 
L 74.774795 -38.766061 
L 75.650871 -39.34303 
L 76.529072 -39.92 
L 77.409375 -40.49697 
L 78.291852 -41.073939 
L 79.176634 -41.650909 
L 80.063864 -42.227879 
L 80.953663 -42.804848 
L 81.846089 -43.381818 
L 82.741108 -43.958788 
L 83.638566 -44.535758 
L 84.538159 -45.112727 
L 85.439422 -45.689697 
L 86.341707 -46.266667 
L 87.24418 -46.843636 
L 88.145814 -47.420606 
L 89.045392 -47.997576 
L 89.941511 -48.574545 
L 90.832595 -49.151515 
L 91.716911 -49.728485 
L 92.592581 -50.305455 
L 93.457613 -50.882424 
L 94.309919 -51.459394 
L 95.147344 -52.036364 
L 95.967693 -52.613333 
L 96.768763 -53.190303 
L 97.548367 -53.767273 
L 98.304369 -54.344242 
L 99.034711 -54.921212 
L 99.737437 -55.498182 
L 100.410724 -56.075152 
L 101.052903 -56.652121 
L 101.662482 -57.229091 
L 102.238165 -57.806061 
L 102.778868 -58.38303 
L 103.283735 -58.96 
L 103.752144 -59.53697 
L 104.18372 -60.113939 
L 104.578339 -60.690909 
L 104.936124 -61.267879 
L 105.25745 -61.844848 
L 105.54294 -62.421818 
L 105.793451 -62.998788 
L 106.010075 -63.575758 
L 106.194118 -64.152727 
L 106.347091 -64.729697 
L 106.470696 -65.306667 
L 106.566802 -65.883636 
L 106.637433 -66.460606 
L 106.684742 -67.037576 
L 106.710996 -67.614545 
L 106.718545 -68.191515 
L 106.709811 -68.768485 
L 106.687254 -69.345455 
L 106.653357 -69.922424 
L 106.610599 -70.499394 
L 106.561435 -71.076364 
L 106.508272 -71.653333 
L 106.453452 -72.230303 
L 106.399228 -72.807273 
L 106.347748 -73.384242 
L 106.301038 -73.961212 
L 106.260985 -74.538182 
L 106.229325 -75.115152 
L 106.20763 -75.692121 
L 106.197298 -76.269091 
L 106.199546 -76.846061 
L 106.215403 -77.42303 
L 106.245709 -78 
L 123.254291 -78 
L 123.254291 -78 
L 123.284597 -77.42303 
L 123.300454 -76.846061 
L 123.302702 -76.269091 
L 123.29237 -75.692121 
L 123.270675 -75.115152 
L 123.239015 -74.538182 
L 123.198962 -73.961212 
L 123.152252 -73.384242 
L 123.100772 -72.807273 
L 123.046548 -72.230303 
L 122.991728 -71.653333 
L 122.938565 -71.076364 
L 122.889401 -70.499394 
L 122.846643 -69.922424 
L 122.812746 -69.345455 
L 122.790189 -68.768485 
L 122.781455 -68.191515 
L 122.789004 -67.614545 
L 122.815258 -67.037576 
L 122.862567 -66.460606 
L 122.933198 -65.883636 
L 123.029304 -65.306667 
L 123.152909 -64.729697 
L 123.305882 -64.152727 
L 123.489925 -63.575758 
L 123.706549 -62.998788 
L 123.95706 -62.421818 
L 124.24255 -61.844848 
L 124.563876 -61.267879 
L 124.921661 -60.690909 
L 125.31628 -60.113939 
L 125.747856 -59.53697 
L 126.216265 -58.96 
L 126.721132 -58.38303 
L 127.261835 -57.806061 
L 127.837518 -57.229091 
L 128.447097 -56.652121 
L 129.089276 -56.075152 
L 129.762563 -55.498182 
L 130.465289 -54.921212 
L 131.195631 -54.344242 
L 131.951633 -53.767273 
L 132.731237 -53.190303 
L 133.532307 -52.613333 
L 134.352656 -52.036364 
L 135.190081 -51.459394 
L 136.042387 -50.882424 
L 136.907419 -50.305455 
L 137.783089 -49.728485 
L 138.667405 -49.151515 
L 139.558489 -48.574545 
L 140.454608 -47.997576 
L 141.354186 -47.420606 
L 142.25582 -46.843636 
L 143.158293 -46.266667 
L 144.060578 -45.689697 
L 144.961841 -45.112727 
L 145.861434 -44.535758 
L 146.758892 -43.958788 
L 147.653911 -43.381818 
L 148.546337 -42.804848 
L 149.436136 -42.227879 
L 150.323366 -41.650909 
L 151.208148 -41.073939 
L 152.090625 -40.49697 
L 152.970928 -39.92 
L 153.849129 -39.34303 
L 154.725205 -38.766061 
L 155.598993 -38.189091 
L 156.470145 -37.612121 
L 157.338096 -37.035152 
L 158.202018 -36.458182 
L 159.060794 -35.881212 
L 159.912985 -35.304242 
L 160.75681 -34.727273 
L 161.590124 -34.150303 
L 162.410417 -33.573333 
L 163.214801 -32.996364 
L 164.000026 -32.419394 
L 164.762488 -31.842424 
L 165.498251 -31.265455 
L 166.203081 -30.688485 
L 166.872483 -30.111515 
L 167.501742 -29.534545 
L 168.085984 -28.957576 
L 168.620227 -28.380606 
L 169.099447 -27.803636 
L 169.518644 -27.226667 
L 169.872916 -26.649697 
L 170.157525 -26.072727 
L 170.367972 -25.495758 
L 170.500068 -24.918788 
L 170.55 -24.341818 
L 170.514397 -23.764848 
L 170.390389 -23.187879 
L 170.175662 -22.610909 
L 169.8685 -22.033939 
L 169.46783 -21.45697 
L 168.973247 -20.88 
z
" style="stroke: #6e6e6e; stroke-width: 0.2"/>
    </defs>
    <g clip-path="url(#p81b9b9aed7)">
     <use xlink:href="#m97a66eb8b2" x="0" y="144" style="fill: #e28e8e; stroke: #6e6e6e; stroke-width: 0.2"/>
    </g>
   </g>
   <g id="PolyCollection_2">
    <defs>
     <path id="m0bc58ea69c" d="M 289.805553 -39.36 
L 218.694447 -39.36 
L 218.289123 -40.191515 
L 217.936866 -41.02303 
L 217.638519 -41.854545 
L 217.39458 -42.686061 
L 217.205193 -43.517576 
L 217.07014 -44.349091 
L 216.988838 -45.180606 
L 216.960343 -46.012121 
L 216.983354 -46.843636 
L 217.056216 -47.675152 
L 217.176935 -48.506667 
L 217.343185 -49.338182 
L 217.552332 -50.169697 
L 217.801444 -51.001212 
L 218.087315 -51.832727 
L 218.406491 -52.664242 
L 218.755288 -53.495758 
L 219.129824 -54.327273 
L 219.526043 -55.158788 
L 219.939745 -55.990303 
L 220.366616 -56.821818 
L 220.802257 -57.653333 
L 221.242214 -58.484848 
L 221.682007 -59.316364 
L 222.117164 -60.147879 
L 222.543246 -60.979394 
L 222.955878 -61.810909 
L 223.350776 -62.642424 
L 223.723774 -63.473939 
L 224.07085 -64.305455 
L 224.38815 -65.13697 
L 224.672011 -65.968485 
L 224.918982 -66.8 
L 225.125846 -67.631515 
L 225.289633 -68.46303 
L 225.407647 -69.294545 
L 225.477468 -70.126061 
L 225.496979 -70.957576 
L 225.464367 -71.789091 
L 225.378139 -72.620606 
L 225.237133 -73.452121 
L 225.040518 -74.283636 
L 224.787808 -75.115152 
L 224.47886 -75.946667 
L 224.11388 -76.778182 
L 223.693422 -77.609697 
L 223.218392 -78.441212 
L 222.69004 -79.272727 
L 222.10996 -80.104242 
L 221.480084 -80.935758 
L 220.802678 -81.767273 
L 220.080327 -82.598788 
L 219.31593 -83.430303 
L 218.512686 -84.261818 
L 217.674083 -85.093333 
L 216.803876 -85.924848 
L 215.906076 -86.756364 
L 214.984929 -87.587879 
L 214.044892 -88.419394 
L 213.090613 -89.250909 
L 212.126908 -90.082424 
L 211.158731 -90.913939 
L 210.19115 -91.745455 
L 209.229316 -92.57697 
L 208.278435 -93.408485 
L 207.343733 -94.24 
L 206.430432 -95.071515 
L 205.543708 -95.90303 
L 204.688667 -96.734545 
L 203.870305 -97.566061 
L 203.093481 -98.397576 
L 202.362884 -99.229091 
L 201.682997 -100.060606 
L 201.058073 -100.892121 
L 200.492105 -101.723636 
L 199.988796 -102.555152 
L 199.551535 -103.386667 
L 199.183377 -104.218182 
L 198.887018 -105.049697 
L 198.664781 -105.881212 
L 198.518598 -106.712727 
L 198.45 -107.544242 
L 198.460108 -108.375758 
L 198.549625 -109.207273 
L 198.718838 -110.038788 
L 198.967614 -110.870303 
L 199.295407 -111.701818 
L 199.701267 -112.533333 
L 200.183846 -113.364848 
L 200.741415 -114.196364 
L 201.37188 -115.027879 
L 202.072798 -115.859394 
L 202.841405 -116.690909 
L 203.674631 -117.522424 
L 204.569133 -118.353939 
L 205.521319 -119.185455 
L 206.527377 -120.01697 
L 207.583304 -120.848485 
L 208.684936 -121.68 
L 299.815064 -121.68 
L 299.815064 -121.68 
L 300.916696 -120.848485 
L 301.972623 -120.01697 
L 302.978681 -119.185455 
L 303.930867 -118.353939 
L 304.825369 -117.522424 
L 305.658595 -116.690909 
L 306.427202 -115.859394 
L 307.12812 -115.027879 
L 307.758585 -114.196364 
L 308.316154 -113.364848 
L 308.798733 -112.533333 
L 309.204593 -111.701818 
L 309.532386 -110.870303 
L 309.781162 -110.038788 
L 309.950375 -109.207273 
L 310.039892 -108.375758 
L 310.05 -107.544242 
L 309.981402 -106.712727 
L 309.835219 -105.881212 
L 309.612982 -105.049697 
L 309.316623 -104.218182 
L 308.948465 -103.386667 
L 308.511204 -102.555152 
L 308.007895 -101.723636 
L 307.441927 -100.892121 
L 306.817003 -100.060606 
L 306.137116 -99.229091 
L 305.406519 -98.397576 
L 304.629695 -97.566061 
L 303.811333 -96.734545 
L 302.956292 -95.90303 
L 302.069568 -95.071515 
L 301.156267 -94.24 
L 300.221565 -93.408485 
L 299.270684 -92.57697 
L 298.30885 -91.745455 
L 297.341269 -90.913939 
L 296.373092 -90.082424 
L 295.409387 -89.250909 
L 294.455108 -88.419394 
L 293.515071 -87.587879 
L 292.593924 -86.756364 
L 291.696124 -85.924848 
L 290.825917 -85.093333 
L 289.987314 -84.261818 
L 289.18407 -83.430303 
L 288.419673 -82.598788 
L 287.697322 -81.767273 
L 287.019916 -80.935758 
L 286.39004 -80.104242 
L 285.80996 -79.272727 
L 285.281608 -78.441212 
L 284.806578 -77.609697 
L 284.38612 -76.778182 
L 284.02114 -75.946667 
L 283.712192 -75.115152 
L 283.459482 -74.283636 
L 283.262867 -73.452121 
L 283.121861 -72.620606 
L 283.035633 -71.789091 
L 283.003021 -70.957576 
L 283.022532 -70.126061 
L 283.092353 -69.294545 
L 283.210367 -68.46303 
L 283.374154 -67.631515 
L 283.581018 -66.8 
L 283.827989 -65.968485 
L 284.11185 -65.13697 
L 284.42915 -64.305455 
L 284.776226 -63.473939 
L 285.149224 -62.642424 
L 285.544122 -61.810909 
L 285.956754 -60.979394 
L 286.382836 -60.147879 
L 286.817993 -59.316364 
L 287.257786 -58.484848 
L 287.697743 -57.653333 
L 288.133384 -56.821818 
L 288.560255 -55.990303 
L 288.973957 -55.158788 
L 289.370176 -54.327273 
L 289.744712 -53.495758 
L 290.093509 -52.664242 
L 290.412685 -51.832727 
L 290.698556 -51.001212 
L 290.947668 -50.169697 
L 291.156815 -49.338182 
L 291.323065 -48.506667 
L 291.443784 -47.675152 
L 291.516646 -46.843636 
L 291.539657 -46.012121 
L 291.511162 -45.180606 
L 291.42986 -44.349091 
L 291.294807 -43.517576 
L 291.10542 -42.686061 
L 290.861481 -41.854545 
L 290.563134 -41.02303 
L 290.210877 -40.191515 
L 289.805553 -39.36 
z
" style="stroke: #6e6e6e; stroke-width: 0.2"/>
    </defs>
    <g clip-path="url(#p81b9b9aed7)">
     <use xlink:href="#m0bc58ea69c" x="0" y="144" style="fill: #f5f5f5; stroke: #6e6e6e; stroke-width: 0.2"/>
    </g>
   </g>
   <g id="matplotlib.axis_1">
    <g id="xtick_1">
     <g id="line2d_1">
      <defs>
       <path id="mbfda2fb972" d="M 0 0 
L 0 3.5 
" style="stroke: #000000; stroke-width: 0.8"/>
      </defs>
      <g>
       <use xlink:href="#mbfda2fb972" x="114.75" y="128.16" style="stroke: #000000; stroke-width: 0.8"/>
      </g>
     </g>
     <g id="text_1">
      <!-- HD∆C -->
      <g transform="translate(100.303906 142.758438) scale(0.1 -0.1)">
       <defs>
        <path id="DejaVuSans-48" d="M 628 4666 
L 1259 4666 
L 1259 2753 
L 3553 2753 
L 3553 4666 
L 4184 4666 
L 4184 0 
L 3553 0 
L 3553 2222 
L 1259 2222 
L 1259 0 
L 628 0 
L 628 4666 
z
" transform="scale(0.015625)"/>
        <path id="DejaVuSans-44" d="M 1259 4147 
L 1259 519 
L 2022 519 
Q 2988 519 3436 956 
Q 3884 1394 3884 2338 
Q 3884 3275 3436 3711 
Q 2988 4147 2022 4147 
L 1259 4147 
z
M 628 4666 
L 1925 4666 
Q 3281 4666 3915 4102 
Q 4550 3538 4550 2338 
Q 4550 1131 3912 565 
Q 3275 0 1925 0 
L 628 0 
L 628 4666 
z
" transform="scale(0.015625)"/>
        <path id="DejaVuSans-2206" d="M 2138 3944 
L 831 556 
L 3444 556 
L 2138 3944 
z
M 1791 4603 
L 2491 4603 
L 4300 0 
L -19 0 
L 1791 4603 
z
" transform="scale(0.015625)"/>
        <path id="DejaVuSans-43" d="M 4122 4306 
L 4122 3641 
Q 3803 3938 3442 4084 
Q 3081 4231 2675 4231 
Q 1875 4231 1450 3742 
Q 1025 3253 1025 2328 
Q 1025 1406 1450 917 
Q 1875 428 2675 428 
Q 3081 428 3442 575 
Q 3803 722 4122 1019 
L 4122 359 
Q 3791 134 3420 21 
Q 3050 -91 2638 -91 
Q 1578 -91 968 557 
Q 359 1206 359 2328 
Q 359 3453 968 4101 
Q 1578 4750 2638 4750 
Q 3056 4750 3426 4639 
Q 3797 4528 4122 4306 
z
" transform="scale(0.015625)"/>
       </defs>
       <use xlink:href="#DejaVuSans-48"/>
       <use xlink:href="#DejaVuSans-44" x="75.195312"/>
       <use xlink:href="#DejaVuSans-2206" x="152.197266"/>
       <use xlink:href="#DejaVuSans-43" x="219.091797"/>
      </g>
     </g>
    </g>
    <g id="xtick_2">
     <g id="line2d_2">
      <g>
       <use xlink:href="#mbfda2fb972" x="254.25" y="128.16" style="stroke: #000000; stroke-width: 0.8"/>
      </g>
     </g>
     <g id="text_2">
      <!-- None -->
      <g transform="translate(241.204688 142.758438) scale(0.1 -0.1)">
       <defs>
        <path id="DejaVuSans-4e" d="M 628 4666 
L 1478 4666 
L 3547 763 
L 3547 4666 
L 4159 4666 
L 4159 0 
L 3309 0 
L 1241 3903 
L 1241 0 
L 628 0 
L 628 4666 
z
" transform="scale(0.015625)"/>
        <path id="DejaVuSans-6f" d="M 1959 3097 
Q 1497 3097 1228 2736 
Q 959 2375 959 1747 
Q 959 1119 1226 758 
Q 1494 397 1959 397 
Q 2419 397 2687 759 
Q 2956 1122 2956 1747 
Q 2956 2369 2687 2733 
Q 2419 3097 1959 3097 
z
M 1959 3584 
Q 2709 3584 3137 3096 
Q 3566 2609 3566 1747 
Q 3566 888 3137 398 
Q 2709 -91 1959 -91 
Q 1206 -91 779 398 
Q 353 888 353 1747 
Q 353 2609 779 3096 
Q 1206 3584 1959 3584 
z
" transform="scale(0.015625)"/>
        <path id="DejaVuSans-6e" d="M 3513 2113 
L 3513 0 
L 2938 0 
L 2938 2094 
Q 2938 2591 2744 2837 
Q 2550 3084 2163 3084 
Q 1697 3084 1428 2787 
Q 1159 2491 1159 1978 
L 1159 0 
L 581 0 
L 581 3500 
L 1159 3500 
L 1159 2956 
Q 1366 3272 1645 3428 
Q 1925 3584 2291 3584 
Q 2894 3584 3203 3211 
Q 3513 2838 3513 2113 
z
" transform="scale(0.015625)"/>
        <path id="DejaVuSans-65" d="M 3597 1894 
L 3597 1613 
L 953 1613 
Q 991 1019 1311 708 
Q 1631 397 2203 397 
Q 2534 397 2845 478 
Q 3156 559 3463 722 
L 3463 178 
Q 3153 47 2828 -22 
Q 2503 -91 2169 -91 
Q 1331 -91 842 396 
Q 353 884 353 1716 
Q 353 2575 817 3079 
Q 1281 3584 2069 3584 
Q 2775 3584 3186 3129 
Q 3597 2675 3597 1894 
z
M 3022 2063 
Q 3016 2534 2758 2815 
Q 2500 3097 2075 3097 
Q 1594 3097 1305 2825 
Q 1016 2553 972 2059 
L 3022 2063 
z
" transform="scale(0.015625)"/>
       </defs>
       <use xlink:href="#DejaVuSans-4e"/>
       <use xlink:href="#DejaVuSans-6f" x="74.804688"/>
       <use xlink:href="#DejaVuSans-6e" x="135.986328"/>
       <use xlink:href="#DejaVuSans-65" x="199.365234"/>
      </g>
     </g>
    </g>
   </g>
   <g id="matplotlib.axis_2">
    <g id="ytick_1">
     <g id="line2d_3">
      <defs>
       <path id="m6e3672df98" d="M 0 0 
L -3.5 0 
" style="stroke: #000000; stroke-width: 0.8"/>
      </defs>
      <g>
       <use xlink:href="#m6e3672df98" x="45" y="123.12" style="stroke: #000000; stroke-width: 0.8"/>
      </g>
     </g>
     <g id="text_3">
      <!-- 0.4 -->
      <g transform="translate(22.096875 126.919219) scale(0.1 -0.1)">
       <defs>
        <path id="DejaVuSans-30" d="M 2034 4250 
Q 1547 4250 1301 3770 
Q 1056 3291 1056 2328 
Q 1056 1369 1301 889 
Q 1547 409 2034 409 
Q 2525 409 2770 889 
Q 3016 1369 3016 2328 
Q 3016 3291 2770 3770 
Q 2525 4250 2034 4250 
z
M 2034 4750 
Q 2819 4750 3233 4129 
Q 3647 3509 3647 2328 
Q 3647 1150 3233 529 
Q 2819 -91 2034 -91 
Q 1250 -91 836 529 
Q 422 1150 422 2328 
Q 422 3509 836 4129 
Q 1250 4750 2034 4750 
z
" transform="scale(0.015625)"/>
        <path id="DejaVuSans-2e" d="M 684 794 
L 1344 794 
L 1344 0 
L 684 0 
L 684 794 
z
" transform="scale(0.015625)"/>
        <path id="DejaVuSans-34" d="M 2419 4116 
L 825 1625 
L 2419 1625 
L 2419 4116 
z
M 2253 4666 
L 3047 4666 
L 3047 1625 
L 3713 1625 
L 3713 1100 
L 3047 1100 
L 3047 0 
L 2419 0 
L 2419 1100 
L 313 1100 
L 313 1709 
L 2253 4666 
z
" transform="scale(0.015625)"/>
       </defs>
       <use xlink:href="#DejaVuSans-30"/>
       <use xlink:href="#DejaVuSans-2e" x="63.623047"/>
       <use xlink:href="#DejaVuSans-34" x="95.410156"/>
      </g>
     </g>
    </g>
    <g id="ytick_2">
     <g id="line2d_4">
      <g>
       <use xlink:href="#m6e3672df98" x="45" y="89.52" style="stroke: #000000; stroke-width: 0.8"/>
      </g>
     </g>
     <g id="text_4">
      <!-- 0.6 -->
      <g transform="translate(22.096875 93.319219) scale(0.1 -0.1)">
       <defs>
        <path id="DejaVuSans-36" d="M 2113 2584 
Q 1688 2584 1439 2293 
Q 1191 2003 1191 1497 
Q 1191 994 1439 701 
Q 1688 409 2113 409 
Q 2538 409 2786 701 
Q 3034 994 3034 1497 
Q 3034 2003 2786 2293 
Q 2538 2584 2113 2584 
z
M 3366 4563 
L 3366 3988 
Q 3128 4100 2886 4159 
Q 2644 4219 2406 4219 
Q 1781 4219 1451 3797 
Q 1122 3375 1075 2522 
Q 1259 2794 1537 2939 
Q 1816 3084 2150 3084 
Q 2853 3084 3261 2657 
Q 3669 2231 3669 1497 
Q 3669 778 3244 343 
Q 2819 -91 2113 -91 
Q 1303 -91 875 529 
Q 447 1150 447 2328 
Q 447 3434 972 4092 
Q 1497 4750 2381 4750 
Q 2619 4750 2861 4703 
Q 3103 4656 3366 4563 
z
" transform="scale(0.015625)"/>
       </defs>
       <use xlink:href="#DejaVuSans-30"/>
       <use xlink:href="#DejaVuSans-2e" x="63.623047"/>
       <use xlink:href="#DejaVuSans-36" x="95.410156"/>
      </g>
     </g>
    </g>
    <g id="ytick_3">
     <g id="line2d_5">
      <g>
       <use xlink:href="#m6e3672df98" x="45" y="55.92" style="stroke: #000000; stroke-width: 0.8"/>
      </g>
     </g>
     <g id="text_5">
      <!-- 0.8 -->
      <g transform="translate(22.096875 59.719219) scale(0.1 -0.1)">
       <defs>
        <path id="DejaVuSans-38" d="M 2034 2216 
Q 1584 2216 1326 1975 
Q 1069 1734 1069 1313 
Q 1069 891 1326 650 
Q 1584 409 2034 409 
Q 2484 409 2743 651 
Q 3003 894 3003 1313 
Q 3003 1734 2745 1975 
Q 2488 2216 2034 2216 
z
M 1403 2484 
Q 997 2584 770 2862 
Q 544 3141 544 3541 
Q 544 4100 942 4425 
Q 1341 4750 2034 4750 
Q 2731 4750 3128 4425 
Q 3525 4100 3525 3541 
Q 3525 3141 3298 2862 
Q 3072 2584 2669 2484 
Q 3125 2378 3379 2068 
Q 3634 1759 3634 1313 
Q 3634 634 3220 271 
Q 2806 -91 2034 -91 
Q 1263 -91 848 271 
Q 434 634 434 1313 
Q 434 1759 690 2068 
Q 947 2378 1403 2484 
z
M 1172 3481 
Q 1172 3119 1398 2916 
Q 1625 2713 2034 2713 
Q 2441 2713 2670 2916 
Q 2900 3119 2900 3481 
Q 2900 3844 2670 4047 
Q 2441 4250 2034 4250 
Q 1625 4250 1398 4047 
Q 1172 3844 1172 3481 
z
" transform="scale(0.015625)"/>
       </defs>
       <use xlink:href="#DejaVuSans-30"/>
       <use xlink:href="#DejaVuSans-2e" x="63.623047"/>
       <use xlink:href="#DejaVuSans-38" x="95.410156"/>
      </g>
     </g>
    </g>
    <g id="ytick_4">
     <g id="line2d_6">
      <g>
       <use xlink:href="#m6e3672df98" x="45" y="22.32" style="stroke: #000000; stroke-width: 0.8"/>
      </g>
     </g>
     <g id="text_6">
      <!-- 1.0 -->
      <g transform="translate(22.096875 26.119219) scale(0.1 -0.1)">
       <defs>
        <path id="DejaVuSans-31" d="M 794 531 
L 1825 531 
L 1825 4091 
L 703 3866 
L 703 4441 
L 1819 4666 
L 2450 4666 
L 2450 531 
L 3481 531 
L 3481 0 
L 794 0 
L 794 531 
z
" transform="scale(0.015625)"/>
       </defs>
       <use xlink:href="#DejaVuSans-31"/>
       <use xlink:href="#DejaVuSans-2e" x="63.623047"/>
       <use xlink:href="#DejaVuSans-30" x="95.410156"/>
      </g>
     </g>
    </g>
   </g>
   <g id="patch_3">
    <path d="M 45 128.16 
L 45 17.28 
" style="fill: none; stroke: #000000; stroke-width: 0.8; stroke-linejoin: miter; stroke-linecap: square"/>
   </g>
   <g id="patch_4">
    <path d="M 324 128.16 
L 324 17.28 
" style="fill: none; stroke: #000000; stroke-width: 0.8; stroke-linejoin: miter; stroke-linecap: square"/>
   </g>
   <g id="patch_5">
    <path d="M 45 128.16 
L 324 128.16 
" style="fill: none; stroke: #000000; stroke-width: 0.8; stroke-linejoin: miter; stroke-linecap: square"/>
   </g>
   <g id="patch_6">
    <path d="M 45 17.28 
L 324 17.28 
" style="fill: none; stroke: #000000; stroke-width: 0.8; stroke-linejoin: miter; stroke-linecap: square"/>
   </g>
   <g id="PathCollection_1">
    <defs>
     <path id="C0_0_8a6108f661" d="M 0 2.5 
C 0.663008 2.5 1.29895 2.236584 1.767767 1.767767 
C 2.236584 1.29895 2.5 0.663008 2.5 -0 
C 2.5 -0.663008 2.236584 -1.29895 1.767767 -1.767767 
C 1.29895 -2.236584 0.663008 -2.5 0 -2.5 
C -0.663008 -2.5 -1.29895 -2.236584 -1.767767 -1.767767 
C -2.236584 -1.29895 -2.5 -0.663008 -2.5 0 
C -2.5 0.663008 -2.236584 1.29895 -1.767767 1.767767 
C -1.29895 2.236584 -0.663008 2.5 0 2.5 
z
"/>
    </defs>
    <g clip-path="url(#p81b9b9aed7)">
     <use xlink:href="#C0_0_8a6108f661" x="114.75" y="66" style="fill: #b22222"/>
    </g>
    <g clip-path="url(#p81b9b9aed7)">
     <use xlink:href="#C0_0_8a6108f661" x="114.75" y="104.64" style="fill: #b22222"/>
    </g>
    <g clip-path="url(#p81b9b9aed7)">
     <use xlink:href="#C0_0_8a6108f661" x="114.75" y="123.12" style="fill: #b22222"/>
    </g>
    <g clip-path="url(#p81b9b9aed7)">
     <use xlink:href="#C0_0_8a6108f661" x="124.944775" y="121.44" style="fill: #b22222"/>
    </g>
    <g clip-path="url(#p81b9b9aed7)">
     <use xlink:href="#C0_0_8a6108f661" x="109.5" y="123.12" style="fill: #b22222"/>
    </g>
    <g clip-path="url(#p81b9b9aed7)">
     <use xlink:href="#C0_0_8a6108f661" x="120" y="123.12" style="fill: #b22222"/>
    </g>
    <g clip-path="url(#p81b9b9aed7)">
     <use xlink:href="#C0_0_8a6108f661" x="104.25" y="123.12" style="fill: #b22222"/>
    </g>
    <g clip-path="url(#p81b9b9aed7)">
     <use xlink:href="#C0_0_8a6108f661" x="99.305225" y="121.44" style="fill: #b22222"/>
    </g>
    <g clip-path="url(#p81b9b9aed7)">
     <use xlink:href="#C0_0_8a6108f661" x="115.806882" y="99.6" style="fill: #b22222"/>
    </g>
    <g clip-path="url(#p81b9b9aed7)">
     <use xlink:href="#C0_0_8a6108f661" x="110.862106" y="101.28" style="fill: #b22222"/>
    </g>
   </g>
   <g id="PathCollection_2">
    <defs>
     <path id="C1_0_13188456ae" d="M 0 2.5 
C 0.663008 2.5 1.29895 2.236584 1.767767 1.767767 
C 2.236584 1.29895 2.5 0.663008 2.5 -0 
C 2.5 -0.663008 2.236584 -1.29895 1.767767 -1.767767 
C 1.29895 -2.236584 0.663008 -2.5 0 -2.5 
C -0.663008 -2.5 -1.29895 -2.236584 -1.767767 -1.767767 
C -2.236584 -1.29895 -2.5 -0.663008 -2.5 0 
C -2.5 0.663008 -2.236584 1.29895 -1.767767 1.767767 
C -1.29895 2.236584 -0.663008 2.5 0 2.5 
z
"/>
    </defs>
    <g clip-path="url(#p81b9b9aed7)">
     <use xlink:href="#C1_0_13188456ae" x="254.25" y="22.32" style="fill: #808080"/>
    </g>
    <g clip-path="url(#p81b9b9aed7)">
     <use xlink:href="#C1_0_13188456ae" x="254.25" y="39.12" style="fill: #808080"/>
    </g>
    <g clip-path="url(#p81b9b9aed7)">
     <use xlink:href="#C1_0_13188456ae" x="249" y="39.12" style="fill: #808080"/>
    </g>
    <g clip-path="url(#p81b9b9aed7)">
     <use xlink:href="#C1_0_13188456ae" x="263.387894" y="35.76" style="fill: #808080"/>
    </g>
    <g clip-path="url(#p81b9b9aed7)">
     <use xlink:href="#C1_0_13188456ae" x="255.306882" y="99.6" style="fill: #808080"/>
    </g>
    <g clip-path="url(#p81b9b9aed7)">
     <use xlink:href="#C1_0_13188456ae" x="250.362106" y="101.28" style="fill: #808080"/>
    </g>
    <g clip-path="url(#p81b9b9aed7)">
     <use xlink:href="#C1_0_13188456ae" x="260.251657" y="97.92" style="fill: #808080"/>
    </g>
    <g clip-path="url(#p81b9b9aed7)">
     <use xlink:href="#C1_0_13188456ae" x="246.474213" y="97.92" style="fill: #808080"/>
    </g>
    <g clip-path="url(#p81b9b9aed7)">
     <use xlink:href="#C1_0_13188456ae" x="254.25" y="66" style="fill: #808080"/>
    </g>
    <g clip-path="url(#p81b9b9aed7)">
     <use xlink:href="#C1_0_13188456ae" x="239.862106" y="35.76" style="fill: #808080"/>
    </g>
    <g clip-path="url(#p81b9b9aed7)">
     <use xlink:href="#C1_0_13188456ae" x="254.25" y="104.64" style="fill: #808080"/>
    </g>
    <g clip-path="url(#p81b9b9aed7)">
     <use xlink:href="#C1_0_13188456ae" x="259.5" y="39.12" style="fill: #808080"/>
    </g>
    <g clip-path="url(#p81b9b9aed7)">
     <use xlink:href="#C1_0_13188456ae" x="249" y="22.32" style="fill: #808080"/>
    </g>
    <g clip-path="url(#p81b9b9aed7)">
     <use xlink:href="#C1_0_13188456ae" x="243.75" y="39.12" style="fill: #808080"/>
    </g>
   </g>
   <g id="text_7">
    <!-- MSX1 -->
    <g transform="translate(167.586563 11.28) scale(0.12 -0.12)">
     <defs>
      <path id="DejaVuSans-4d" d="M 628 4666 
L 1569 4666 
L 2759 1491 
L 3956 4666 
L 4897 4666 
L 4897 0 
L 4281 0 
L 4281 4097 
L 3078 897 
L 2444 897 
L 1241 4097 
L 1241 0 
L 628 0 
L 628 4666 
z
" transform="scale(0.015625)"/>
      <path id="DejaVuSans-53" d="M 3425 4513 
L 3425 3897 
Q 3066 4069 2747 4153 
Q 2428 4238 2131 4238 
Q 1616 4238 1336 4038 
Q 1056 3838 1056 3469 
Q 1056 3159 1242 3001 
Q 1428 2844 1947 2747 
L 2328 2669 
Q 3034 2534 3370 2195 
Q 3706 1856 3706 1288 
Q 3706 609 3251 259 
Q 2797 -91 1919 -91 
Q 1588 -91 1214 -16 
Q 841 59 441 206 
L 441 856 
Q 825 641 1194 531 
Q 1563 422 1919 422 
Q 2459 422 2753 634 
Q 3047 847 3047 1241 
Q 3047 1584 2836 1778 
Q 2625 1972 2144 2069 
L 1759 2144 
Q 1053 2284 737 2584 
Q 422 2884 422 3419 
Q 422 4038 858 4394 
Q 1294 4750 2059 4750 
Q 2388 4750 2728 4690 
Q 3069 4631 3425 4513 
z
" transform="scale(0.015625)"/>
      <path id="DejaVuSans-58" d="M 403 4666 
L 1081 4666 
L 2241 2931 
L 3406 4666 
L 4084 4666 
L 2584 2425 
L 4184 0 
L 3506 0 
L 2194 1984 
L 872 0 
L 191 0 
L 1856 2491 
L 403 4666 
z
" transform="scale(0.015625)"/>
     </defs>
     <use xlink:href="#DejaVuSans-4d"/>
     <use xlink:href="#DejaVuSans-53" x="86.279297"/>
     <use xlink:href="#DejaVuSans-58" x="149.755859"/>
     <use xlink:href="#DejaVuSans-31" x="218.261719"/>
    </g>
   </g>
  </g>
 </g>
 <defs>
  <clipPath id="p81b9b9aed7">
   <rect x="45" y="17.28" width="279" height="110.88"/>
  </clipPath>
 </defs>
</svg>
