<?xml version="1.0" encoding="utf-8" standalone="no"?>
<!DOCTYPE svg PUBLIC "-//W3C//DTD SVG 1.1//EN"
  "http://www.w3.org/Graphics/SVG/1.1/DTD/svg11.dtd">
<svg xmlns:xlink="http://www.w3.org/1999/xlink" width="360pt" height="144pt" viewBox="0 0 360 144" xmlns="http://www.w3.org/2000/svg" version="1.1">
 <metadata>
  <rdf:RDF xmlns:dc="http://purl.org/dc/elements/1.1/" xmlns:cc="http://creativecommons.org/ns#" xmlns:rdf="http://www.w3.org/1999/02/22-rdf-syntax-ns#">
   <cc:Work>
    <dc:type rdf:resource="http://purl.org/dc/dcmitype/StillImage"/>
    <dc:date>2025-07-30T10:02:43.754308</dc:date>
    <dc:format>image/svg+xml</dc:format>
    <dc:creator>
     <cc:Agent>
      <dc:title>Matplotlib v3.9.2, https://matplotlib.org/</dc:title>
     </cc:Agent>
    </dc:creator>
   </cc:Work>
  </rdf:RDF>
 </metadata>
 <defs>
  <style type="text/css">*{stroke-linejoin: round; stroke-linecap: butt}</style>
 </defs>
 <g id="figure_1">
  <g id="patch_1">
   <path d="M 0 144 
L 360 144 
L 360 0 
L 0 0 
z
" style="fill: #ffffff"/>
  </g>
  <g id="axes_1">
   <g id="patch_2">
    <path d="M 45 128.16 
L 324 128.16 
L 324 17.28 
L 45 17.28 
z
" style="fill: #ffffff"/>
   </g>
   <g id="PolyCollection_1">
    <defs>
     <path id="mebcd0cf065" d="M 146.894726 -20.88 
L 82.605274 -20.88 
L 81.598642 -21.338182 
L 80.60007 -21.796364 
L 79.611349 -22.254545 
L 78.634218 -22.712727 
L 77.670355 -23.170909 
L 76.721367 -23.629091 
L 75.788788 -24.087273 
L 74.874071 -24.545455 
L 73.97858 -25.003636 
L 73.10359 -25.461818 
L 72.250281 -25.92 
L 71.419736 -26.378182 
L 70.612938 -26.836364 
L 69.830771 -27.294545 
L 69.074017 -27.752727 
L 68.343359 -28.210909 
L 67.63938 -28.669091 
L 66.962568 -29.127273 
L 66.313318 -29.585455 
L 65.691936 -30.043636 
L 65.098641 -30.501818 
L 64.533575 -30.96 
L 63.996805 -31.418182 
L 63.488331 -31.876364 
L 63.008091 -32.334545 
L 62.555972 -32.792727 
L 62.131812 -33.250909 
L 61.735412 -33.709091 
L 61.366543 -34.167273 
L 61.024952 -34.625455 
L 60.710369 -35.083636 
L 60.422517 -35.541818 
L 60.161116 -36 
L 59.925893 -36.458182 
L 59.716582 -36.916364 
L 59.532936 -37.374545 
L 59.374725 -37.832727 
L 59.241745 -38.290909 
L 59.133815 -38.749091 
L 59.050785 -39.207273 
L 58.992531 -39.665455 
L 58.958959 -40.123636 
L 58.95 -40.581818 
L 58.965613 -41.04 
L 59.005776 -41.498182 
L 59.070487 -41.956364 
L 59.159756 -42.414545 
L 59.273604 -42.872727 
L 59.412051 -43.330909 
L 59.575116 -43.789091 
L 59.762808 -44.247273 
L 59.975119 -44.705455 
L 60.212017 -45.163636 
L 60.473441 -45.621818 
L 60.759297 -46.08 
L 61.069447 -46.538182 
L 61.403708 -46.996364 
L 61.761849 -47.454545 
L 62.143581 -47.912727 
L 62.548563 -48.370909 
L 62.976394 -48.829091 
L 63.426614 -49.287273 
L 63.898707 -49.745455 
L 64.392097 -50.203636 
L 64.906158 -50.661818 
L 65.440211 -51.12 
L 65.99353 -51.578182 
L 66.565348 -52.036364 
L 67.154863 -52.494545 
L 67.761243 -52.952727 
L 68.383635 -53.410909 
L 69.021169 -53.869091 
L 69.672967 -54.327273 
L 70.338151 -54.785455 
L 71.015849 -55.243636 
L 71.705199 -55.701818 
L 72.405363 -56.16 
L 73.115522 -56.618182 
L 73.83489 -57.076364 
L 74.562713 -57.534545 
L 75.298274 -57.992727 
L 76.040894 -58.450909 
L 76.789934 -58.909091 
L 77.544795 -59.367273 
L 78.304917 -59.825455 
L 79.069777 -60.283636 
L 79.838886 -60.741818 
L 80.611787 -61.2 
L 81.388045 -61.658182 
L 82.167252 -62.116364 
L 82.94901 -62.574545 
L 83.732933 -63.032727 
L 84.518639 -63.490909 
L 85.30574 -63.949091 
L 86.093842 -64.407273 
L 86.882533 -64.865455 
L 87.671381 -65.323636 
L 88.459928 -65.781818 
L 89.247686 -66.24 
L 140.252314 -66.24 
L 140.252314 -66.24 
L 141.040072 -65.781818 
L 141.828619 -65.323636 
L 142.617467 -64.865455 
L 143.406158 -64.407273 
L 144.19426 -63.949091 
L 144.981361 -63.490909 
L 145.767067 -63.032727 
L 146.55099 -62.574545 
L 147.332748 -62.116364 
L 148.111955 -61.658182 
L 148.888213 -61.2 
L 149.661114 -60.741818 
L 150.430223 -60.283636 
L 151.195083 -59.825455 
L 151.955205 -59.367273 
L 152.710066 -58.909091 
L 153.459106 -58.450909 
L 154.201726 -57.992727 
L 154.937287 -57.534545 
L 155.66511 -57.076364 
L 156.384478 -56.618182 
L 157.094637 -56.16 
L 157.794801 -55.701818 
L 158.484151 -55.243636 
L 159.161849 -54.785455 
L 159.827033 -54.327273 
L 160.478831 -53.869091 
L 161.116365 -53.410909 
L 161.738757 -52.952727 
L 162.345137 -52.494545 
L 162.934652 -52.036364 
L 163.50647 -51.578182 
L 164.059789 -51.12 
L 164.593842 -50.661818 
L 165.107903 -50.203636 
L 165.601293 -49.745455 
L 166.073386 -49.287273 
L 166.523606 -48.829091 
L 166.951437 -48.370909 
L 167.356419 -47.912727 
L 167.738151 -47.454545 
L 168.096292 -46.996364 
L 168.430553 -46.538182 
L 168.740703 -46.08 
L 169.026559 -45.621818 
L 169.287983 -45.163636 
L 169.524881 -44.705455 
L 169.737192 -44.247273 
L 169.924884 -43.789091 
L 170.087949 -43.330909 
L 170.226396 -42.872727 
L 170.340244 -42.414545 
L 170.429513 -41.956364 
L 170.494224 -41.498182 
L 170.534387 -41.04 
L 170.55 -40.581818 
L 170.541041 -40.123636 
L 170.507469 -39.665455 
L 170.449215 -39.207273 
L 170.366185 -38.749091 
L 170.258255 -38.290909 
L 170.125275 -37.832727 
L 169.967064 -37.374545 
L 169.783418 -36.916364 
L 169.574107 -36.458182 
L 169.338884 -36 
L 169.077483 -35.541818 
L 168.789631 -35.083636 
L 168.475048 -34.625455 
L 168.133457 -34.167273 
L 167.764588 -33.709091 
L 167.368188 -33.250909 
L 166.944028 -32.792727 
L 166.491909 -32.334545 
L 166.011669 -31.876364 
L 165.503195 -31.418182 
L 164.966425 -30.96 
L 164.401359 -30.501818 
L 163.808064 -30.043636 
L 163.186682 -29.585455 
L 162.537432 -29.127273 
L 161.86062 -28.669091 
L 161.156641 -28.210909 
L 160.425983 -27.752727 
L 159.669229 -27.294545 
L 158.887062 -26.836364 
L 158.080264 -26.378182 
L 157.249719 -25.92 
L 156.39641 -25.461818 
L 155.52142 -25.003636 
L 154.625929 -24.545455 
L 153.711212 -24.087273 
L 152.778633 -23.629091 
L 151.829645 -23.170909 
L 150.865782 -22.712727 
L 149.888651 -22.254545 
L 148.89993 -21.796364 
L 147.901358 -21.338182 
L 146.894726 -20.88 
z
" style="stroke: #6e6e6e; stroke-width: 0.2"/>
    </defs>
    <g clip-path="url(#p646a05ab7f)">
     <use xlink:href="#mebcd0cf065" x="0" y="144" style="fill: #e28e8e; stroke: #6e6e6e; stroke-width: 0.2"/>
    </g>
   </g>
   <g id="PolyCollection_2">
    <defs>
     <path id="m10127fe726" d="M 266.959568 -28.44 
L 241.540432 -28.44 
L 240.815626 -29.381818 
L 240.058003 -30.323636 
L 239.26552 -31.265455 
L 238.436189 -32.207273 
L 237.568137 -33.149091 
L 236.659673 -34.090909 
L 235.70935 -35.032727 
L 234.716033 -35.974545 
L 233.678959 -36.916364 
L 232.597798 -37.858182 
L 231.472701 -38.8 
L 230.304352 -39.741818 
L 229.093996 -40.683636 
L 227.843475 -41.625455 
L 226.555244 -42.567273 
L 225.232379 -43.509091 
L 223.878575 -44.450909 
L 222.498138 -45.392727 
L 221.095959 -46.334545 
L 219.67749 -47.276364 
L 218.248699 -48.218182 
L 216.816028 -49.16 
L 215.386336 -50.101818 
L 213.966839 -51.043636 
L 212.565041 -51.985455 
L 211.188667 -52.927273 
L 209.845575 -53.869091 
L 208.543685 -54.810909 
L 207.290885 -55.752727 
L 206.094946 -56.694545 
L 204.963428 -57.636364 
L 203.903592 -58.578182 
L 202.922301 -59.52 
L 202.025933 -60.461818 
L 201.220286 -61.403636 
L 200.510496 -62.345455 
L 199.900952 -63.287273 
L 199.395228 -64.229091 
L 198.99601 -65.170909 
L 198.705051 -66.112727 
L 198.523125 -67.054545 
L 198.45 -67.996364 
L 198.48443 -68.938182 
L 198.624161 -69.88 
L 198.865951 -70.821818 
L 199.205615 -71.763636 
L 199.638082 -72.705455 
L 200.15747 -73.647273 
L 200.757181 -74.589091 
L 201.429998 -75.530909 
L 202.168208 -76.472727 
L 202.963724 -77.414545 
L 203.808216 -78.356364 
L 204.693247 -79.298182 
L 205.610402 -80.24 
L 206.551427 -81.181818 
L 207.508343 -82.123636 
L 208.473572 -83.065455 
L 209.440034 -84.007273 
L 210.401238 -84.949091 
L 211.351363 -85.890909 
L 212.285311 -86.832727 
L 213.198754 -87.774545 
L 214.088157 -88.716364 
L 214.950789 -89.658182 
L 215.784715 -90.6 
L 216.588775 -91.541818 
L 217.362547 -92.483636 
L 218.106304 -93.425455 
L 218.820952 -94.367273 
L 219.507971 -95.309091 
L 220.16934 -96.250909 
L 220.807459 -97.192727 
L 221.425079 -98.134545 
L 222.025215 -99.076364 
L 222.611073 -100.018182 
L 223.185971 -100.96 
L 223.75327 -101.901818 
L 224.316299 -102.843636 
L 224.878298 -103.785455 
L 225.442357 -104.727273 
L 226.011362 -105.669091 
L 226.587955 -106.610909 
L 227.174492 -107.552727 
L 227.773011 -108.494545 
L 228.385209 -109.436364 
L 229.012422 -110.378182 
L 229.655612 -111.32 
L 230.315367 -112.261818 
L 230.991895 -113.203636 
L 231.685033 -114.145455 
L 232.394259 -115.087273 
L 233.118705 -116.029091 
L 233.857185 -116.970909 
L 234.608209 -117.912727 
L 235.370022 -118.854545 
L 236.140626 -119.796364 
L 236.91782 -120.738182 
L 237.699231 -121.68 
L 270.800769 -121.68 
L 270.800769 -121.68 
L 271.58218 -120.738182 
L 272.359374 -119.796364 
L 273.129978 -118.854545 
L 273.891791 -117.912727 
L 274.642815 -116.970909 
L 275.381295 -116.029091 
L 276.105741 -115.087273 
L 276.814967 -114.145455 
L 277.508105 -113.203636 
L 278.184633 -112.261818 
L 278.844388 -111.32 
L 279.487578 -110.378182 
L 280.114791 -109.436364 
L 280.726989 -108.494545 
L 281.325508 -107.552727 
L 281.912045 -106.610909 
L 282.488638 -105.669091 
L 283.057643 -104.727273 
L 283.621702 -103.785455 
L 284.183701 -102.843636 
L 284.74673 -101.901818 
L 285.314029 -100.96 
L 285.888927 -100.018182 
L 286.474785 -99.076364 
L 287.074921 -98.134545 
L 287.692541 -97.192727 
L 288.33066 -96.250909 
L 288.992029 -95.309091 
L 289.679048 -94.367273 
L 290.393696 -93.425455 
L 291.137453 -92.483636 
L 291.911225 -91.541818 
L 292.715285 -90.6 
L 293.549211 -89.658182 
L 294.411843 -88.716364 
L 295.301246 -87.774545 
L 296.214689 -86.832727 
L 297.148637 -85.890909 
L 298.098762 -84.949091 
L 299.059966 -84.007273 
L 300.026428 -83.065455 
L 300.991657 -82.123636 
L 301.948573 -81.181818 
L 302.889598 -80.24 
L 303.806753 -79.298182 
L 304.691784 -78.356364 
L 305.536276 -77.414545 
L 306.331792 -76.472727 
L 307.070002 -75.530909 
L 307.742819 -74.589091 
L 308.34253 -73.647273 
L 308.861918 -72.705455 
L 309.294385 -71.763636 
L 309.634049 -70.821818 
L 309.875839 -69.88 
L 310.01557 -68.938182 
L 310.05 -67.996364 
L 309.976875 -67.054545 
L 309.794949 -66.112727 
L 309.50399 -65.170909 
L 309.104772 -64.229091 
L 308.599048 -63.287273 
L 307.989504 -62.345455 
L 307.279714 -61.403636 
L 306.474067 -60.461818 
L 305.577699 -59.52 
L 304.596408 -58.578182 
L 303.536572 -57.636364 
L 302.405054 -56.694545 
L 301.209115 -55.752727 
L 299.956315 -54.810909 
L 298.654425 -53.869091 
L 297.311333 -52.927273 
L 295.934959 -51.985455 
L 294.533161 -51.043636 
L 293.113664 -50.101818 
L 291.683972 -49.16 
L 290.251301 -48.218182 
L 288.82251 -47.276364 
L 287.404041 -46.334545 
L 286.001862 -45.392727 
L 284.621425 -44.450909 
L 283.267621 -43.509091 
L 281.944756 -42.567273 
L 280.656525 -41.625455 
L 279.406004 -40.683636 
L 278.195648 -39.741818 
L 277.027299 -38.8 
L 275.902202 -37.858182 
L 274.821041 -36.916364 
L 273.783967 -35.974545 
L 272.79065 -35.032727 
L 271.840327 -34.090909 
L 270.931863 -33.149091 
L 270.063811 -32.207273 
L 269.23448 -31.265455 
L 268.441997 -30.323636 
L 267.684374 -29.381818 
L 266.959568 -28.44 
z
" style="stroke: #6e6e6e; stroke-width: 0.2"/>
    </defs>
    <g clip-path="url(#p646a05ab7f)">
     <use xlink:href="#m10127fe726" x="0" y="144" style="fill: #f5f5f5; stroke: #6e6e6e; stroke-width: 0.2"/>
    </g>
   </g>
   <g id="matplotlib.axis_1">
    <g id="xtick_1">
     <g id="line2d_1">
      <defs>
       <path id="m602247eb50" d="M 0 0 
L 0 3.5 
" style="stroke: #000000; stroke-width: 0.8"/>
      </defs>
      <g>
       <use xlink:href="#m602247eb50" x="114.75" y="128.16" style="stroke: #000000; stroke-width: 0.8"/>
      </g>
     </g>
     <g id="text_1">
      <!-- HD∆C -->
      <g transform="translate(100.303906 142.758438) scale(0.1 -0.1)">
       <defs>
        <path id="DejaVuSans-48" d="M 628 4666 
L 1259 4666 
L 1259 2753 
L 3553 2753 
L 3553 4666 
L 4184 4666 
L 4184 0 
L 3553 0 
L 3553 2222 
L 1259 2222 
L 1259 0 
L 628 0 
L 628 4666 
z
" transform="scale(0.015625)"/>
        <path id="DejaVuSans-44" d="M 1259 4147 
L 1259 519 
L 2022 519 
Q 2988 519 3436 956 
Q 3884 1394 3884 2338 
Q 3884 3275 3436 3711 
Q 2988 4147 2022 4147 
L 1259 4147 
z
M 628 4666 
L 1925 4666 
Q 3281 4666 3915 4102 
Q 4550 3538 4550 2338 
Q 4550 1131 3912 565 
Q 3275 0 1925 0 
L 628 0 
L 628 4666 
z
" transform="scale(0.015625)"/>
        <path id="DejaVuSans-2206" d="M 2138 3944 
L 831 556 
L 3444 556 
L 2138 3944 
z
M 1791 4603 
L 2491 4603 
L 4300 0 
L -19 0 
L 1791 4603 
z
" transform="scale(0.015625)"/>
        <path id="DejaVuSans-43" d="M 4122 4306 
L 4122 3641 
Q 3803 3938 3442 4084 
Q 3081 4231 2675 4231 
Q 1875 4231 1450 3742 
Q 1025 3253 1025 2328 
Q 1025 1406 1450 917 
Q 1875 428 2675 428 
Q 3081 428 3442 575 
Q 3803 722 4122 1019 
L 4122 359 
Q 3791 134 3420 21 
Q 3050 -91 2638 -91 
Q 1578 -91 968 557 
Q 359 1206 359 2328 
Q 359 3453 968 4101 
Q 1578 4750 2638 4750 
Q 3056 4750 3426 4639 
Q 3797 4528 4122 4306 
z
" transform="scale(0.015625)"/>
       </defs>
       <use xlink:href="#DejaVuSans-48"/>
       <use xlink:href="#DejaVuSans-44" x="75.195312"/>
       <use xlink:href="#DejaVuSans-2206" x="152.197266"/>
       <use xlink:href="#DejaVuSans-43" x="219.091797"/>
      </g>
     </g>
    </g>
    <g id="xtick_2">
     <g id="line2d_2">
      <g>
       <use xlink:href="#m602247eb50" x="254.25" y="128.16" style="stroke: #000000; stroke-width: 0.8"/>
      </g>
     </g>
     <g id="text_2">
      <!-- None -->
      <g transform="translate(241.204688 142.758438) scale(0.1 -0.1)">
       <defs>
        <path id="DejaVuSans-4e" d="M 628 4666 
L 1478 4666 
L 3547 763 
L 3547 4666 
L 4159 4666 
L 4159 0 
L 3309 0 
L 1241 3903 
L 1241 0 
L 628 0 
L 628 4666 
z
" transform="scale(0.015625)"/>
        <path id="DejaVuSans-6f" d="M 1959 3097 
Q 1497 3097 1228 2736 
Q 959 2375 959 1747 
Q 959 1119 1226 758 
Q 1494 397 1959 397 
Q 2419 397 2687 759 
Q 2956 1122 2956 1747 
Q 2956 2369 2687 2733 
Q 2419 3097 1959 3097 
z
M 1959 3584 
Q 2709 3584 3137 3096 
Q 3566 2609 3566 1747 
Q 3566 888 3137 398 
Q 2709 -91 1959 -91 
Q 1206 -91 779 398 
Q 353 888 353 1747 
Q 353 2609 779 3096 
Q 1206 3584 1959 3584 
z
" transform="scale(0.015625)"/>
        <path id="DejaVuSans-6e" d="M 3513 2113 
L 3513 0 
L 2938 0 
L 2938 2094 
Q 2938 2591 2744 2837 
Q 2550 3084 2163 3084 
Q 1697 3084 1428 2787 
Q 1159 2491 1159 1978 
L 1159 0 
L 581 0 
L 581 3500 
L 1159 3500 
L 1159 2956 
Q 1366 3272 1645 3428 
Q 1925 3584 2291 3584 
Q 2894 3584 3203 3211 
Q 3513 2838 3513 2113 
z
" transform="scale(0.015625)"/>
        <path id="DejaVuSans-65" d="M 3597 1894 
L 3597 1613 
L 953 1613 
Q 991 1019 1311 708 
Q 1631 397 2203 397 
Q 2534 397 2845 478 
Q 3156 559 3463 722 
L 3463 178 
Q 3153 47 2828 -22 
Q 2503 -91 2169 -91 
Q 1331 -91 842 396 
Q 353 884 353 1716 
Q 353 2575 817 3079 
Q 1281 3584 2069 3584 
Q 2775 3584 3186 3129 
Q 3597 2675 3597 1894 
z
M 3022 2063 
Q 3016 2534 2758 2815 
Q 2500 3097 2075 3097 
Q 1594 3097 1305 2825 
Q 1016 2553 972 2059 
L 3022 2063 
z
" transform="scale(0.015625)"/>
       </defs>
       <use xlink:href="#DejaVuSans-4e"/>
       <use xlink:href="#DejaVuSans-6f" x="74.804688"/>
       <use xlink:href="#DejaVuSans-6e" x="135.986328"/>
       <use xlink:href="#DejaVuSans-65" x="199.365234"/>
      </g>
     </g>
    </g>
   </g>
   <g id="matplotlib.axis_2">
    <g id="ytick_1">
     <g id="line2d_3">
      <defs>
       <path id="mefacc9fd45" d="M 0 0 
L -3.5 0 
" style="stroke: #000000; stroke-width: 0.8"/>
      </defs>
      <g>
       <use xlink:href="#mefacc9fd45" x="45" y="118.08" style="stroke: #000000; stroke-width: 0.8"/>
      </g>
     </g>
     <g id="text_3">
      <!-- 0.5 -->
      <g transform="translate(22.096875 121.879219) scale(0.1 -0.1)">
       <defs>
        <path id="DejaVuSans-30" d="M 2034 4250 
Q 1547 4250 1301 3770 
Q 1056 3291 1056 2328 
Q 1056 1369 1301 889 
Q 1547 409 2034 409 
Q 2525 409 2770 889 
Q 3016 1369 3016 2328 
Q 3016 3291 2770 3770 
Q 2525 4250 2034 4250 
z
M 2034 4750 
Q 2819 4750 3233 4129 
Q 3647 3509 3647 2328 
Q 3647 1150 3233 529 
Q 2819 -91 2034 -91 
Q 1250 -91 836 529 
Q 422 1150 422 2328 
Q 422 3509 836 4129 
Q 1250 4750 2034 4750 
z
" transform="scale(0.015625)"/>
        <path id="DejaVuSans-2e" d="M 684 794 
L 1344 794 
L 1344 0 
L 684 0 
L 684 794 
z
" transform="scale(0.015625)"/>
        <path id="DejaVuSans-35" d="M 691 4666 
L 3169 4666 
L 3169 4134 
L 1269 4134 
L 1269 2991 
Q 1406 3038 1543 3061 
Q 1681 3084 1819 3084 
Q 2600 3084 3056 2656 
Q 3513 2228 3513 1497 
Q 3513 744 3044 326 
Q 2575 -91 1722 -91 
Q 1428 -91 1123 -41 
Q 819 9 494 109 
L 494 744 
Q 775 591 1075 516 
Q 1375 441 1709 441 
Q 2250 441 2565 725 
Q 2881 1009 2881 1497 
Q 2881 1984 2565 2268 
Q 2250 2553 1709 2553 
Q 1456 2553 1204 2497 
Q 953 2441 691 2322 
L 691 4666 
z
" transform="scale(0.015625)"/>
       </defs>
       <use xlink:href="#DejaVuSans-30"/>
       <use xlink:href="#DejaVuSans-2e" x="63.623047"/>
       <use xlink:href="#DejaVuSans-35" x="95.410156"/>
      </g>
     </g>
    </g>
    <g id="ytick_2">
     <g id="line2d_4">
      <g>
       <use xlink:href="#mefacc9fd45" x="45" y="92.88" style="stroke: #000000; stroke-width: 0.8"/>
      </g>
     </g>
     <g id="text_4">
      <!-- 0.6 -->
      <g transform="translate(22.096875 96.679219) scale(0.1 -0.1)">
       <defs>
        <path id="DejaVuSans-36" d="M 2113 2584 
Q 1688 2584 1439 2293 
Q 1191 2003 1191 1497 
Q 1191 994 1439 701 
Q 1688 409 2113 409 
Q 2538 409 2786 701 
Q 3034 994 3034 1497 
Q 3034 2003 2786 2293 
Q 2538 2584 2113 2584 
z
M 3366 4563 
L 3366 3988 
Q 3128 4100 2886 4159 
Q 2644 4219 2406 4219 
Q 1781 4219 1451 3797 
Q 1122 3375 1075 2522 
Q 1259 2794 1537 2939 
Q 1816 3084 2150 3084 
Q 2853 3084 3261 2657 
Q 3669 2231 3669 1497 
Q 3669 778 3244 343 
Q 2819 -91 2113 -91 
Q 1303 -91 875 529 
Q 447 1150 447 2328 
Q 447 3434 972 4092 
Q 1497 4750 2381 4750 
Q 2619 4750 2861 4703 
Q 3103 4656 3366 4563 
z
" transform="scale(0.015625)"/>
       </defs>
       <use xlink:href="#DejaVuSans-30"/>
       <use xlink:href="#DejaVuSans-2e" x="63.623047"/>
       <use xlink:href="#DejaVuSans-36" x="95.410156"/>
      </g>
     </g>
    </g>
    <g id="ytick_3">
     <g id="line2d_5">
      <g>
       <use xlink:href="#mefacc9fd45" x="45" y="67.68" style="stroke: #000000; stroke-width: 0.8"/>
      </g>
     </g>
     <g id="text_5">
      <!-- 0.7 -->
      <g transform="translate(22.096875 71.479219) scale(0.1 -0.1)">
       <defs>
        <path id="DejaVuSans-37" d="M 525 4666 
L 3525 4666 
L 3525 4397 
L 1831 0 
L 1172 0 
L 2766 4134 
L 525 4134 
L 525 4666 
z
" transform="scale(0.015625)"/>
       </defs>
       <use xlink:href="#DejaVuSans-30"/>
       <use xlink:href="#DejaVuSans-2e" x="63.623047"/>
       <use xlink:href="#DejaVuSans-37" x="95.410156"/>
      </g>
     </g>
    </g>
    <g id="ytick_4">
     <g id="line2d_6">
      <g>
       <use xlink:href="#mefacc9fd45" x="45" y="42.48" style="stroke: #000000; stroke-width: 0.8"/>
      </g>
     </g>
     <g id="text_6">
      <!-- 0.8 -->
      <g transform="translate(22.096875 46.279219) scale(0.1 -0.1)">
       <defs>
        <path id="DejaVuSans-38" d="M 2034 2216 
Q 1584 2216 1326 1975 
Q 1069 1734 1069 1313 
Q 1069 891 1326 650 
Q 1584 409 2034 409 
Q 2484 409 2743 651 
Q 3003 894 3003 1313 
Q 3003 1734 2745 1975 
Q 2488 2216 2034 2216 
z
M 1403 2484 
Q 997 2584 770 2862 
Q 544 3141 544 3541 
Q 544 4100 942 4425 
Q 1341 4750 2034 4750 
Q 2731 4750 3128 4425 
Q 3525 4100 3525 3541 
Q 3525 3141 3298 2862 
Q 3072 2584 2669 2484 
Q 3125 2378 3379 2068 
Q 3634 1759 3634 1313 
Q 3634 634 3220 271 
Q 2806 -91 2034 -91 
Q 1263 -91 848 271 
Q 434 634 434 1313 
Q 434 1759 690 2068 
Q 947 2378 1403 2484 
z
M 1172 3481 
Q 1172 3119 1398 2916 
Q 1625 2713 2034 2713 
Q 2441 2713 2670 2916 
Q 2900 3119 2900 3481 
Q 2900 3844 2670 4047 
Q 2441 4250 2034 4250 
Q 1625 4250 1398 4047 
Q 1172 3844 1172 3481 
z
" transform="scale(0.015625)"/>
       </defs>
       <use xlink:href="#DejaVuSans-30"/>
       <use xlink:href="#DejaVuSans-2e" x="63.623047"/>
       <use xlink:href="#DejaVuSans-38" x="95.410156"/>
      </g>
     </g>
    </g>
    <g id="ytick_5">
     <g id="line2d_7">
      <g>
       <use xlink:href="#mefacc9fd45" x="45" y="17.28" style="stroke: #000000; stroke-width: 0.8"/>
      </g>
     </g>
     <g id="text_7">
      <!-- 0.9 -->
      <g transform="translate(22.096875 21.079219) scale(0.1 -0.1)">
       <defs>
        <path id="DejaVuSans-39" d="M 703 97 
L 703 672 
Q 941 559 1184 500 
Q 1428 441 1663 441 
Q 2288 441 2617 861 
Q 2947 1281 2994 2138 
Q 2813 1869 2534 1725 
Q 2256 1581 1919 1581 
Q 1219 1581 811 2004 
Q 403 2428 403 3163 
Q 403 3881 828 4315 
Q 1253 4750 1959 4750 
Q 2769 4750 3195 4129 
Q 3622 3509 3622 2328 
Q 3622 1225 3098 567 
Q 2575 -91 1691 -91 
Q 1453 -91 1209 -44 
Q 966 3 703 97 
z
M 1959 2075 
Q 2384 2075 2632 2365 
Q 2881 2656 2881 3163 
Q 2881 3666 2632 3958 
Q 2384 4250 1959 4250 
Q 1534 4250 1286 3958 
Q 1038 3666 1038 3163 
Q 1038 2656 1286 2365 
Q 1534 2075 1959 2075 
z
" transform="scale(0.015625)"/>
       </defs>
       <use xlink:href="#DejaVuSans-30"/>
       <use xlink:href="#DejaVuSans-2e" x="63.623047"/>
       <use xlink:href="#DejaVuSans-39" x="95.410156"/>
      </g>
     </g>
    </g>
   </g>
   <g id="patch_3">
    <path d="M 45 128.16 
L 45 17.28 
" style="fill: none; stroke: #000000; stroke-width: 0.8; stroke-linejoin: miter; stroke-linecap: square"/>
   </g>
   <g id="patch_4">
    <path d="M 324 128.16 
L 324 17.28 
" style="fill: none; stroke: #000000; stroke-width: 0.8; stroke-linejoin: miter; stroke-linecap: square"/>
   </g>
   <g id="patch_5">
    <path d="M 45 128.16 
L 324 128.16 
" style="fill: none; stroke: #000000; stroke-width: 0.8; stroke-linejoin: miter; stroke-linecap: square"/>
   </g>
   <g id="patch_6">
    <path d="M 45 17.28 
L 324 17.28 
" style="fill: none; stroke: #000000; stroke-width: 0.8; stroke-linejoin: miter; stroke-linecap: square"/>
   </g>
   <g id="PathCollection_1">
    <defs>
     <path id="C0_0_d9bbdd294d" d="M 0 2.5 
C 0.663008 2.5 1.29895 2.236584 1.767767 1.767767 
C 2.236584 1.29895 2.5 0.663008 2.5 -0 
C 2.5 -0.663008 2.236584 -1.29895 1.767767 -1.767767 
C 1.29895 -2.236584 0.663008 -2.5 0 -2.5 
C -0.663008 -2.5 -1.29895 -2.236584 -1.767767 -1.767767 
C -2.236584 -1.29895 -2.5 -0.663008 -2.5 0 
C -2.5 0.663008 -2.236584 1.29895 -1.767767 1.767767 
C -1.29895 2.236584 -0.663008 2.5 0 2.5 
z
"/>
    </defs>
    <g clip-path="url(#p646a05ab7f)">
     <use xlink:href="#C0_0_d9bbdd294d" x="110.215556" y="95.4" style="fill: #b22222"/>
    </g>
    <g clip-path="url(#p646a05ab7f)">
     <use xlink:href="#C0_0_d9bbdd294d" x="114.75" y="123.12" style="fill: #b22222"/>
    </g>
    <g clip-path="url(#p646a05ab7f)">
     <use xlink:href="#C0_0_d9bbdd294d" x="114.75" y="110.52" style="fill: #b22222"/>
    </g>
    <g clip-path="url(#p646a05ab7f)">
     <use xlink:href="#C0_0_d9bbdd294d" x="114.75" y="97.92" style="fill: #b22222"/>
    </g>
    <g clip-path="url(#p646a05ab7f)">
     <use xlink:href="#C0_0_d9bbdd294d" x="114.75" y="77.76" style="fill: #b22222"/>
    </g>
    <g clip-path="url(#p646a05ab7f)">
     <use xlink:href="#C0_0_d9bbdd294d" x="114.75" y="105.48" style="fill: #b22222"/>
    </g>
    <g clip-path="url(#p646a05ab7f)">
     <use xlink:href="#C0_0_d9bbdd294d" x="114.75" y="115.56" style="fill: #b22222"/>
    </g>
    <g clip-path="url(#p646a05ab7f)">
     <use xlink:href="#C0_0_d9bbdd294d" x="114.75" y="87.84" style="fill: #b22222"/>
    </g>
   </g>
   <g id="PathCollection_2">
    <defs>
     <path id="C1_0_9d8c2b1d2d" d="M 0 2.5 
C 0.663008 2.5 1.29895 2.236584 1.767767 1.767767 
C 2.236584 1.29895 2.5 0.663008 2.5 -0 
C 2.5 -0.663008 2.236584 -1.29895 1.767767 -1.767767 
C 1.29895 -2.236584 0.663008 -2.5 0 -2.5 
C -0.663008 -2.5 -1.29895 -2.236584 -1.767767 -1.767767 
C -2.236584 -1.29895 -2.5 -0.663008 -2.5 0 
C -2.5 0.663008 -2.236584 1.29895 -1.767767 1.767767 
C -1.29895 2.236584 -0.663008 2.5 0 2.5 
z
"/>
    </defs>
    <g clip-path="url(#p646a05ab7f)">
     <use xlink:href="#C1_0_9d8c2b1d2d" x="249.715556" y="34.92" style="fill: #808080"/>
    </g>
    <g clip-path="url(#p646a05ab7f)">
     <use xlink:href="#C1_0_9d8c2b1d2d" x="249.715556" y="75.24" style="fill: #808080"/>
    </g>
    <g clip-path="url(#p646a05ab7f)">
     <use xlink:href="#C1_0_9d8c2b1d2d" x="254.25" y="37.44" style="fill: #808080"/>
    </g>
    <g clip-path="url(#p646a05ab7f)">
     <use xlink:href="#C1_0_9d8c2b1d2d" x="249.715556" y="70.2" style="fill: #808080"/>
    </g>
    <g clip-path="url(#p646a05ab7f)">
     <use xlink:href="#C1_0_9d8c2b1d2d" x="254.25" y="82.8" style="fill: #808080"/>
    </g>
    <g clip-path="url(#p646a05ab7f)">
     <use xlink:href="#C1_0_9d8c2b1d2d" x="249.715556" y="92.88" style="fill: #808080"/>
    </g>
    <g clip-path="url(#p646a05ab7f)">
     <use xlink:href="#C1_0_9d8c2b1d2d" x="254.25" y="87.84" style="fill: #808080"/>
    </g>
    <g clip-path="url(#p646a05ab7f)">
     <use xlink:href="#C1_0_9d8c2b1d2d" x="254.25" y="22.32" style="fill: #808080"/>
    </g>
    <g clip-path="url(#p646a05ab7f)">
     <use xlink:href="#C1_0_9d8c2b1d2d" x="254.25" y="115.56" style="fill: #808080"/>
    </g>
    <g clip-path="url(#p646a05ab7f)">
     <use xlink:href="#C1_0_9d8c2b1d2d" x="254.25" y="77.76" style="fill: #808080"/>
    </g>
    <g clip-path="url(#p646a05ab7f)">
     <use xlink:href="#C1_0_9d8c2b1d2d" x="249.715556" y="50.04" style="fill: #808080"/>
    </g>
    <g clip-path="url(#p646a05ab7f)">
     <use xlink:href="#C1_0_9d8c2b1d2d" x="254.25" y="95.4" style="fill: #808080"/>
    </g>
    <g clip-path="url(#p646a05ab7f)">
     <use xlink:href="#C1_0_9d8c2b1d2d" x="254.25" y="52.56" style="fill: #808080"/>
    </g>
    <g clip-path="url(#p646a05ab7f)">
     <use xlink:href="#C1_0_9d8c2b1d2d" x="254.25" y="72.72" style="fill: #808080"/>
    </g>
    <g clip-path="url(#p646a05ab7f)">
     <use xlink:href="#C1_0_9d8c2b1d2d" x="259.5" y="72.72" style="fill: #808080"/>
    </g>
    <g clip-path="url(#p646a05ab7f)">
     <use xlink:href="#C1_0_9d8c2b1d2d" x="254.25" y="62.64" style="fill: #808080"/>
    </g>
   </g>
   <g id="text_8">
    <!-- PBX -->
    <g transform="translate(172.655625 11.28) scale(0.12 -0.12)">
     <defs>
      <path id="DejaVuSans-50" d="M 1259 4147 
L 1259 2394 
L 2053 2394 
Q 2494 2394 2734 2622 
Q 2975 2850 2975 3272 
Q 2975 3691 2734 3919 
Q 2494 4147 2053 4147 
L 1259 4147 
z
M 628 4666 
L 2053 4666 
Q 2838 4666 3239 4311 
Q 3641 3956 3641 3272 
Q 3641 2581 3239 2228 
Q 2838 1875 2053 1875 
L 1259 1875 
L 1259 0 
L 628 0 
L 628 4666 
z
" transform="scale(0.015625)"/>
      <path id="DejaVuSans-42" d="M 1259 2228 
L 1259 519 
L 2272 519 
Q 2781 519 3026 730 
Q 3272 941 3272 1375 
Q 3272 1813 3026 2020 
Q 2781 2228 2272 2228 
L 1259 2228 
z
M 1259 4147 
L 1259 2741 
L 2194 2741 
Q 2656 2741 2882 2914 
Q 3109 3088 3109 3444 
Q 3109 3797 2882 3972 
Q 2656 4147 2194 4147 
L 1259 4147 
z
M 628 4666 
L 2241 4666 
Q 2963 4666 3353 4366 
Q 3744 4066 3744 3513 
Q 3744 3084 3544 2831 
Q 3344 2578 2956 2516 
Q 3422 2416 3680 2098 
Q 3938 1781 3938 1306 
Q 3938 681 3513 340 
Q 3088 0 2303 0 
L 628 0 
L 628 4666 
z
" transform="scale(0.015625)"/>
      <path id="DejaVuSans-58" d="M 403 4666 
L 1081 4666 
L 2241 2931 
L 3406 4666 
L 4084 4666 
L 2584 2425 
L 4184 0 
L 3506 0 
L 2194 1984 
L 872 0 
L 191 0 
L 1856 2491 
L 403 4666 
z
" transform="scale(0.015625)"/>
     </defs>
     <use xlink:href="#DejaVuSans-50"/>
     <use xlink:href="#DejaVuSans-42" x="60.302734"/>
     <use xlink:href="#DejaVuSans-58" x="128.90625"/>
    </g>
   </g>
  </g>
 </g>
 <defs>
  <clipPath id="p646a05ab7f">
   <rect x="45" y="17.28" width="279" height="110.88"/>
  </clipPath>
 </defs>
</svg>
